<ttFont>
<head>
    <!-- Most of this table will be recalculated by the compiler -->
    <tableVersion value="1.0"/>
    <fontRevision value="2.004"/>
    <checkSumAdjustment value="0xafe8db30"/>
    <magicNumber value="0x5f0f3cf5"/>
    <flags value="00000000 00000011"/>
    <unitsPerEm value="1000"/>
    <created value="Thu Oct  8 09:58:30 2009"/>
    <modified value="Thu Oct  8 09:58:30 2009"/>
    <xMin value="-518"/>
    <yMin value="-307"/>
    <xMax value="1565"/>
    <yMax value="1147"/>
    <macStyle value="00000000 00000011"/>
    <lowestRecPPEM value="3"/>
    <fontDirectionHint value="2"/>
    <indexToLocFormat value="0"/>
    <glyphDataFormat value="0"/>
  </head>
          <CharString index="0">
            761 256 rmoveto
            40 callgsubr
            0 -1 -26 -12 vhcurveto
            -123 -53 -43 -77 -163 hhcurveto
            -100 hlineto
            -9 -7 0 1 -7 hvcurveto
            70 281 rlineto
            51 hlineto
            55 14 -10 -30 -7 -3 -20 -4 -18 hvcurveto
            -2 -7 -1 -7 57 callgsubr
            -22 -3 -3 -19 -5 vhcurveto
            -70 -18 -18 -25 -79 hhcurveto
            -42 hlineto
            63 255 rlineto
            2 14 41 0 27 hhcurveto
            122 65 0 -106 -19 0 -3 -3 -26 hvcurveto
            -1 -4 -2 -13 -4 vvcurveto
            -19 18 0 10 26 1 7 19 2 vhcurveto
            23 198 rlineto
            17 -2 -16 0 -14 hhcurveto
            -516 -84 callgsubr
            -65 callsubr
            hvcurveto
            return
          </CharString>
          <CharString index="1">
            805 29 rmoveto
            -40 callsubr
            -13 hlineto
            -9 -16 0 1 -8 hvcurveto
            -12 2 -1 1 -2 15 -66 616 rcurveline
            26 -3 -3 3 -30 hhcurveto
            -22 -10 0 -25 -15 hvcurveto
            -365 -602 -11 -18 -11 -18 -72 -1 rlinecurve
            -14 -17 0 -29 0 0 -18 19 hvcurveto
            31 35 3 32 38 40 -3 37 hhcurveto
            8 20 0 29 18 -18 0 -8 hvcurveto
            0 -36 1 -24 9 vhcurveto
            81 135 rlineto
            232 hlineto
            15 -140 rlineto
            -4 -19 -26 -1 -20 hhcurveto
            -22 -17 0 -29 0 0 -18 22 hvcurveto
            48 50 3 49 45 47 -3 45 hhcurveto
            10 18 0 29 hvcurveto
            -250 210 rmoveto
            -198 hlineto
            168 278 rlineto
            return
          </CharString>
          <CharString index="2">
            988 668 rmoveto
            11 -9 7 -11 vhcurveto
            -37 -39 -3 -38 -39 -41 3 -39 hhcurveto
            -7 -20 -11 callgsubr
            9 36 0 -10 25 hvcurveto
            -99 -396 rlineto
            -140 -35 -102 -63 -110 hhcurveto
            -30 -33 7 17 -22 hvcurveto
            -28 23 -4 31 25 vvcurveto
            34 5 18 7 30 vhcurveto
            101 405 -61 callsubr
            26 callgsubr
            hvcurveto
            -49 -51 -3 -50 -51 -53 3 -50 -69 callsubr
            -102 -406 rlineto
            -2 -7 -5 -25 -26 vvcurveto
            -121 94 -69 146 188 98 136 101 25 vhcurveto
            97 390 4 15 1 3 29 6 rlinecurve
            5 23 26 0 8 hhcurveto
            14 30 callsubr
            return
          </CharString>
          <CharString index="3">
            rmoveto
            32 5 -20 25 -32 hhcurveto
            -18 -13 -9 -13 -20 hvcurveto
            -140 -91 -6 -4 -8 -6 -1 -7 rlinecurve
            -1 -6 7 -29 16 -2 rrcurveto
            6 5 1 2 6 hvcurveto
            166 61 15 5 27 11 6 30 rlinecurve
            endchar
          </CharString>
          <CharString index="4">
            -98 callgsubr
            hintmask 00011000
            return
          </CharString>
          <CharString index="5">
            rmoveto
            10 -8 8 -10 -13 -3 -11 -5 -2 vhcurveto
            -84 -28 -90 -20 -40 hhcurveto
            -49 -53 24 53 hvcurveto
            14 3 4 7 vvcurveto
            9 -8 9 -10 -19 -3 -25 -27 -77 58 -50 75 124 76 121 40 vhcurveto
            return
          </CharString>
          <CharString index="6">
            -62 callsubr
            -14 hhcurveto
            -56 -29 33 59 25 7 39 9 34 hvcurveto
            40 hlineto
            60 198 0 138 60 -56 36 -74 -173 -119 -131 -154 -108 67 -67 125 31 59 3 19 51 hvcurveto
            54 21 39 39 12 vvcurveto
            -69 271 rmoveto
            -103 -163 0 -61 vhcurveto
            14 50 10 30 29 32 rrcurveto
            34 28 44 16 34 hhcurveto
            42 23 -27 -32 hvcurveto
            return
          </CharString>
          <CharString index="7">
            -20 -102 callgsubr
            return
          </CharString>
          <CharString index="8">
            121 callgsubr
            -25 -7 vhcurveto
            -33 -8 -18 -75 -34 hhcurveto
            -12 -7 8 23 19 2 8 4 16 hvcurveto
            return
          </CharString>
          <CharString index="9">
            vvcurveto
            56 -51 33 -54 -104 -49 -135 -21 -14 13 0 15 19 5 0 13 4 vhcurveto
            26 8 27 95 57 hhcurveto
            5 9 0 -18 return
          </CharString>
          <CharString index="10">
            rmoveto
            2 4 1 2 -1 11 -9 118 rcurveline
            11 -1 -6 23 -30 hhcurveto
            -29 -31 -21 -26 -13 hvcurveto
            -11 -22 9 -13 5 -10 54 -94 rcurveline
            6 -10 9 0 0 vvcurveto
            4 33 10 17 8 hvcurveto
            177 hmoveto
            2 4 1 2 -1 11 -9 118 rcurveline
            11 -1 -6 23 -30 hhcurveto
            -29 -31 -21 -26 -13 hvcurveto
            -11 -22 9 -13 5 -10 54 -94 rcurveline
            6 -10 9 0 0 vvcurveto
            4 33 10 17 8 hvcurveto
            endchar
          </CharString>
          <CharString index="11">
            89 callsubr
            11 -9 7 -11 vhcurveto
            -37 -40 -3 -38 -39 -41 3 -38 hhcurveto
            -8 -20 -11 callgsubr
            9 36 0 -10 25 hvcurveto
            -106 -423 -240 463 rlineto
            16 -9 -1 1 -23 hhcurveto
            -185 hlineto
            -17 -18 -60 callgsubr
            27 hlineto
            43 0 -2 -3 0 -2 -8 -1 -3 hvcurveto
            -136 -546 -4 -15 -1 -4 -27 -6 rlinecurve
            -2 -11 -21 -3 -25 hhcurveto
            -16 -18 0 -29 -4 3 -14 17 hvcurveto
            37 40 3 38 39 42 -3 38 hhcurveto
            8 19 0 29 117 callgsubr
            -9 -36 0 10 -24 hvcurveto
            131 527 294 -568 rlineto
            -15 8 1 -1 22 hhcurveto
            23 5 0 24 6 hvcurveto
            146 586 4 15 1 3 29 6 rlinecurve
            5 23 26 0 8 hhcurveto
            14 30 callsubr
            return
          </CharString>
          <CharString index="12">
            874 258 rmoveto
            6 -4 12 -16 vhcurveto
            -41 -44 -3 -42 -55 -57 3 -55 hhcurveto
            -12 -19 21 callgsubr
            34 hlineto
            12 48 0 -6 -4 -23 -90 -3 -10 hvcurveto
            -56 -17 -64 -33 -62 hhcurveto
            -61 -51 21 24 -27 hvcurveto
            -29 27 -20 37 64 vvcurveto
            45 26 187 82 106 vhcurveto
            90 71 101 25 65 hhcurveto
            103 42 -83 -88 hvcurveto
            -32 -3 -4 -8 vvcurveto
            -15 11 0 20 25 2 0 20 5 vhcurveto
            56 224 rlineto
            4 15 0 4 0 vvcurveto
            14 -12 0 -15 vhcurveto
            -86 -68 rlineto
            68 -63 -78 0 -25 hhcurveto
            -291 -175 -243 -216 -187 142 -74 153 61 76 15 49 55 hvcurveto
            -23 26 42 -24 7 hhcurveto
            12 2 9 12 3 hvcurveto
            47 191 3 14 2 0 7 1 rlinecurve
            2 11 11 0 11 hhcurveto
            24 16 0 29 hvcurveto
            return
          </CharString>
          <CharString index="13">
            595 284 rmoveto
            103 -71 65 -119 -198 -100 -167 -125 -103 71 -65 119 197 101 166 126 vhcurveto
            -160 -160 rmoveto
            -63 -29 -56 -33 -51 hhcurveto
            -35 -48 17 71 39 26 112 25 53 hvcurveto
            63 29 56 33 51 hhcurveto
            35 48 -17 -71 -39 -26 -112 -25 -53 hvcurveto
            return
          </CharString>
          <CharString index="14">
            652 144 rmoveto
            1 4 rlineto
            6 -5 6 -6 2 vhcurveto
            -3 hlineto
            -28 hlineto
            -7 -5 -5 -6 -2 hvcurveto
            -85 -21 -16 -41 -28 hhcurveto
            -13 -6 8 22 14 3 19 5 20 hvcurveto
            63 249 70 17 63 50 17 66 rlinecurve
            2 9 1 9 8 vvcurveto
            33 -19 28 -34 1 vhcurveto
            -46 -1 -34 -40 -39 vvcurveto
            -29 19 -22 32 -3 vhcurveto
            -17 -16 -21 -12 -24 -8 rrcurveto
            23 -2 -20 13 -22 hhcurveto
            -27 -27 -18 -31 -8 hvcurveto
            -70 -281 -2 -7 -1 -8 -1 -7 rlinecurve
            -43 -27 -33 -24 -41 hhcurveto
            -23 -17 13 19 -6 hvcurveto
            -3 11 -2 12 14 vvcurveto
            23 5 26 8 33 vhcurveto
            10 37 16 45 27 70 rrcurveto
            5 13 2 12 12 vvcurveto
            53 -46 37 -59 -71 -60 -72 -83 -21 vhcurveto
            -4 vlineto
            -6 4 -6 6 -1 vhcurveto
            4 -1 rlineto
            27 hlineto
            7 5 5 6 2 hvcurveto
            74 18 34 52 43 hhcurveto
            9 3 -4 -13 -15 -6 -23 -10 -26 hvcurveto
            -27 -71 -17 -46 -9 -38 rrcurveto
            -6 -24 -4 -23 -21 vvcurveto
            -29 7 -26 15 -21 vhcurveto
            -36 26 47 -14 55 hhcurveto
            44 38 19 33 34 hvcurveto
            -32 19 39 -20 46 hhcurveto
            64 36 69 86 22 hvcurveto
            return
          </CharString>
          <CharString index="15">
            hhcurveto
            -47 -25 -34 -20 -13 hvcurveto
            -26 -42 -13 -56 -4 vvcurveto
            -14 13 0 15 24 1 1 25 7 vhcurveto
            33 8 18 75 34 hhcurveto
            12 7 -8 -23 -19 -2 -8 -4 -16 hvcurveto
            -71 -285 rlineto
            -4 -15 0 -2 -5 vvcurveto
            -31 24 -12 21 7 43 2 52 13 vhcurveto
            return
          </CharString>
          <CharString index="16">
            35 -17 25 -32 -41 -27 -37 -30 -18 11 -25 35 20 14 9 1 2 vhcurveto
            -20 -65 -45 -41 -28 -20 rrcurveto
            -12 -9 -1 -1 -5 vvcurveto
            -6 6 -9 8 17 110 98 98 vhcurveto
            endchar
          </CharString>
          <CharString index="17">
            684 148 rmoveto
            14 -13 0 -15 -19 -5 0 -13 -4 vhcurveto
            -26 -8 -27 -95 -57 hhcurveto
            -5 -9 0 18 21 10 26 13 34 hvcurveto
            14 37 45 118 57 vvcurveto
            -77 callgsubr
            -60 -46 -123 -18 -45 hvcurveto
            -9 -25 -3 -10 -15 vvcurveto
            -56 51 -33 54 104 49 135 21 vhcurveto
            return
          </CharString>
          <CharString index="18">
            842 460 rmoveto
            28 181 rlineto
            2 11 0 4 0 vvcurveto
            19 -16 0 -16 vhcurveto
            -556 hlineto
            -22 -4 0 -19 -7 hvcurveto
            -50 -144 rlineto
            -7 -20 -12 -34 -6 vvcurveto
            -18 18 0 10 20 3 1 20 7 vhcurveto
            136 47 28 37 129 hhcurveto
            24 2 0 -1 16 hvcurveto
            -143 -575 rlineto
            -1 -4 -29 -4 -49 hhcurveto
            -45 hlineto
            -17 -18 0 -29 -18 20 0 4 hvcurveto
            193 3 197 -3 rlineto
            126 callsubr
            -25 callgsubr
            hvcurveto
            -44 hlineto
            -21 -30 1 2 -20 hvcurveto
            140 562 4 15 1 0 15 1 rlinecurve
            35 hlineto
            97 23 -18 -63 -31 -6 -39 -2 -10 hvcurveto
            -2 -10 73 callsubr
            17 0 11 18 8 0 26 4 vhcurveto
            return
          </CharString>
          <CharString index="19">
            -80 callsubr
            hintmask 00110000
            return
          </CharString>
          <CharString index="20">
            33 callgsubr
            hintmask 11100110
            -101 callsubr
            return
          </CharString>
          <CharString index="21">
            -60 callgsubr
            22 hlineto
            11 26 -1 -1 12 hvcurveto
            return
          </CharString>
          <CharString index="22">
            684 494 rmoveto
            2 8 1 8 7 vvcurveto
            33 -20 27 -34 1 vhcurveto
            -46 -1 -35 -40 -39 vvcurveto
            -29 20 -23 33 -2 vhcurveto
            -17 -18 -21 -13 -22 -4 rrcurveto
            32 -35 -50 14 -55 hhcurveto
            -65 -67 -20 -42 -53 hvcurveto
            -53 -43 -36 -60 -16 -64 rrcurveto
            -6 -23 -3 -23 -22 vvcurveto
            -39 10 -36 22 -29 vhcurveto
            -44 34 57 -21 66 hhcurveto
            66 66 20 43 53 hvcurveto
            53 42 36 60 16 65 rrcurveto
            6 23 3 22 22 vvcurveto
            31 -6 29 -13 25 vhcurveto
            51 17 44 50 14 56 rrcurveto
            -217 -268 rmoveto
            -18 -72 -13 -40 -32 -37 rrcurveto
            -33 -28 -41 -19 -38 hhcurveto
            -36 -29 18 30 -10 hvcurveto
            -5 12 -2 13 15 vvcurveto
            29 6 28 12 49 vhcurveto
            18 71 13 41 32 36 rrcurveto
            33 28 41 19 38 hhcurveto
            36 29 -18 -29 11 hvcurveto
            4 -12 2 -14 -15 vvcurveto
            -29 -6 -28 -12 -48 vhcurveto
            return
          </CharString>
          <CharString index="23">
            21 0 45 -37 45 vhcurveto
            -31 37 -31 7 -64 16 -68 17 rcurveline
            -17 4 -52 13 63 vvcurveto
            46 41 95 109 75 56 -39 -100 vhcurveto
            -21 -4 -24 -3 vvcurveto
            -15 12 0 16 23 2 0 20 5 vhcurveto
            48 192 rlineto
            3 13 1 2 3 vvcurveto
            15 -13 0 -6 -10 0 -1 -8 -10 vhcurveto
            -52 -44 rlineto
            0 -1 1 -4 3 vhcurveto
            33 -35 -44 16 -60 hhcurveto
            -177 -82 -153 -94 -36 10 -32 21 -29 hvcurveto
            31 -42 40 -10 49 -12 30 -7 2 0 32 -9 rrcurveto
            return
          </CharString>
          <CharString index="24">
            1 5 2 6 5 vvcurveto
            19 -18 -1 -14 -1 vhcurveto
            -123 -6 rlineto
            -11 -1 -20 0 -29 vvcurveto
            -18 18 0 9 12 18 -1 -1 12 vhcurveto
            return
          </CharString>
          <CharString index="25">
            rmoveto
            -151 139 -198 -139 10 -25 169 56 151 -56 rlineto
            return
          </CharString>
          <CharString index="26">
            rmoveto
            25 -19 29 -37 -41 -39 -39 -39 vhcurveto
            -29 1 20 -25 35 hhcurveto
            42 38 39 39 hvcurveto
            291 hmoveto
            25 -19 29 -37 -41 -39 -39 -39 vhcurveto
            -29 1 20 -25 35 hhcurveto
            42 38 39 39 hvcurveto
            return
          </CharString>
          <CharString index="27">
            12 callsubr
            hintmask 11001100
            -99 callgsubr
            return
          </CharString>
          <CharString index="28">
            -20 -78 callsubr
            return
          </CharString>
          <CharString index="29">
            39 callsubr
            hintmask 11001100
            -94 callsubr
            return
          </CharString>
          <CharString index="30">
            791 365 rmoveto
            74 -45 14 -19 -35 -37 -36 -36 -24 14 -10 10 -8 vhcurveto
            20 -14 19 -21 -30 vvcurveto
            -15 -24 -95 -23 -53 vhcurveto
            -49 -21 -29 -34 -43 hhcurveto
            -56 -8 44 31 35 24 92 27 104 hvcurveto
            9 33 6 24 10 vvcurveto
            31 -24 12 -21 -49 -12 -45 -19 -4 vhcurveto
            -34 -136 rlineto
            -10 -40 -14 -54 -28 vvcurveto
            -10 0 -5 2 -9 vhcurveto
            -43 -19 -26 -27 -33 hhcurveto
            -71 0 61 17 56 27 70 31 84 hvcurveto
            7 17 5 13 -92 callgsubr
            -37 -97 -22 -60 -51 vvcurveto
            -111 98 -21 70 49 35 23 28 22 vhcurveto
            -43 34 60 -8 42 hhcurveto
            73 49 50 80 35 hvcurveto
            30 69 32 124 50 vvcurveto
            return
          </CharString>
          <CharString index="31">
            -79 callsubr
            hintmask 00110000
            return
          </CharString>
          <CharString index="32">
            526 151 rmoveto
            15 -14 0 -14 -17 -6 0 -11 -5 vhcurveto
            -22 -55 -51 -1 -85 -1 -68 -2 rcurveline
            -48 hlineto
            22 23 25 25 70 58 40 32 50 41 27 26 rrcurveto
            57 56 53 65 16 vvcurveto
            14 -12 0 -16 -20 -1 -1 -10 -7 vhcurveto
            -18 -12 -24 -39 -15 hhcurveto
            -25 -21 18 17 -21 hvcurveto
            23 -30 -22 10 -27 hhcurveto
            -87 -55 -90 -30 -14 15 0 13 20 2 0 12 6 hvcurveto
            5 9 8 5 33 2 rrcurveto
            71 hlineto
            15 39 2 15 hhcurveto
            21 hlineto
            -22 -23 -25 -25 -70 -58 -40 -32 -50 -41 -27 -26 rrcurveto
            -47 -47 -63 -71 -19 vvcurveto
            -14 12 0 16 20 1 1 9 6 vhcurveto
            28 19 28 30 31 hhcurveto
            25 18 -15 -15 20 hvcurveto
            -22 28 21 -16 36 hhcurveto
            112 69 125 34 hvcurveto
            return
          </CharString>
          <CharString index="33">
            14 -12 callgsubr
            -19 -5 0 -13 -4 vhcurveto
            -26 -8 -27 -95 -57 hhcurveto
            -5 -9 0 18 return
          </CharString>
          <CharString index="34">
            827 29 rmoveto
            18 -17 0 -13 -47 -1 4 15 -7 vhcurveto
            -156 353 242 182 34 25 26 11 58 2 rlinecurve
            7 19 1 28 10 -8 8 -10 hvcurveto
            -27 -31 -3 -28 -43 -45 3 -42 hhcurveto
            -10 -19 0 -29 -17 17 -1 9 hvcurveto
            0 29 -1 20 -7 vhcurveto
            -397 -300 72 289 -61 callsubr
            26 callgsubr
            hvcurveto
            -49 -51 -3 -50 -51 -53 3 -50 -69 callsubr
            -147 -586 rlineto
            0 -22 -4 -37 vhcurveto
            -59 callgsubr
            -13 11 -5 11 hvcurveto
            49 52 3 50 51 53 -3 50 hhcurveto
            9 19 0 29 117 callgsubr
            hvcurveto
            -22 hlineto
            -10 -33 2 -6 hhcurveto
            51 205 109 83 125 -283 rlineto
            -7 -20 -30 0 -3 hhcurveto
            -18 -17 0 -29 -12 10 -6 12 hvcurveto
            47 49 3 48 40 41 -3 39 hhcurveto
            9 18 0 29 hvcurveto
            return
          </CharString>
          <CharString index="35">
            26 -20 21 -29 -30 -18 -23 -11 -6 vhcurveto
            -68 -118 rlineto
            -7 -11 0 -2 -4 vvcurveto
            -17 28 -10 4 vhcurveto
            0 9 0 11 10 vhcurveto
            101 94 rlineto
            10 10 15 13 22 vvcurveto
            -177 hmoveto
            26 -20 21 -29 -30 -18 -23 -11 -6 vhcurveto
            -68 -118 rlineto
            -7 -11 0 -2 -4 vvcurveto
            -17 28 -10 4 vhcurveto
            0 9 0 11 10 vhcurveto
            101 94 rlineto
            10 10 15 13 22 vvcurveto
            endchar
          </CharString>
          <CharString index="36">
            688 251 rmoveto
            1 3 2 9 68 callgsubr
            -1 -2 -23 -8 vhcurveto
            -104 -34 -42 -104 -179 hhcurveto
            -118 hlineto
            514 588 rlineto
            8 9 5 12 12 vvcurveto
            14 -12 0 -15 vhcurveto
            -444 hlineto
            -20 -8 0 -20 -6 hvcurveto
            -55 -185 rlineto
            -1 -2 -4 -16 0 vvcurveto
            -18 18 0 10 22 1 2 23 8 vhcurveto
            116 39 69 53 125 hhcurveto
            111 hlineto
            -514 -589 rlineto
            -7 -8 -9 -10 -18 vvcurveto
            -14 11 0 17 vhcurveto
            459 hlineto
            21 6 0 21 7 hvcurveto
            return
          </CharString>
          <CharString index="37">
            1027 256 rmoveto
            40 callgsubr
            0 -1 -26 -12 vhcurveto
            -117 -50 -40 -83 -154 hhcurveto
            -80 hlineto
            -9 -7 0 1 -7 hvcurveto
            64 258 rlineto
            59 hlineto
            55 15 -10 -30 -15 -6 -24 -2 -7 hvcurveto
            -2 -9 0 -1 93 callgsubr
            23 6 vhcurveto
            56 224 rlineto
            1 5 2 6 5 vvcurveto
            40 callgsubr
            -2 -3 -20 -6 vhcurveto
            -72 -19 -21 -22 -76 hhcurveto
            -50 hlineto
            67 270 rlineto
            15 4 1 1 24 hhcurveto
            45 hlineto
            108 56 -2 -99 -24 -1 -5 -2 -19 hvcurveto
            -1 -5 -2 -14 -5 vvcurveto
            -21 15 0 13 23 3 4 23 3 vhcurveto
            21 182 rlineto
            32 4 -13 0 -22 hhcurveto
            -531 hlineto
            -17 -18 -60 callgsubr
            40 hlineto
            -346 -554 -13 -20 -10 -17 -76 -1 rlinecurve
            -9 -19 0 -29 -8 6 -10 13 hvcurveto
            32 34 3 32 38 40 -3 38 hhcurveto
            9 18 0 29 18 -17 0 -9 -9 -29 2 8 -21 hvcurveto
            155 249 rlineto
            150 hlineto
            -60 -242 -3 -14 -1 0 -14 -2 rlinecurve
            -1 -8 -2 0 -22 hhcurveto
            -8 hlineto
            -17 -18 21 callgsubr
            462 -61 callgsubr
            -462 97 rmoveto
            -133 hlineto
            177 284 rlineto
            8 11 0 -1 7 hvcurveto
            return
          </CharString>
          <CharString index="38">
            hhcurveto
            -10 -19 -86 callsubr
            return
          </CharString>
          <CharString index="39">
            rmoveto
            3 7 -2 7 -4 5 -65 114 rcurveline
            19 -10 -7 12 -22 hhcurveto
            -25 -32 -20 -28 -14 hvcurveto
            -16 -31 18 -15 10 -8 108 -89 rcurveline
            -3 4 3 -3 6 hhcurveto
            16 26 27 6 3 hvcurveto
            endchar
          </CharString>
          <CharString index="40">
            849 446 rmoveto
            56 224 rlineto
            4 15 0 4 0 vvcurveto
            14 -12 0 -15 vhcurveto
            -86 -68 rlineto
            68 -63 -78 0 -25 hhcurveto
            -294 -173 -246 -212 -192 147 -70 148 73 80 23 62 77 hvcurveto
            -49 callgsubr
            return
          </CharString>
          <CharString index="41">
            277 -52 rmoveto
            94 378 rlineto
            4 16 0 7 6 vvcurveto
            63 -57 34 -60 -115 -66 -139 -17 -14 13 0 15 22 1 1 16 8 vhcurveto
            99 42 49 18 26 hhcurveto
            9 12 -1 -30 -19 -2 -8 -4 -16 hvcurveto
            -97 -389 rlineto
            -30 -8 -30 -89 -60 hhcurveto
            -6 -9 2 0 hvcurveto
            21 13 13 27 20 vvcurveto
            25 -19 21 -31 -39 -32 -34 -38 -45 44 -27 58 87 95 62 88 22 vhcurveto
            return
          </CharString>
          <CharString index="42">
            -46 callsubr
            15 return
          </CharString>
          <CharString index="43">
            1180 668 rmoveto
            -40 callsubr
            -184 hlineto
            -24 -8 -1 -22 -14 hvcurveto
            -346 -524 -83 519 rlineto
            26 -4 -6 2 -27 hhcurveto
            -193 hlineto
            -17 -18 -86 callsubr
            -140 -560 -4 -15 -1 -4 -27 -6 rlinecurve
            -2 -11 -21 -3 -25 hhcurveto
            -16 -18 0 -29 -4 3 -14 17 hvcurveto
            37 40 3 38 39 42 -3 38 hhcurveto
            8 19 0 29 117 callgsubr
            -9 -36 0 10 -24 hvcurveto
            137 550 rlineto
            1 hlineto
            92 -578 rlineto
            -21 3 5 -8 22 hhcurveto
            25 6 10 15 10 hvcurveto
            393 597 1 -1 -138 -556 -86 callgsubr
            -13 11 -5 11 hvcurveto
            46 49 3 47 48 50 -3 48 9 callsubr
            return
          </CharString>
          <CharString index="44">
            hlineto
            -17 -18 3 callsubr
            return
          </CharString>
          <CharString index="45">
            536 86 rmoveto
            8 -20 24 -10 -3 -4 0 -7 -7 vhcurveto
            -83 -74 -101 0 return
          </CharString>
          <CharString index="46">
            4 15 1 1 19 2 rlinecurve
            62 1 rlineto
            17 17 0 29 return
          </CharString>
          <CharString index="47">
            566 148 rmoveto
            121 callgsubr
            -26 -7 vhcurveto
            -59 -15 -20 -48 -36 hhcurveto
            -9 -13 2 32 0 0 20 8 32 hvcurveto
            2 10 2 10 10 vvcurveto
            76 -86 23 -72 8 vhcurveto
            36 26 34 37 2 1 rrcurveto
            76 68 43 25 38 hhcurveto
            3 12 0 -12 3 hvcurveto
            -41 -5 -26 -34 -33 47 callsubr
            29 44 21 66 30 -14 49 -57 -56 -49 -39 -68 -64 vhcurveto
            -40 -42 -17 -14 -24 -15 97 386 rcurveline
            -3 callsubr
            21 27 13 28 11 vhcurveto
            45 181 rlineto
            30 -5 62 -16 -53 vvcurveto
            -5 0 -5 -3 -11 vhcurveto
            -2 -9 -1 -5 -11 vvcurveto
            -60 53 -42 65 101 35 148 8 vhcurveto
            return
          </CharString>
          <CharString index="48">
            885 446 rmoveto
            177 -126 63 -124 vhcurveto
            -376 -2 callsubr
            368 hlineto
            269 152 244 202 hvcurveto
            -128 37 rmoveto
            -54 -38 -180 -46 -75 vhcurveto
            -83 -52 -83 -44 -100 hhcurveto
            -104 hlineto
            -9 -7 0 1 -7 hvcurveto
            143 575 rlineto
            15 4 1 1 31 hhcurveto
            95 hlineto
            71 101 -24 -132 hvcurveto
            return
          </CharString>
          <CharString index="49">
            rmoveto
            112 -52 70 -110 -35 -84 -2 -79 -80 vhcurveto
            -85 -85 0 -118 -4 vvcurveto
            -42 23 -110 142 39 38 12 53 43 vhcurveto
            -34 -131 -28 -37 -14 -20 rrcurveto
            -29 -22 -50 -43 -59 hhcurveto
            -11 -34 1 22 -17 hvcurveto
            38 10 18 32 27 vvcurveto
            23 -14 23 -36 -29 -43 -21 -65 -72 63 -23 63 82 96 41 92 72 vhcurveto
            106 137 14 190 36 vvcurveto
            -104 73 rmoveto
            -21 -31 -274 -137 -52 -9 35 22 38 34 134 17 45 vhcurveto
            55 20 40 36 59 hhcurveto
            50 9 -48 -22 hvcurveto
            endchar
          </CharString>
          <CharString index="50">
            rlineto
            28 -32 -36 4 -23 hhcurveto
            -168 -100 -166 43 callgsubr
            84 -41 76 61 47 32 19 24 hvcurveto
            -35 19 45 -16 39 hhcurveto
            47 25 34 20 13 hvcurveto
            26 42 13 56 4 vvcurveto
            -239 -48 rmoveto
            -57 -43 -42 -15 -31 hhcurveto
            -23 -34 14 57 54 35 123 11 28 hvcurveto
            97 34 55 15 26 hhcurveto
            35 28 -22 -40 11 hvcurveto
            -59 -236 -2 -7 0 -3 -1 -8 rlinecurve
            return
          </CharString>
          <CharString index="51">
            -1 callsubr
            -55 -31 31 57 39 28 122 27 52 hvcurveto
            72 39 62 15 30 hhcurveto
            11 27 -1 -20 19 hvcurveto
            -50 -18 -1 -46 -3 vvcurveto
            -15 8 -31 42 42 30 35 43 49 -44 43 -83 -190 -106 -162 -130 -82 47 -86 147 26 62 2 20 54 vhcurveto
            54 21 39 39 12 vvcurveto
            return
          </CharString>
          <CharString index="52">
            589 287 rmoveto
            57 -18 43 -39 31 vhcurveto
            82 103 rlineto
            11 14 0 1 6 vvcurveto
            13 -11 5 -7 -8 -3 -4 -11 -9 vhcurveto
            -86 -108 rlineto
            10 -21 -33 9 -41 hhcurveto
            -189 -104 -165 -134 -40 8 -50 49 -42 hvcurveto
            -75 -92 rlineto
            -18 -22 0 -2 -6 vvcurveto
            -10 9 -8 9 7 1 1 20 18 vhcurveto
            13 15 0 2 67 84 rrcurveto
            -10 21 33 -9 41 hhcurveto
            189 104 165 134 hvcurveto
            -122 109 rmoveto
            -252 -314 rlineto
            -2 7 -3 14 16 vvcurveto
            37 23 107 27 56 vhcurveto
            66 32 59 35 53 hhcurveto
            9 31 0 -24 23 hvcurveto
            -25 -271 rmoveto
            -66 -32 -59 -35 -53 hhcurveto
            -9 -32 0 25 -22 hvcurveto
            252 313 rlineto
            2 -7 3 -14 -16 vvcurveto
            -37 -23 -107 -27 -56 vhcurveto
            return
          </CharString>
          <CharString index="53">
            rmoveto
            77 -58 50 -75 -124 -76 -121 -40 -10 8 -8 10 13 3 11 5 2 vhcurveto
            84 28 90 20 40 hhcurveto
            49 53 -24 -53 hvcurveto
            -14 -3 -4 -7 vvcurveto
            -9 8 -9 10 19 3 25 27 vhcurveto
            endchar
          </CharString>
          <CharString index="54">
            5 6 -1 15 -8 7 -7 6 -13 3 -9 -6 rrcurveto
            -8 -9 -6 -11 -23 hhcurveto
            return
          </CharString>
          <CharString index="55">
            rmoveto
            -74 callsubr
            return
          </CharString>
          <CharString index="56">
            rmoveto
            88 -69 46 -101 -143 -102 -99 -79 -44 31 -27 40 50 45 44 46 22 -17 37 -15 -5 -5 -3 -4 -3 vhcurveto
            -5 -3 -3 -5 -5 vvcurveto
            -5 4 -5 2 -2 vhcurveto
            5 -8 5 -10 -11 vvcurveto
            -29 -31 -23 -24 -15 -4 15 13 72 89 77 97 36 39 -12 -54 -25 -17 -86 -25 -36 vhcurveto
            -54 -36 -56 0 -29 hhcurveto
            -28 hlineto
            -22 -1 -1 -5 -3 hvcurveto
            -4 -4 -4 -22 0 vvcurveto
            -15 13 0 19 vhcurveto
            32 hlineto
            return
          </CharString>
          <CharString index="57">
            1 callsubr
            -64 60 -33 56 47 25 34 20 13 vhcurveto
            26 42 13 56 4 vvcurveto
            return
          </CharString>
          <CharString index="58">
            rmoveto
            -146 185 -207 -185 15 -22 174 99 141 -99 rlineto
            return
          </CharString>
          <CharString index="59">
            -69 callgsubr
            endchar
          </CharString>
          <CharString index="60">
            1141 -17 36 -19 80 callsubr
            -19 36 hstemhm
            180 136 hintmask 01110000
            1145 256 rmoveto
            40 callgsubr
            0 -1 -26 -12 vhcurveto
            -121 -52 -41 -79 -159 hhcurveto
            -95 hlineto
            -9 -7 0 1 -7 hvcurveto
            71 285 rlineto
            85 hlineto
            72 8 -16 -29 -14 -4 -18 -2 -12 hvcurveto
            -1 -4 -1 -6 57 callgsubr
            -24 -1 -3 -22 -6 vhcurveto
            -74 -20 -28 -18 -79 hhcurveto
            -76 hlineto
            60 243 rlineto
            15 4 1 1 27 hhcurveto
            50 hlineto
            120 58 0 -105 hvcurveto
            -34 -5 -25 -9 vvcurveto
            -21 15 0 13 23 3 4 23 3 vhcurveto
            21 182 rlineto
            32 4 -13 0 -22 hhcurveto
            -347 hlineto
            -22 -26 3 5 -35 hvcurveto
            hintmask 10001100
            8 -53 -21 1 -18 hhcurveto
            -293 -163 -263 -206 -191 144 -60 132 28 23 3 6 43 hvcurveto
            hintmask 01000000
            6 42 26 2 22 hhcurveto
            372 -61 callgsubr
            -521 -80 rmoveto
            hintmask 10001100
            -143 -36 -51 -14 -67 hhcurveto
            -94 -60 68 128 178 110 274 205 79 10 -30 -38 -26 -8 -44 -5 -19 hvcurveto
            endchar
          </CharString>
          <CharString index="61">
            -18 17 0 return
          </CharString>
          <CharString index="62">
            -20 hstemhm
            hintmask 11100000
            -107 callsubr
            532 -61 callgsubr
            hintmask 00011000
            35 callsubr
            return
          </CharString>
          <CharString index="63">
            36 388 36 return
          </CharString>
          <CharString index="64">
            272 rmoveto
            50 -28 102 -136 -19 -50 0 -64 -51 vhcurveto
            29 114 25 40 22 29 rrcurveto
            39 29 57 40 58 hhcurveto
            21 22 -6 -20 10 hvcurveto
            -40 -8 -21 -33 -29 vvcurveto
            -23 14 -23 36 35 38 27 62 36 -20 56 -94 -70 -107 -29 -108 -87 vhcurveto
            -101 -126 -17 -183 -46 vvcurveto
            -111 49 -75 117 return
          </CharString>
          <CharString index="65">
            hhcurveto
            -59 callgsubr
            return
          </CharString>
          <CharString index="66">
            hhcurveto
            43 0 -38 -19 -60 -46 -123 -18 -45 hvcurveto
            -9 -25 -3 -10 -26 callgsubr
            return
          </CharString>
          <CharString index="67">
            -25 callgsubr
            vhcurveto
            return
          </CharString>
          <CharString index="68">
            827 0 99 568 36 hstem
            119 58 21 137 385 138 vstem
            793 178 rmoveto
            18 -17 0 -11 -20 -1 -1 -31 -15 vhcurveto
            -6 -13 -13 -27 -8 -13 rrcurveto
            -12 -9 -29 0 -22 hhcurveto
            -59 hlineto
            8 13 22 33 69 69 rrcurveto
            83 84 93 94 115 vvcurveto
            98 -70 98 -204 -255 -131 -158 -141 -61 21 -47 28 -58 vhcurveto
            32 -68 12 -29 6 -42 rrcurveto
            -71 hlineto
            -12 -15 0 3 -12 hvcurveto
            -9 1 -1 1 31 vvcurveto
            1 43 rlineto
            18 -18 0 -9 -25 -3 -5 -24 -1 vhcurveto
            -6 -136 rlineto
            -30 -1 8 -1 25 hhcurveto
            149 hlineto
            18 7 0 11 5 hvcurveto
            1 2 14 40 92 vvcurveto
            56 0 2 -5 69 vhcurveto
            -2 25 0 2 33 vvcurveto
            225 115 110 134 52 84 -17 -107 -102 -63 -111 -41 -73 vhcurveto
            -23 -40 -85 -151 -48 97 callsubr
            149 hlineto
            23 2 0 17 8 hvcurveto
            9 20 62 133 8 vvcurveto
            endchar
          </CharString>
          <CharString index="69">
            rmoveto
            17 -14 14 -17 -13 -8 -8 -5 -5 vhcurveto
            -58 -53 -74 -33 -78 hhcurveto
            -66 -65 24 46 -46 hvcurveto
            20 -21 -19 14 -37 hhcurveto
            -128 -84 -148 -122 -117 84 -16 35 125 70 171 108 7 0 11 -1 7 hvcurveto
            -6 10 56 -34 86 hhcurveto
            24 34 2 13 41 hvcurveto
            1 hlineto
            -595 -623 rlineto
            -14 -14 -2 -3 -11 vvcurveto
            -22 17 -9 13 13 5 6 8 8 vhcurveto
            705 735 rlineto
            6 6 7 10 10 vvcurveto
            return
          </CharString>
          <CharString index="70">
            32 callsubr
            38 110 146 -20 hstem
            59 121 vstem
            480 557 rmoveto
            18 -11 25 -35 -20 -14 -9 -1 -2 vhcurveto
            20 65 45 41 28 20 rrcurveto
            12 9 1 1 5 vvcurveto
            6 -6 9 -8 -17 -110 -98 -98 -35 17 -25 32 41 27 37 30 vhcurveto
            -29 -621 -13 callsubr
          </CharString>
          <CharString index="71">
            -102 callsubr
            -24 90 -67 callgsubr
          </CharString>
          <CharString index="72">
            391 -33 callsubr
            return
          </CharString>
          <CharString index="73">
            827 -12 36 -32 11 callgsubr
            -32 36 hstemhm
            106 106 550 65 hintmask 01110010
            803 87 rmoveto
            9 -21 23 -10 -7 -3 -3 -7 -5 vhcurveto
            -74 -66 -72 -7 -24 hhcurveto
            -87 0 81 17 22 1 17 13 53 hvcurveto
            44 hlineto
            61 200 0 138 62 -59 34 -70 -58 -71 -17 -48 -57 hvcurveto
            hintmask 10001100
            52 -33 -53 17 -49 hhcurveto
            -171 -100 -169 -137 -126 89 -36 72 58 59 22 52 55 hvcurveto
            hintmask 01110010
            -33 20 49 -37 85 hhcurveto
            142 68 82 13 hvcurveto
            -41 270 rmoveto
            -103 -159 0 -72 vhcurveto
            19 70 23 29 17 18 rrcurveto
            22 22 41 23 43 hhcurveto
            47 19 -31 -28 hvcurveto
            -375 -229 rmoveto
            hintmask 10001100
            -90 -37 -58 -14 -22 hhcurveto
            -38 -20 30 42 53 38 130 7 23 hvcurveto
            90 32 47 28 39 hhcurveto
            32 30 -21 -59 -48 -31 -119 -19 -45 hvcurveto
            endchar
          </CharString>
          <CharString index="74">
            613 -79 callgsubr
            return
          </CharString>
          <CharString index="75">
            1 26 2 rlinecurve
            1 10 24 1 12 hhcurveto
            36 hlineto
            18 16 0 29 16 -15 2 -8 hvcurveto
            return
          </CharString>
          <CharString index="76">
            -68 callgsubr
            endchar
          </CharString>
          <CharString index="77">
            rmoveto
            -68 callgsubr
            return
          </CharString>
          <CharString index="78">
            hstemhm
            hintmask 11100000
            381 4 callsubr
            9 23 17 21 22 15 86 -2 rcurveline
            38 callgsubr
            3 -1 15 -21 hvcurveto
            hintmask 00100000
            -51 -53 -3 -52 hhcurveto
            hintmask 00010000
            -53 109 callgsubr
            -11 -18 -60 callgsubr
            24 hlineto
            hintmask 11100000
            5 35 -2 11 hhcurveto
            -142 113 callgsubr
            -20 -2 rlinecurve
            -1 -11 -19 0 -11 hhcurveto
            -24 hlineto
            -18 -17 0 -29 -13 10 -5 12 34 callsubr
            hhcurveto
            7 hlineto
            -38 -29 -36 -47 -41 -28 callsubr
            return
          </CharString>
          <CharString index="79">
            vvcurveto
            -45 35 -45 70 44 35 24 30 28 vhcurveto
            return
          </CharString>
          <CharString index="80">
            817 0 47 292 36 264 47 hstem
            699 132 vstem
            778 225 rmoveto
            85 -70 41 -80 7 vhcurveto
            137 26 66 87 79 vvcurveto
            95 -87 41 -105 vhcurveto
            -380 -2 callsubr
            400 hlineto
            190 92 131 94 hvcurveto
            -79 332 rmoveto
            -76 -54 -106 -119 vhcurveto
            -139 hlineto
            108 callsubr
            15 4 1 1 31 hhcurveto
            131 hlineto
            20 63 0 -82 hvcurveto
            -56 -312 rmoveto
            -79 -47 -119 -126 vhcurveto
            -141 hlineto
            -9 -7 0 1 -7 hvcurveto
            72 291 rlineto
            174 hlineto
            23 68 0 -94 hvcurveto
            endchar
          </CharString>
          <CharString index="81">
            400 -202 36 563 47 222 36 hstem
            -19 121 315 121 vstem
            538 623 rmoveto
            47 -47 32 -66 -124 -29 -109 -51 -9 vhcurveto
            -18 -98 rlineto
            17 callsubr
            -70 -381 -10 -53 -2 -11 -13 -50 rlinecurve
            -15 -3 -14 -53 -33 hhcurveto
            0 -16 0 -14 8 vhcurveto
            33 17 8 31 16 93 callsubr
            -49 50 -30 59 37 83 21 148 47 vhcurveto
            13 43 5 19 8 44 60 324 rcurveline
            110 122 callsubr
            18 -18 0 -14 hvcurveto
            -104 hlineto
            8 47 24 136 7 14 rrcurveto
            13 5 15 12 14 hhcurveto
            4 14 -1 -7 14 hvcurveto
            -22 -12 -18 -24 -28 vvcurveto
            -27 20 -19 30 35 36 30 45 vhcurveto
            endchar
          </CharString>
          <CharString index="82">
            787 0 47 255 41 296 47 hstem
            689 136 vstem
            825 535 rmoveto
            121 -115 30 -88 vhcurveto
            -363 hlineto
            -17 -18 10 callgsubr
            63 253 rlineto
            155 hlineto
            165 125 108 125 hvcurveto
            -136 31 rmoveto
            -18 -16 -103 -34 -48 vhcurveto
            -16 -10 -36 -38 -94 hhcurveto
            -115 hlineto
            70 280 rlineto
            15 4 1 1 27 hhcurveto
            46 hlineto
            81 76 0 -73 hvcurveto
            endchar
          </CharString>
          <CharString index="83">
            117 rmoveto
            12 -1 -10 1 -10 hhcurveto
            -19 hlineto
            -20 3 -26 -8 -22 hvcurveto
            -10 -20 -25 -2 -24 hhcurveto
            -80 -9 7 -9 -138 hvcurveto
            100 68 122 13 93 74 rrcurveto
            32 23 21 32 41 vvcurveto
            103 -111 31 -91 -99 -116 -81 -97 -46 36 -24 36 48 48 49 50 1 vhcurveto
            20 -5 50 -24 -9 -12 -10 -9 vhcurveto
            -14 14 -16 -16 vvcurveto
            -32 -30 -36 -27 -16 -4 15 14 75 79 72 77 38 53 -12 -52 -64 -30 -48 -55 -31 vhcurveto
            -97 -56 -129 -20 -56 -121 rrcurveto
            -5 -9 -6 -17 -8 vvcurveto
            -11 10 -4 11 42 -9 14 18 9 vhcurveto
            17 9 14 19 21 78 42 -67 96 hhcurveto
            71 72 48 67 27 hvcurveto
            2 7 4 8 8 vvcurveto
            endchar
          </CharString>
          <CharString index="84">
            10 rmoveto
            5 -11 22 -13 -4 -1 -1 -2 -7 vhcurveto
            -9 -28 -26 -1 -13 hhcurveto
            36 147 -27 callgsubr
            6 vvcurveto
            28 -21 14 -24 -49 -11 -43 -29 -7 vhcurveto
            -30 -119 rlineto
            20 -59 -30 10 -47 hhcurveto
            -20 hlineto
            297 248 48 288 7 vvcurveto
            39 -35 4 -9 -50 -11 -44 -18 -5 vhcurveto
            -38 -146 -52 -112 -51 -78 -89 -136 -92 -61 -8 -4 rrcurveto
            -7 -3 -31 -14 -18 vvcurveto
            -6 12 -21 12 5 3 2 10 14 vhcurveto
            9 14 11 7 68 hhcurveto
            50 17 -5 -24 71 hvcurveto
            -18 -73 rlineto
            -6 -26 -12 -45 -7 vvcurveto
            -22 16 -20 29 49 12 44 16 4 vhcurveto
            8 32 14 54 5 25 rrcurveto
            35 81 11 22 hvcurveto
            endchar
          </CharString>
          <CharString index="85">
            866 0 47 145 47 472 return
          </CharString>
          <CharString index="86">
            -249 -18 callgsubr
            return
          </CharString>
          <CharString index="87">
            1 1 1 2 2 vvcurveto
            8 -7 6 -7 vhcurveto
            -8 hlineto
            -5 -5 -2 -5 -2 hvcurveto
            -50 -82 -66 -75 -78 -61 rrcurveto
            -3 -2 -2 -4 -5 vvcurveto
            -3 1 -3 2 -2 vhcurveto
            46 -61 28 -73 9 -81 rrcurveto
            -7 6 -6 7 vhcurveto
            8 hlineto
            8 6 6 7 hvcurveto
            6 76 -5 74 -15 70 50 70 42 74 32 76 rrcurveto
            return
          </CharString>
          <CharString index="88">
            75 callsubr
            -148 88 -77 121 -17 vhcurveto
            -30 -29 -24 -38 -34 -28 callsubr
            -53 callsubr
            -44 -21 41 40 16 hvcurveto
            5 15 9 13 12 12 rrcurveto
            277 5 155 256 209 vvcurveto
            -132 48 rmoveto
            -70 -41 -191 -63 -92 vhcurveto
            -94 -64 -73 -29 -58 hhcurveto
            -52 -34 25 22 -18 hvcurveto
            -30 39 -3 53 29 vvcurveto
            72 37 175 54 90 vhcurveto
            107 65 86 26 54 hhcurveto
            122 18 -106 -56 hvcurveto
            return
          </CharString>
          <CharString index="89">
            151 -81 callsubr
            return
          </CharString>
          <CharString index="90">
            rmoveto
            96 -193 1 -44 -7 -8 0 -1 -7 vhcurveto
            -68 -8 -68 -2 -60 -40 rrcurveto
            -19 -13 -24 -23 -24 vvcurveto
            -11 6 -4 15 vhcurveto
            11 hlineto
            23 -5 13 18 18 hvcurveto
            41 44 104 3 54 hhcurveto
            46 119 -3 -46 6 hvcurveto
            -10 vlineto
            -13 10 -3 10 vhcurveto
            12 hlineto
            25 0 12 17 hvcurveto
            endchar
          </CharString>
          <CharString index="91">
            226 rmoveto
            81 -45 33 -39 27 vhcurveto
            43 23 92 50 104 vvcurveto
            82 -73 35 -86 -160 -78 -125 -92 -69 42 -35 15 -9 vhcurveto
            -45 -22 -124 -61 -130 vvcurveto
            -84 70 -51 115 return
          </CharString>
          <CharString index="92">
            vvcurveto
            23 -17 19 -28 return
          </CharString>
          <CharString index="93">
            -16 callsubr
            vhcurveto
            hintmask 01011000
            181 92 138 105 hvcurveto
            -24 320 rmoveto
            -48 -28 -61 -70 -42 vhcurveto
            -75 53 rlineto
            -45 33 -13 9 29 vvcurveto
            39 39 64 102 vhcurveto
            hintmask 10100100
            52 38 -22 -54 hvcurveto
            -78 -388 rmoveto
            -59 -56 -73 -109 -69 -35 34 56 50 30 85 91 51 vhcurveto
            30 -20 46 -33 10 -8 rrcurveto
            hintmask 00001000
            45 -32 17 -12 -39 vvcurveto
            endchar
          </CharString>
          <CharString index="94">
            -83 callgsubr
            endchar
          </CharString>
          <CharString index="95">
            532 -8 59 callsubr
            190 36 hstem
            153 65 249 108 vstem
            575 277 rmoveto
            108 -67 67 -125 -31 -59 -3 -19 -51 vhcurveto
            -54 -21 -39 -39 -12 vvcurveto
            -8 20 -24 10 3 4 0 7 7 vhcurveto
            83 74 101 0 14 hhcurveto
            56 29 -33 -59 -25 -7 -39 -9 -34 hvcurveto
            -40 hlineto
            -60 -198 0 -138 -60 56 -36 74 173 119 131 154 hvcurveto
            -133 -87 rmoveto
            -14 -50 -10 -30 -29 -32 rrcurveto
            -34 -28 -44 -16 -34 hhcurveto
            -42 -23 27 32 103 163 0 61 hvcurveto
            endchar
          </CharString>
          <CharString index="96">
            -16 callsubr
            181 92 138 105 vhcurveto
            -24 320 rmoveto
            -48 -28 -61 -70 -42 vhcurveto
            -75 53 rlineto
            -45 33 -13 9 29 vvcurveto
            39 39 64 102 52 38 -22 -54 vhcurveto
            -78 -388 rmoveto
            -59 -56 -73 -109 -69 -35 34 56 50 30 85 91 51 vhcurveto
            30 -20 46 -33 10 -8 rrcurveto
            45 -32 17 -12 -39 vvcurveto
            endchar
          </CharString>
          <CharString index="97">
            -86 callsubr
            -143 -572 -86 callgsubr
            return
          </CharString>
          <CharString index="98">
            hstem
            700 7 rmoveto
            21 17 -12 15 -4 6 -155 206 rcurveline
            253 203 10 7 28 23 -23 16 rlinecurve
            -23 16 -27 -22 -11 -8 -239 -192 rcurveline
            -144 192 -7 10 -1 1 -3 3 rlinecurve
            -16 11 -23 -7 -11 -9 -21 -17 11 -16 5 -6 154 -206 rcurveline
            -253 -202 -12 -10 -26 -21 23 -16 rlinecurve
            23 -16 25 20 13 10 239 192 rcurveline
            147 -195 3 -6 3 -3 2 -1 rlinecurve
            13 -9 23 2 15 12 rrcurveto
            return
          </CharString>
          <CharString index="99">
            -20 hstemhm
            hintmask 10000000
            -4 callgsubr
            hintmask 01100000
            return
          </CharString>
          <CharString index="100">
            29 rmoveto
            18 -18 0 -14 vhcurveto
            -33 hlineto
            -31 -1 0 3 -27 hvcurveto
            145 580 rlineto
            2 6 1 4 3 vvcurveto
            3 -2 15 -19 -10 -4 -5 -6 -6 vhcurveto
            -77 -90 -75 -23 -67 -5 rrcurveto
            -8 -1 -17 -1 -26 vvcurveto
            -7 2 -12 21 26 48 9 20 43 vhcurveto
            -112 -447 -4 -15 -1 -1 -22 -2 rlinecurve
            -2 -14 -15 0 -15 hhcurveto
            -31 hlineto
            -18 -17 0 -29 -5 2 -13 20 63 callgsubr
            52 54 55 -3 53 hhcurveto
            11 19 0 29 hvcurveto
            endchar
          </CharString>
          <CharString index="101">
            28 rmoveto
            13 -8 7 -18 vhcurveto
            -74 hlineto
            -7 -16 -1 15 3 hvcurveto
            89 366 rlineto
            1 6 3 7 7 vvcurveto
            12 -9 7 -9 -17 -17 -14 -3 -12 vhcurveto
            -20 -49 -54 -7 -53 hhcurveto
            -23 hlineto
            -13 -2 -6 -12 -1 -12 rrcurveto
            -24 19 3 14 40 28 2 6 34 vhcurveto
            -77 -319 rlineto
            -17 -4 -28 0 -22 hhcurveto
            -56 hlineto
            -14 -13 -11 -16 -12 7 -9 11 hvcurveto
            72 36 2 51 hhcurveto
            174 -2 rlineto
            13 5 17 11 hvcurveto
            endchar
          </CharString>
          <CharString index="102">
            -397 -18 callsubr
            return
          </CharString>
          <CharString index="103">
            rlineto
            42 54 0 -18 -4 hvcurveto
            -19 -5 -83 0 -61 hhcurveto
            -15 -16 -13 -15 -4 hvcurveto
            -15 -3 9 52 callsubr
            return
          </CharString>
          <CharString index="104">
            -83 callsubr
            -144 -580 rlineto
            -4 -15 0 -2 -5 vvcurveto
            -25 19 -18 27 return
          </CharString>
          <CharString index="105">
            hlineto
            -17 -18 -10 callsubr
            -65 callsubr
            hvcurveto
            return
          </CharString>
          <CharString index="106">
            -62 callsubr
            -15 hhcurveto
            return
          </CharString>
          <CharString index="107">
            35 -25 24 -36 -41 -48 -38 -50 -41 31 -18 29 45 45 41 47 vhcurveto
            return
          </CharString>
          <CharString index="108">
            rlineto
            -4 -16 0 -7 -6 vvcurveto
            return
          </CharString>
          <CharString index="109">
            -51 callgsubr
            endchar
          </CharString>
          <CharString index="110">
            -10 callsubr
            -13 11 -5 11 hvcurveto
            return
          </CharString>
          <CharString index="111">
            -6 callgsubr
            -44 -21 41 40 16 hvcurveto
            return
          </CharString>
          <CharString index="112">
            -261 -91 callgsubr
          </CharString>
          <CharString index="113">
            hhcurveto
            -8 -20 0 -29 -18 return
          </CharString>
          <CharString index="114">
            rlineto
            -9 -36 0 -26 -10 vvcurveto
            -121 84 -37 72 171 98 168 132 vhcurveto
            -153 -152 rmoveto
            -103 -36 -59 -9 -19 hhcurveto
            -62 0 65 14 34 6 26 16 61 hvcurveto
            8 36 7 25 7 31 7 26 0 2 10 11 rrcurveto
            32 26 40 25 38 hhcurveto
            23 34 -14 -57 -54 -35 -123 -11 -28 hvcurveto
            endchar
          </CharString>
          <CharString index="115">
            28 callgsubr
            51 53 3 51 58 60 -3 57 hhcurveto
            12 49 callgsubr
            return
          </CharString>
          <CharString index="116">
            hhcurveto
            9 19 0 29 117 callgsubr
            hvcurveto
            -22 hlineto
            -10 -33 2 -6 hhcurveto
            142 571 -61 callsubr
            hvcurveto
            return
          </CharString>
          <CharString index="117">
            855 -17 42 638 40 return
          </CharString>
          <CharString index="118">
            859 0 47 278 36 278 47 return
          </CharString>
          <CharString index="119">
            hstemhm
            -15 callgsubr
            return
          </CharString>
          <CharString index="120">
            356 547 147 hstem
            258 157 vstem
            415 27 callgsubr
            endchar
          </CharString>
          <CharString index="121">
            hlineto
            -70 -279 1 callsubr
            return
          </CharString>
          <CharString index="122">
            -15 -58 -8 -82 -77 63 -56 98 169 109 103 120 59 -27 41 -45 22 hvcurveto
            return
          </CharString>
          <CharString index="123">
            27 -23 19 -26 vhcurveto
            hintmask 11000000
            -3 -3 -1 -3 hhcurveto
            -26 -4 -13 -20 -13 -21 -19 -33 -19 -34 -21 -32 rrcurveto
            -4 -7 -7 -8 -8 vvcurveto
            -13 21 -15 12 vhcurveto
            2 hlineto
            11 16 19 10 12 hvcurveto
            67 61 rlineto
            17 16 22 16 26 vvcurveto
            return
          </CharString>
          <CharString index="124">
            -92 hlineto
            -17 -18 -60 callgsubr
            86 hlineto
            return
          </CharString>
          <CharString index="125">
            hhcurveto
            -8 -20 -60 callgsubr
            return
          </CharString>
          <CharString index="126">
            hlineto
            -70 -279 -50 callsubr
            return
          </CharString>
          <CharString index="127">
            -85 -57 -165 -81 -20 -15 18 34 0 29 279 96 43 5 -56 -25 vhcurveto
            return
          </CharString>
          <CharString index="128">
            0 42 callsubr
            return
          </CharString>
          <CharString index="129">
            253 573 -102 callsubr
            return
          </CharString>
          <CharString index="130">
            -3 -13 -1 -1 -5 -1 rlinecurve
            0 -23 -4 -44 vhcurveto
            -36 hlineto
            -17 -18 0 -29 -18 19 0 4 hvcurveto
            56 58 3 57 58 60 -3 57 hhcurveto
            11 49 callgsubr
            return
          </CharString>
          <CharString index="131">
            34 -5 35 -4 34 vhcurveto
            37 -3 -9 27 -33 hhcurveto
            -3 -4 0 -1 -3 hvcurveto
            -31 -4 -26 -27 -29 vvcurveto
            -17 8 -10 7 -13 vhcurveto
            26 -43 24 -39 rlineto
            -7 4 6 -6 8 hhcurveto
            3 hlineto
            12 23 14 15 hvcurveto
            return
          </CharString>
          <CharString index="132">
            -14 -4 -7 -30 30 hhcurveto
            31 7 29 15 4 hvcurveto
            return
          </CharString>
          <CharString index="133">
            rmoveto
            35 -17 25 -32 -41 -27 -37 -30 vhcurveto
            hintmask 01100000
            -18 11 -25 35 20 14 9 1 2 vhcurveto
            -20 -65 -45 -41 -28 -20 rrcurveto
            -12 -9 -1 -1 -5 vvcurveto
            -6 6 -9 8 17 110 98 98 vhcurveto
            endchar
          </CharString>
          <CharString index="134">
            61 -30 callsubr
            return
          </CharString>
          <CharString index="135">
            hstemhm
            0 callgsubr
            return
          </CharString>
          <CharString index="136">
            47 590 46 -44 47 return
          </CharString>
          <CharString index="137">
            17 0 29 hvcurveto
            return
          </CharString>
          <CharString index="138">
            1 10 24 1 12 hhcurveto
            36 hlineto
            18 16 0 29 16 -15 2 -8 hvcurveto
            -56 -58 -3 -56 -58 -60 3 -57 hhcurveto
            -11 -19 -60 callgsubr
            36 hlineto
            35 2 0 -3 24 hvcurveto
            return
          </CharString>
          <CharString index="139">
            532 -202 36 166 36 380 36 return
          </CharString>
          <CharString index="140">
            356 -45 callgsubr
            return
          </CharString>
          <CharString index="141">
            63 callgsubr
            51 return
          </CharString>
          <CharString index="142">
            -17 510 -82 callsubr
            return
          </CharString>
          <CharString index="143">
            64 281 377 281 return
          </CharString>
          <CharString index="144">
            86 124 callsubr
            return
          </CharString>
          <CharString index="145">
            217 323 55 322 102 255 return
          </CharString>
          <CharString index="146">
            hstemhm
            15 callgsubr
            return
          </CharString>
          <CharString index="147">
            132 96 11 96 return
          </CharString>
          <CharString index="148">
            rmoveto
            29 11 -20 24 -30 hhcurveto
            -31 -32 -24 -29 -4 hvcurveto
            -32 -228 rlineto
            56 hlineto
            return
          </CharString>
          <CharString index="149">
            47 592 47 return
          </CharString>
          <CharString index="150">
            885 446 rmoveto
            177 -126 63 -124 vhcurveto
            -376 hlineto
            -17 -18 -86 callsubr
            return
          </CharString>
          <CharString index="151">
            hlineto
            14 13 11 13 3 hvcurveto
            13 4 -8 11 -14 hhcurveto
            return
          </CharString>
          <CharString index="152">
            hstemhm
            40 callsubr
            return
          </CharString>
          <CharString index="153">
            hlineto
            8 10 0 3 6 hvcurveto
            4 2 5 3 3 4 5 8 3 8 -3 8 -1 4 -2 3 -4 2 rrcurveto
            3 -4 -10 0 -8 hhcurveto
            return
          </CharString>
          <CharString index="154">
            vvcurveto
            -25 19 -21 31 return
          </CharString>
          <CharString index="155">
            -28 -23 -50 -58 -52 hhcurveto
            -18 -6 10 33 -12 hvcurveto
            return
          </CharString>
          <CharString index="156">
            18 -18 0 -10 return
          </CharString>
          <CharString index="157">
            222 -2 callgsubr
            return
          </CharString>
          <CharString index="158">
            hlineto
            132 251 rlineto
            6 11 1 2 6 vvcurveto
            17 -14 14 -17 -17 -6 -11 -11 -6 vhcurveto
            -148 -279 rlineto
            return
          </CharString>
          <CharString index="159">
            36 callgsubr
            19 hvcurveto
            return
          </CharString>
          <CharString index="160">
            491 13 -21 354 38 68 -20 return
          </CharString>
          <CharString index="161">
            131 callsubr
            199 -20 return
          </CharString>
          <CharString index="162">
            vvcurveto
            27 -20 19 -30 return
          </CharString>
          <CharString index="163">
            0 -29 -18 18 0 return
          </CharString>
          <CharString index="164">
            rmoveto
            32 8 -19 26 -32 hhcurveto
            -32 -33 -26 -32 -8 hvcurveto
            -32 -8 20 -26 32 hhcurveto
            32 32 26 32 8 hvcurveto
            return
          </CharString>
          <CharString index="165">
            29 13 14 28 24 93 callsubr
            return
          </CharString>
          <CharString index="166">
            36 162 36 return
          </CharString>
          <CharString index="167">
            36 292 47 54 36 177 36 hstemhm
            return
          </CharString>
          <CharString index="168">
            -35 callgsubr
            187 51 return
          </CharString>
          <CharString index="169">
            21 callsubr
            hstem
            return
          </CharString>
          <CharString index="170">
            hstem
            661 260 rmoveto
            75 -54 51 -77 -87 -103 -81 -107 -88 66 -38 62 96 97 88 100 vhcurveto
            return
          </CharString>
          <CharString index="171">
            rlineto
            -286 hlineto
            -14 -29 0 -30 -31 28 0 15 hvcurveto
            return
          </CharString>
          <CharString index="172">
            -404 87 callsubr
            vhcurveto
            return
          </CharString>
          <CharString index="173">
            hstemhm
            36 callsubr
            return
          </CharString>
          <CharString index="174">
            866 21 callsubr
            return
          </CharString>
          <CharString index="175">
            709 0 51 588 47 return
          </CharString>
          <CharString index="176">
            274 249 -82 callsubr
            return
          </CharString>
          <CharString index="177">
            60 265 -82 callsubr
            return
          </CharString>
          <CharString index="178">
            -14 callgsubr
            82 -21 return
          </CharString>
          <CharString index="179">
            85 121 183 97 return
          </CharString>
          <CharString index="180">
            0 -4 0 vvcurveto
            -19 return
          </CharString>
          <CharString index="181">
            -93 callgsubr
            hintmask 00100000
            return
          </CharString>
          <CharString index="182">
            30 callgsubr
            180 -124 70 -138 -288 -155 -273 -201 return
          </CharString>
          <CharString index="183">
            0 29 279 96 43 5 -56 -25 vhcurveto
            endchar
          </CharString>
          <CharString index="184">
            hhcurveto
            -41 -24 -30 -25 -6 hvcurveto
            -29 -7 13 -27 37 hhcurveto
            21 26 9 10 23 hvcurveto
            return
          </CharString>
          <CharString index="185">
            -6 -4 -5 -7 -2 -7 rlinecurve
            46 callgsubr
            6 6 2 4 5 hvcurveto
            return
          </CharString>
          <CharString index="186">
            886 -47 -21 51 36 648 36 51 -20 return
          </CharString>
          <CharString index="187">
            47 286 47 259 47 return
          </CharString>
          <CharString index="188">
            47 609 47 return
          </CharString>
          <CharString index="189">
            76 62 72 -4 hvcurveto
            -1 36 -21 24 -33 13 81 24 25 60 -2 36 rrcurveto
            return
          </CharString>
          <CharString index="190">
            -17 43 362 36 198 39 return
          </CharString>
          <CharString index="191">
            -202 36 158 36 return
          </CharString>
          <CharString index="192">
            rlineto
            4 14 0 2 4 vvcurveto
            21 -17 10 -13 -24 -6 -22 -9 -2 vhcurveto
            return
          </CharString>
          <CharString index="193">
            rlineto
            -77 hlineto
            -14 -13 -11 -13 -3 hvcurveto
            -13 -4 8 -11 14 hhcurveto
            77 hlineto
            return
          </CharString>
          <CharString index="194">
            rmoveto
            -85 -57 -165 -81 -20 -15 18 34 return
          </CharString>
          <CharString index="195">
            1023 0 47 259 47 286 47 return
          </CharString>
          <CharString index="196">
            1003 668 rmoveto
            return
          </CharString>
          <CharString index="197">
            123 -18 55 -37 37 74 37 59 109 -18 99 hintmask 0111010101000000
            return
          </CharString>
          <CharString index="198">
            -8 -1 -5 hhcurveto
            -11 hlineto
            -8 -8 0 -13 -7 5 -2 5 hvcurveto
            23 return
          </CharString>
          <CharString index="199">
            -35 callgsubr
            60 59 return
          </CharString>
          <CharString index="200">
            55 callsubr
            -36 -35 -31 -44 return
          </CharString>
          <CharString index="201">
            896 21 callsubr
            return
          </CharString>
          <CharString index="202">
            796 0 126 callgsubr
            return
          </CharString>
          <CharString index="203">
            hstemhm
            72 callsubr
            return
          </CharString>
          <CharString index="204">
            vvcurveto
            -65 callsubr
            vhcurveto
            return
          </CharString>
          <CharString index="205">
            -45 callgsubr
            hstem
            return
          </CharString>
          <CharString index="206">
            591 520 -21 return
          </CharString>
          <CharString index="207">
            -7 -6 -8 -2 return
          </CharString>
          <CharString index="208">
            107 callgsubr
            155 186 26 96 return
          </CharString>
          <CharString index="209">
            866 -204 66 138 47 145 47 472 -20 return
          </CharString>
          <CharString index="210">
            hstemhm
            239 96 return
          </CharString>
          <CharString index="211">
            132 callgsubr
            54 callgsubr
            return
          </CharString>
          <CharString index="212">
            112 callgsubr
            hstemhm
            return
          </CharString>
          <CharString index="213">
            -28 callsubr
            endchar
          </CharString>
          <CharString index="214">
            -21 120 59 hstem
            return
          </CharString>
          <CharString index="215">
            62 248 rlineto
            return
          </CharString>
          <CharString index="216">
            -16 -15 -13 -15 -4 hvcurveto
            -15 -4 9 -13 16 hhcurveto
            return
          </CharString>
          <CharString index="217">
            130 callsubr
            132 return
          </CharString>
          <CharString index="218">
            -7 rlinecurve
            -17 -4 10 -13 16 hhcurveto
            10 10 5 7 return
          </CharString>
          <CharString index="219">
            -3 68 rrcurveto
            67 -4 -62 32 -75 hhcurveto
            -113 -69 return
          </CharString>
          <CharString index="220">
            21 -21 472 -20 hstem
            return
          </CharString>
          <CharString index="221">
            87 25 91 153 102 return
          </CharString>
          <CharString index="222">
            -21 207 -20 return
          </CharString>
          <CharString index="223">
            256 rmoveto
            18 return
          </CharString>
          <CharString index="224">
            25 -2 23 hhcurveto
            4 9 0 14 8 -8 0 return
          </CharString>
          <CharString index="225">
            -59 -48 2 hvcurveto
            -26 2 23 -16 29 hhcurveto
            36 return
          </CharString>
          <CharString index="226">
            532 -45 callgsubr
            187 51 hstem
            return
          </CharString>
          <CharString index="227">
            650 -17 132 callgsubr
            return
          </CharString>
          <CharString index="228">
            611 -17 36 620 47 return
          </CharString>
          <CharString index="229">
            hlineto
            17 18 0 29 return
          </CharString>
          <CharString index="230">
            90 callgsubr
            hstemhm
            return
          </CharString>
          <CharString index="231">
            125 callsubr
            hstemhm
            return
          </CharString>
          <CharString index="232">
            -21 167 -20 return
          </CharString>
          <CharString index="233">
            14 17 0 29 return
          </CharString>
          <CharString index="234">
            62 114 62 return
          </CharString>
          <CharString index="235">
            -1 5 hhcurveto
            -67 -268 -2 -7 0 0 return
          </CharString>
          <CharString index="236">
            hlineto
            -14 -17 0 -18 -46 callsubr
            14 hvcurveto
            return
          </CharString>
          <CharString index="237">
            6 callgsubr
            55 return
          </CharString>
          <CharString index="238">
            36 369 47 return
          </CharString>
        <CharString name=".notdef">
          280 endchar
        </CharString>
        <CharString name="A">
          -19 callgsubr
          hstem
          73 260 vstem
          -106 callsubr
          endchar
        </CharString>
        <CharString name="AE">
          88 callsubr
          hstem
          73 260 vstem
          -70 callsubr
          endchar
        </CharString>
        <CharString name="AE.dup">
          88 callsubr
          hstem
          73 260 vstem
          -70 callsubr
          endchar
        </CharString>
        <CharString name="AEacute">
          88 callsubr
          86 -21 167 -20 62 callgsubr
          -70 callsubr
          hintmask 00011000
          248 225 -104 callsubr
        </CharString>
        <CharString name="Aacute">
          -19 callgsubr
          81 -21 167 -100 callgsubr
          280 344 -104 callsubr
        </CharString>
        <CharString name="Abreve">
          -19 callgsubr
          60 59 120 -100 callgsubr
          22 callgsubr
          endchar
        </CharString>
        <CharString name="Abreveacute">
          -19 callgsubr
          60 59 322 -100 callgsubr
          22 callgsubr
          -6 163 -104 callsubr
        </CharString>
        <CharString name="Abrevedotbelow">
          -19 callgsubr
          60 59 120 -20 hstemhm
          73 260 vstemhm
          -106 callsubr
          22 callgsubr
          -349 -1025 -91 callgsubr
        </CharString>
        <CharString name="Abrevegrave">
          -19 callgsubr
          60 59 120 -100 callgsubr
          301 395 -36 callsubr
        </CharString>
        <CharString name="Abrevehookabove">
          -19 callgsubr
          60 59 337 -100 callgsubr
          22 callgsubr
          -19 166 -107 callgsubr
        </CharString>
        <CharString name="Abrevetilde">
          -19 callgsubr
          60 59 175 104 callgsubr
          73 260 hintmask 11100010
          -106 callsubr
          hintmask 00011100
          22 callgsubr
          56 174 -106 callgsubr
        </CharString>
        <CharString name="Acaron">
          -19 callgsubr
          71 -21 164 -100 callgsubr
          303 363 -46 callgsubr
        </CharString>
        <CharString name="Acircumflex">
          -19 callgsubr
          71 -21 164 -100 callgsubr
          69 callsubr
          endchar
        </CharString>
        <CharString name="Acircumflexacute">
          -19 callgsubr
          71 -21 366 -100 callgsubr
          274 249 -63 callgsubr
        </CharString>
        <CharString name="Acircumflexdotbelow">
          -19 callgsubr
          71 -21 164 -20 hstemhm
          73 260 vstemhm
          -106 callsubr
          69 callsubr
          -303 -854 -91 callgsubr
        </CharString>
        <CharString name="Acircumflexgrave">
          -19 callgsubr
          71 -21 164 -100 callgsubr
          69 callsubr
          15 236 -67 callgsubr
        </CharString>
        <CharString name="Acircumflexhookabove">
          -19 callgsubr
          71 -21 381 -100 callgsubr
          69 callsubr
          124 312 -107 callgsubr
        </CharString>
        <CharString name="Acircumflextilde">
          -19 callgsubr
          71 -21 219 104 callgsubr
          73 260 hintmask 11100010
          -106 callsubr
          hintmask 00011100
          69 callsubr
          95 320 -106 callgsubr
        </CharString>
        <CharString name="Adblgrave">
          -19 callgsubr
          81 -21 196 -100 callgsubr
          39 261 -97 callsubr
        </CharString>
        <CharString name="Adieresis">
          -19 callgsubr
          50 132 hstemhm
          73 260 hintmask 11101000
          -106 callsubr
          hintmask 00010000
          32 302 -81 callsubr
          endchar
        </CharString>
        <CharString name="Adotbelow">
          -19 callgsubr
          hstemhm
          73 260 vstemhm
          -106 callsubr
          -48 -630 -91 callgsubr
        </CharString>
        <CharString name="Agrave">
          -19 callgsubr
          81 -21 167 -100 callgsubr
          183 271 -71 callgsubr
        </CharString>
        <CharString name="Ahookabove">
          -19 callgsubr
          88 -21 202 -100 callgsubr
          235 374 -107 callgsubr
        </CharString>
        <CharString name="Alpha">
          -19 callgsubr
          hstem
          73 260 vstem
          -106 callsubr
          endchar
        </CharString>
        <CharString name="Amacron">
          -19 callgsubr
          70 50 hstemhm
          73 260 hintmask 11101000
          -106 callsubr
          hintmask 00010000
          297 276 -76 callgsubr
        </CharString>
        <CharString name="Aogonek">
          102 callsubr
          hstem
          73 260 vstem
          805 29 rmoveto
          -40 callsubr
          -13 hlineto
          -9 -16 0 1 -8 hvcurveto
          -12 2 -1 1 -2 15 -66 616 rcurveline
          26 -3 -3 3 -30 hhcurveto
          -22 -10 0 -25 -15 hvcurveto
          -365 -602 -11 -18 -11 -18 -72 -1 rlinecurve
          -14 -17 0 -29 0 0 -18 19 hvcurveto
          31 35 3 32 38 40 -3 37 hhcurveto
          8 20 0 29 18 -18 0 -8 hvcurveto
          0 -36 1 -24 9 vhcurveto
          81 135 rlineto
          232 hlineto
          15 -140 rlineto
          -4 -19 -26 -1 -20 hhcurveto
          -22 -17 0 -29 0 0 -18 22 hvcurveto
          113 3 rlineto
          -35 -24 -37 -49 111 callgsubr
          -53 callsubr
          -68 -6 94 46 82 hvcurveto
          94 -2 rlineto
          10 18 0 29 hvcurveto
          -250 210 rmoveto
          -198 hlineto
          168 278 rlineto
          endchar
        </CharString>
        <CharString name="Aogonekacute">
          102 callsubr
          81 124 callsubr
          73 260 hintmask 11110010
          805 29 rmoveto
          -40 callsubr
          -13 hlineto
          -9 -16 0 1 -8 hvcurveto
          -12 2 -1 1 -2 15 -66 616 rcurveline
          26 -3 -3 3 -30 hhcurveto
          -22 -10 0 -25 -15 hvcurveto
          -365 -602 -11 -18 -11 -18 -72 -1 rlinecurve
          -14 -17 0 -29 0 0 -18 19 hvcurveto
          31 35 3 32 38 40 -3 37 hhcurveto
          8 20 0 29 18 -18 0 -8 hvcurveto
          0 -36 1 -24 9 vhcurveto
          81 135 rlineto
          232 hlineto
          15 -140 rlineto
          -4 -19 -26 -1 -20 hhcurveto
          -22 -17 0 -29 0 0 -18 22 hvcurveto
          113 3 rlineto
          -35 -24 -37 -49 111 callgsubr
          -53 callsubr
          -68 -6 94 46 82 hvcurveto
          94 -2 rlineto
          10 18 0 29 hvcurveto
          -250 210 rmoveto
          -198 hlineto
          168 278 rlineto
          hintmask 00001100
          280 344 -104 callsubr
        </CharString>
        <CharString name="Aring">
          -22 callsubr
          41 86 41 hstemhm
          73 260 180 127 callsubr
          hintmask 11101100
          -106 callsubr
          hintmask 00110110
          164 297 -48 callsubr
        </CharString>
        <CharString name="Aringacute">
          -22 callsubr
          115 callgsubr
          -98 callgsubr
          hintmask 00111000
          164 297 -69 callgsubr
          56 211 -104 callsubr
        </CharString>
        <CharString name="Atilde">
          -19 callgsubr
          50 58 3 58 -103 callsubr
          295 325 -106 callgsubr
        </CharString>
        <CharString name="B">
          -27 callsubr
        </CharString>
        <CharString name="Beta">
          -27 callsubr
        </CharString>
        <CharString name="C">
          827 -17 47 626 47 hstem
          85 callgsubr
          vstem
          -67 callsubr
          endchar
        </CharString>
        <CharString name="Cacute">
          827 -17 47 626 47 69 124 callsubr
          85 callgsubr
          hintmask 11001000
          -67 callsubr
          hintmask 00110000
          -22 415 -104 callsubr
        </CharString>
        <CharString name="Ccaron">
          827 -17 47 626 47 59 -21 164 -20 hstemhm
          85 callgsubr
          hintmask 11001000
          -67 callsubr
          hintmask 00110000
          1 434 -46 callgsubr
        </CharString>
        <CharString name="Ccedilla">
          827 -17 47 626 47 hstem
          85 callgsubr
          vstem
          849 446 rmoveto
          56 224 rlineto
          4 15 0 4 0 vvcurveto
          14 -12 0 -15 vhcurveto
          -86 -68 rlineto
          68 -63 -78 0 -25 hhcurveto
          -294 -173 -246 -212 -165 108 -75 125 -18 hvcurveto
          -24 -94 35 callgsubr
          9 38 59 8 62 25 60 48 rlinecurve
          -49 callgsubr
          endchar
        </CharString>
        <CharString name="Ccircumflex">
          827 -17 47 626 47 59 -21 164 -20 hstemhm
          85 callgsubr
          hintmask 11001000
          -67 callsubr
          hintmask 00110000
          -28 320 -36 callgsubr
        </CharString>
        <CharString name="Cdotaccent">
          827 -17 47 626 47 55 147 hstemhm
          85 callgsubr
          hintmask 11010000
          -67 callsubr
          hintmask 00100000
          -110 399 -91 callgsubr
        </CharString>
        <CharString name="Chi">
          -44 callgsubr
        </CharString>
        <CharString name="D">
          876 62 callsubr
          757 128 vstem
          -59 callsubr
          endchar
        </CharString>
        <CharString name="Dcaron">
          876 21 callsubr
          37 callgsubr
          757 128 hintmask 11001000
          -59 callsubr
          hintmask 00110000
          16 397 -46 callgsubr
        </CharString>
        <CharString name="Dcroat">
          -33 callgsubr
        </CharString>
        <CharString name="Ddotbelow">
          876 21 callsubr
          hstemhm
          757 128 vstemhm
          -59 callsubr
          -335 -596 -91 callgsubr
        </CharString>
        <CharString name="Delta">
          944 0 116 595 -20 hstem
          864 16 rmoveto
          0 0 5 -4 14 vhcurveto
          -169 649 rlineto
          25 -7 -5 2 -30 hhcurveto
          -23 -11 0 -24 -18 hvcurveto
          -502 -661 rlineto
          -9 -10 0 -2 -4 vvcurveto
          -10 8 0 16 vhcurveto
          724 hlineto
          15 15 0 16 hvcurveto
          -178 100 rmoveto
          -454 hlineto
          338 445 rlineto
          endchar
        </CharString>
        <CharString name="Dlinebelow">
          876 -151 50 101 42 callsubr
          hstemhm
          757 128 hintmask 01110000
          -59 callsubr
          hintmask 10000000
          -218 -602 -76 callgsubr
        </CharString>
        <CharString name="E">
          -14 callgsubr
          hstem
          -107 callsubr
          532 -61 callgsubr
          endchar
        </CharString>
        <CharString name="Eacute">
          -14 callgsubr
          92 124 callsubr
          hintmask 11100000
          -107 callsubr
          532 -61 callgsubr
          hintmask 00011000
          -11 605 -104 callsubr
        </CharString>
        <CharString name="Ebreve">
          -14 callgsubr
          71 59 120 -20 hstemhm
          hintmask 11100000
          -107 callsubr
          532 -61 callgsubr
          hintmask 00011000
          10 656 -102 callsubr
          endchar
        </CharString>
        <CharString name="Ecaron">
          71 callsubr
          164 -20 hstemhm
          hintmask 11100000
          -107 callsubr
          532 -61 callgsubr
          hintmask 00011000
          12 624 -46 callgsubr
        </CharString>
        <CharString name="Ecircumflex">
          71 callsubr
          164 -45 callsubr
          endchar
        </CharString>
        <CharString name="Ecircumflexacute">
          71 callsubr
          366 -45 callsubr
          33 309 rmoveto
          32 5 -20 25 -32 hhcurveto
          -18 -13 -9 -13 -20 hvcurveto
          -140 -91 -6 -4 -8 -6 -1 -7 rlinecurve
          -1 -6 7 -29 16 -2 rrcurveto
          6 5 1 2 6 hvcurveto
          166 61 15 5 27 11 6 30 rlinecurve
          endchar
        </CharString>
        <CharString name="Ecircumflexdotbelow">
          71 callsubr
          164 -20 hstemhm
          -107 callsubr
          532 -61 callgsubr
          35 callsubr
          -302 -854 -91 callgsubr
        </CharString>
        <CharString name="Ecircumflexgrave">
          71 callsubr
          164 -45 callsubr
          15 236 -67 callgsubr
        </CharString>
        <CharString name="Ecircumflexhookabove">
          71 callsubr
          381 -45 callsubr
          124 312 -107 callgsubr
        </CharString>
        <CharString name="Ecircumflextilde">
          71 callsubr
          219 104 callgsubr
          hintmask 11100000
          -107 callsubr
          532 -61 callgsubr
          hintmask 00011100
          35 callsubr
          95 320 -106 callgsubr
        </CharString>
        <CharString name="Edblgrave">
          -14 callgsubr
          92 123 callsubr
          hintmask 11100000
          -107 callsubr
          532 -61 callgsubr
          hintmask 00011000
          -222 522 -97 callsubr
        </CharString>
        <CharString name="Edieresis">
          -14 callgsubr
          61 132 hstemhm
          hintmask 11100000
          -107 callsubr
          532 -61 callgsubr
          hintmask 00010000
          -259 563 -81 callsubr
          endchar
        </CharString>
        <CharString name="Edotaccent">
          -14 callgsubr
          78 147 hstemhm
          hintmask 11100000
          -107 callsubr
          532 -61 callgsubr
          hintmask 00010000
          -99 589 -91 callgsubr
        </CharString>
        <CharString name="Edotbelow">
          -14 callgsubr
          hstemhm
          -107 callsubr
          532 -61 callgsubr
          -338 -369 -91 callgsubr
        </CharString>
        <CharString name="Egrave">
          -14 callgsubr
          92 124 callsubr
          hintmask 11100000
          -107 callsubr
          532 -61 callgsubr
          hintmask 00011000
          -108 532 -71 callgsubr
        </CharString>
        <CharString name="Ehookabove">
          -14 callgsubr
          99 100 callgsubr
          hintmask 11100000
          -107 callsubr
          532 -61 callgsubr
          hintmask 00011000
          -56 635 -107 callgsubr
        </CharString>
        <CharString name="Emacron">
          -14 callgsubr
          81 50 hstemhm
          hintmask 11100000
          -107 callsubr
          532 -61 callgsubr
          hintmask 00010000
          6 537 -76 callgsubr
        </CharString>
        <CharString name="Eng">
          896 -17 116 548 56 hstem
          918 343 rmoveto
          195 49 -107 165 -191 hhcurveto
          -71 -73 -23 -39 -61 hvcurveto
          12 45 rlineto
          -2 -24 -22 -1 -23 -53 109 callgsubr
          -11 -18 -60 callgsubr
          24 hlineto
          5 35 -2 11 hhcurveto
          -142 113 callgsubr
          -20 -2 rlinecurve
          -1 -11 -19 0 -11 hhcurveto
          -24 hlineto
          -18 -17 0 -29 -13 10 -5 12 34 callsubr
          53 54 -3 52 hhcurveto
          11 19 0 29 -25 callgsubr
          hvcurveto
          -25 hlineto
          -51 2 129 518 rlineto
          50 55 79 30 75 hhcurveto
          133 24 -153 -151 -38 hvcurveto
          -26 -103 -30 -120 -52 -53 rrcurveto
          19 -5 -16 13 -23 65 callgsubr
          159 121 180 180 45 hvcurveto
          endchar
        </CharString>
        <CharString name="Eogonek">
          757 -204 66 138 47 282 47 257 47 hstem
          -107 callsubr
          379 hlineto
          -47 -26 -24 -44 111 callgsubr
          -53 callsubr
          -68 -18 94 44 93 hvcurveto
          76 -61 callgsubr
          endchar
        </CharString>
        <CharString name="Eogonekacute">
          757 -204 66 138 47 282 47 257 47 92 124 callsubr
          hintmask 11110000
          -107 callsubr
          379 hlineto
          -47 -26 -24 -44 111 callgsubr
          -53 callsubr
          -68 -18 94 44 93 hvcurveto
          76 -61 callgsubr
          hintmask 00001100
          -11 605 -104 callsubr
        </CharString>
        <CharString name="Epsilon">
          -14 callgsubr
          hstem
          -107 callsubr
          532 -61 callgsubr
          endchar
        </CharString>
        <CharString name="Ereversed">
          -14 callgsubr
          hstem
          700 18 rmoveto
          29 15 -18 0 -17 hhcurveto
          -22 hlineto
          -12 -16 1 1 -11 hvcurveto
          -18 1 0 1 3 14 142 566 rcurveline
          6 34 2 10 hhcurveto
          22 hlineto
          14 17 0 18 9 hvcurveto
          29 14 -17 0 -17 hhcurveto
          -516 hlineto
          -14 -16 0 -17 -10 hvcurveto
          -76 -198 rlineto
          -19 -8 -2 -7 26 hhcurveto
          10 18 0 19 9 hvcurveto
          2 4 5 13 1 4 10 26 1 3 10 19 rrcurveto
          106 53 65 0 122 hhcurveto
          27 41 0 -2 13 hvcurveto
          -65 -255 rlineto
          -42 hlineto
          -79 -5 25 70 17 hvcurveto
          19 4 -1 3 -22 hhcurveto
          -10 -18 0 -18 -9 hvcurveto
          -2 -3 0 -3 -2 -7 -57 -226 rcurveline
          -24 -6 7 0 17 hhcurveto
          10 18 0 18 9 hvcurveto
          0 3 7 1 7 vhcurveto
          5 18 7 20 4 7 rrcurveto
          30 15 19 10 55 hhcurveto
          51 hlineto
          -71 -281 rlineto
          -1 -7 -7 0 -9 hhcurveto
          -100 hlineto
          -163 -5 77 123 9 hvcurveto
          26 1 0 1 -22 hhcurveto
          -10 -18 0 -18 -9 hvcurveto
          -3 -6 0 -6 -5 vvcurveto
          -16 -222 rlineto
          -17 -2 5 0 21 hhcurveto
          532 hlineto
          15 17 0 18 9 hvcurveto
          endchar
        </CharString>
        <CharString name="Eta">
          130 callgsubr
          hstem
          -96 callgsubr
          endchar
        </CharString>
        <CharString name="Eth">
          -33 callgsubr
        </CharString>
        <CharString name="Etilde">
          -14 callgsubr
          61 104 callgsubr
          hintmask 11100000
          -107 callsubr
          532 -61 callgsubr
          hintmask 00011000
          4 586 -106 callgsubr
        </CharString>
        <CharString name="Euro">
          664 -17 48 222 48 84 48 222 48 hstem
          604 -3 rmoveto
          36 143 rlineto
          8 2 -5 6 -7 hhcurveto
          -34 hlineto
          -8 -7 -5 -7 -2 hvcurveto
          -59 -22 -53 -52 -56 hhcurveto
          -57 -45 31 49 -17 hvcurveto
          -14 42 3 49 9 51 rrcurveto
          217 hlineto
          7 6 4 6 3 hvcurveto
          12 24 rlineto
          8 4 -5 6 -9 hhcurveto
          -225 hlineto
          11 42 10 42 rlineto
          257 hlineto
          6 7 4 6 3 hvcurveto
          12 24 rlineto
          8 4 -6 6 -9 hhcurveto
          -260 hlineto
          16 51 22 49 35 42 rrcurveto
          49 41 61 31 57 hhcurveto
          56 27 -52 -59 -8 hvcurveto
          -7 -1 5 -5 7 hhcurveto
          34 hlineto
          8 8 6 8 2 hvcurveto
          35 143 rlineto
          8 2 -4 6 -8 hhcurveto
          -10 hlineto
          -3 -4 -1 -2 -2 hvcurveto
          -50 -30 rlineto
          21 -26 -35 12 -40 hhcurveto
          -85 -90 -34 -65 -71 hvcurveto
          -53 -49 -38 -60 -26 -62 rrcurveto
          -50 91 callgsubr
          50 hlineto
          -5 -14 -4 -14 -3 -14 -4 -14 -3 -14 -2 -14 rrcurveto
          -44 91 callgsubr
          56 hlineto
          -5 -62 8 -60 29 -49 rrcurveto
          -65 38 73 -34 85 hhcurveto
          40 41 12 22 37 hvcurveto
          34 -31 rlineto
          -2 2 3 -1 3 hhcurveto
          10 hlineto
          7 8 6 8 2 hvcurveto
          endchar
        </CharString>
        <CharString name="F">
          727 0 47 270 47 269 47 hstem
          767 465 rmoveto
          23 198 rlineto
          17 -2 -16 0 -14 hhcurveto
          -501 8 callsubr
          67 267 rlineto
          45 hlineto
          58 10 -12 -27 -10 -3 -20 -5 -16 hvcurveto
          -3 -2 -8 93 callgsubr
          24 6 vhcurveto
          56 226 rlineto
          2 7 1 3 68 callgsubr
          -3 -3 -19 -5 vhcurveto
          -70 -18 -17 -25 -79 hhcurveto
          -36 hlineto
          66 267 rlineto
          2 14 37 0 26 hhcurveto
          113 64 0 -104 -17 -2 -24 -2 -18 hvcurveto
          -2 -8 73 callsubr
          18 0 10 26 1 7 19 2 vhcurveto
          endchar
        </CharString>
        <CharString name="G">
          39 callgsubr
          hstem
          85 callgsubr
          vstem
          -95 callsubr
          endchar
        </CharString>
        <CharString name="Gacute">
          39 callgsubr
          69 124 callsubr
          85 callgsubr
          hintmask 11100100
          -95 callsubr
          hintmask 00011000
          -54 603 -104 callsubr
        </CharString>
        <CharString name="Gamma">
          698 0 47 586 47 hstem
          738 465 rmoveto
          23 198 rlineto
          17 -2 -16 0 -14 hhcurveto
          -472 8 callsubr
          145 581 rlineto
          2 14 31 0 22 hhcurveto
          109 49 -5 -96 -27 0 -2 -4 -33 hvcurveto
          -2 -8 73 callsubr
          18 0 10 26 1 7 19 2 vhcurveto
          endchar
        </CharString>
        <CharString name="Gbreve">
          39 callgsubr
          48 59 120 -20 hstemhm
          85 callgsubr
          hintmask 11100100
          -95 callsubr
          hintmask 00011000
          -33 654 -102 callsubr
          endchar
        </CharString>
        <CharString name="Gcaron">
          39 callgsubr
          59 -21 164 -20 hstemhm
          85 callgsubr
          hintmask 11100100
          -95 callsubr
          hintmask 00011000
          -31 622 -46 callgsubr
        </CharString>
        <CharString name="Gcedilla">
          895 2 callgsubr
          34 47 199 47 380 47 hstem
          85 callgsubr
          vstem
          -95 callsubr
          -398 -369 rmoveto
          -91 callsubr
        </CharString>
        <CharString name="Gcircumflex">
          39 callgsubr
          59 -21 164 -20 hstemhm
          85 callgsubr
          hintmask 11100100
          -95 callsubr
          hintmask 00011000
          -60 508 -36 callgsubr
        </CharString>
        <CharString name="Gcommaaccent">
          895 2 callgsubr
          34 47 199 47 380 47 hstemhm
          85 callgsubr
          hintmask 00111100
          -95 callsubr
          hintmask 11000000
          -398 -369 rmoveto
          -91 callsubr
        </CharString>
        <CharString name="Gdotaccent">
          39 callgsubr
          55 147 hstemhm
          85 callgsubr
          hintmask 11101000
          -95 callsubr
          hintmask 00010000
          -142 587 -91 callgsubr
        </CharString>
        <CharString name="H">
          130 callgsubr
          hstem
          -96 callgsubr
          endchar
        </CharString>
        <CharString name="H_uni0303">
          130 callgsubr
          55 104 callgsubr
          hintmask 11100000
          -96 callgsubr
          hintmask 00011000
          -168 174 -106 callgsubr
        </CharString>
        <CharString name="Hbar">
          896 0 47 286 47 111 48 100 47 hstem
          -40 callgsubr
          -24 -98 rlineto
          -288 hlineto
          20 81 -61 callsubr
          26 callgsubr
          hvcurveto
          -49 -51 -3 -50 -51 -53 3 -50 -69 callsubr
          -24 -98 rlineto
          -82 hlineto
          -13 -14 -11 -13 -3 hvcurveto
          -14 -4 9 -10 13 hhcurveto
          81 hlineto
          -106 -426 -86 callgsubr
          -13 11 -5 11 hvcurveto
          49 52 3 50 51 53 -3 50 hhcurveto
          9 19 0 29 117 callgsubr
          hvcurveto
          -22 hlineto
          -10 -33 2 -6 hhcurveto
          71 284 rlineto
          287 hlineto
          -67 -268 -86 callgsubr
          -13 11 -5 11 hvcurveto
          49 52 3 50 51 53 -3 50 hhcurveto
          9 19 0 29 117 callgsubr
          hvcurveto
          -22 hlineto
          -10 -33 2 -6 hhcurveto
          110 442 rlineto
          82 hlineto
          13 13 10 14 4 hvcurveto
          84 callgsubr
          -82 hlineto
          20 81 -61 callsubr
          hvcurveto
          -288 -177 rmoveto
          -28 -111 rlineto
          -287 hlineto
          27 111 rlineto
          endchar
        </CharString>
        <CharString name="Hbrevebelow">
          896 -215 59 120 -20 56 80 callsubr
          hstemhm
          hintmask 00111000
          -96 callgsubr
          hintmask 11000000
          -404 -722 -102 callsubr
          endchar
        </CharString>
        <CharString name="Hcircumflex">
          130 callgsubr
          37 callgsubr
          hintmask 11100000
          -96 callgsubr
          hintmask 00011000
          -189 98 -36 callgsubr
        </CharString>
        <CharString name="Hdieresis">
          130 callgsubr
          55 132 hstemhm
          hintmask 11100000
          -96 callgsubr
          hintmask 00010000
          -431 -18 callsubr
          endchar
        </CharString>
        <CharString name="Hdotbelow">
          130 callgsubr
          hstemhm
          -96 callgsubr
          -511 -781 -91 callgsubr
        </CharString>
        <CharString name="I">
          6 callgsubr
          -103 callgsubr
          endchar
        </CharString>
        <CharString name="I_J">
          1035 -17 36 -19 29 callsubr
          hstemhm
          496 152 hintmask 00010000
          585 668 rmoveto
          3 -1 15 -21 vhcurveto
          hintmask 00100000
          -51 -53 -3 -52 hhcurveto
          hintmask 00010000
          -53 109 callgsubr
          -11 -18 -60 callgsubr
          24 hlineto
          hintmask 01100000
          5 35 -2 11 hhcurveto
          -142 113 callgsubr
          -20 -2 rlinecurve
          -1 -11 -19 0 -11 hhcurveto
          -24 hlineto
          -18 -17 0 -29 -13 10 -5 12 34 callsubr
          53 54 -3 52 hhcurveto
          38 callgsubr
          hvcurveto
          530 hmoveto
          7 -5 11 -15 vhcurveto
          hintmask 00100000
          -43 -45 -3 -44 hhcurveto
          hintmask 10011000
          -58 callgsubr
          endchar
        </CharString>
        <CharString name="Iacute">
          6 callgsubr
          86 -21 167 -20 -103 callgsubr
          hintmask 00011000
          23 193 -104 callsubr
        </CharString>
        <CharString name="Ibreve">
          6 callgsubr
          65 59 120 -20 -103 callgsubr
          hintmask 00011000
          44 244 -102 callsubr
          endchar
        </CharString>
        <CharString name="Icaron">
          6 callgsubr
          76 -21 164 -20 -103 callgsubr
          hintmask 00011000
          46 212 -46 callgsubr
        </CharString>
        <CharString name="Icircumflex">
          6 callgsubr
          76 -21 164 -20 -103 callgsubr
          hintmask 00011000
          17 98 -36 callgsubr
        </CharString>
        <CharString name="Idblgrave">
          6 callgsubr
          86 -21 196 -20 -103 callgsubr
          hintmask 00011000
          -188 110 -97 callsubr
        </CharString>
        <CharString name="Idieresis">
          110 callsubr
          -103 callgsubr
          hintmask 00010000
          -225 -18 callsubr
          endchar
        </CharString>
        <CharString name="Idieresisacute">
          110 callsubr
          99 -21 167 -20 -103 callgsubr
          hintmask 00011100
          -225 -18 callsubr
          7 242 -104 callsubr
        </CharString>
        <CharString name="Idotaccent">
          6 callgsubr
          72 147 -103 callgsubr
          hintmask 00010000
          -65 177 -91 callgsubr
        </CharString>
        <CharString name="Idotbelow">
          6 callgsubr
          -103 callgsubr
          hintmask 00000000
          -305 -781 -91 callgsubr
        </CharString>
        <CharString name="Igrave">
          6 callgsubr
          86 -21 167 -20 -103 callgsubr
          hintmask 00011000
          -74 120 -71 callgsubr
        </CharString>
        <CharString name="Ihookabove">
          6 callgsubr
          93 -21 202 -20 -103 callgsubr
          hintmask 00011000
          -22 223 -107 callgsubr
        </CharString>
        <CharString name="Imacron">
          6 callgsubr
          75 50 -103 callgsubr
          hintmask 00010000
          40 125 -76 callgsubr
        </CharString>
        <CharString name="Imacron.alt">
          6 callgsubr
          75 50 -103 callgsubr
          hintmask 00010000
          -44 125 rmoveto
          -40 callsubr
          -149 hlineto
          -18 -17 0 -32 -73 callgsubr
          149 50 callgsubr
          32 hvcurveto
          endchar
        </CharString>
        <CharString name="Iogonek">
          472 -204 66 138 29 callsubr
          -29 callsubr
          endchar
        </CharString>
        <CharString name="Iogonekacute">
          472 -204 66 138 29 callsubr
          86 -21 167 -20 -29 callsubr
          hintmask 00001100
          227 1011 -104 callsubr
        </CharString>
        <CharString name="Iota">
          6 callgsubr
          -103 callgsubr
          endchar
        </CharString>
        <CharString name="Itilde">
          130 callsubr
          58 3 58 -103 callgsubr
          hintmask 00011000
          38 174 -106 callgsubr
        </CharString>
        <CharString name="J">
          121 callsubr
          hstem
          72 152 vstem
          691 668 rmoveto
          7 -5 11 -15 vhcurveto
          -43 -45 -3 -44 -58 callgsubr
          endchar
        </CharString>
        <CharString name="J_uni030C.cap">
          610.55 -17 36 432 -21 146 110 -47 47 hstemhm
          72 152 hintmask 10011000
          691 668 rmoveto
          7 -5 11 -15 vhcurveto
          -43 -45 -3 -44 -58 callgsubr
          145 -42 26 callsubr
        </CharString>
        <CharString name="Jacute">
          121 callsubr
          37 callsubr
          72 152 hintmask 11001000
          691 668 rmoveto
          7 -5 11 -15 vhcurveto
          -43 -45 -3 -44 -58 callgsubr
          hintmask 00110000
          30 193 -104 callsubr
        </CharString>
        <CharString name="Jcircumflex">
          121 callsubr
          37 callgsubr
          72 152 hintmask 11001000
          691 668 rmoveto
          7 -5 11 -15 vhcurveto
          -43 -45 -3 -44 -58 callgsubr
          hintmask 00110000
          24 98 -36 callgsubr
        </CharString>
        <CharString name="K">
          895 62 callsubr
          709 263 vstem
          -73 callsubr
          endchar
        </CharString>
        <CharString name="Kappa">
          895 62 callsubr
          709 263 vstem
          -73 callsubr
          endchar
        </CharString>
        <CharString name="Kcedilla">
          895 72 callgsubr
          hstem
          709 263 vstem
          -73 callsubr
          -351 -140 rmoveto
          -91 callsubr
        </CharString>
        <CharString name="Kcommaaccent">
          895 66 callgsubr
          709 263 hintmask 00111000
          -73 callsubr
          hintmask 11000000
          -351 -140 rmoveto
          -91 callsubr
        </CharString>
        <CharString name="L">
          698 62 callsubr
          -90 callgsubr
          endchar
        </CharString>
        <CharString name="L_uni0303">
          698 21 callsubr
          55 104 callgsubr
          hintmask 11000000
          -90 callgsubr
          hintmask 00110000
          -60 586 -106 callgsubr
        </CharString>
        <CharString name="Lacute">
          698 21 callsubr
          37 callsubr
          hintmask 11000000
          -90 callgsubr
          hintmask 00110000
          -75 605 -104 callsubr
        </CharString>
        <CharString name="Lambda">
          807 0 47 664 -20 hstem
          72 249 vstem
          747 29 rmoveto
          -40 callsubr
          -7 hlineto
          -13 -15 1 1 -13 hvcurveto
          -51 633 rlineto
          29 -2 -9 0 -24 hhcurveto
          -21 -11 0 -24 -14 hvcurveto
          -349 -602 -13 -22 -12 -15 -61 -1 rlinecurve
          -10 -18 -1 -28 -8 6 -10 13 hvcurveto
          28 32 3 29 38 39 -3 37 hhcurveto
          7 20 0 29 18 -17 0 -9 -5 -32 1 10 -24 hvcurveto
          254 436 35 -442 rlineto
          -3 -19 -26 -2 -20 hhcurveto
          -24 -15 0 -29 -13 11 -5 11 hvcurveto
          48 50 3 49 43 45 -3 43 hhcurveto
          8 20 0 29 hvcurveto
          endchar
        </CharString>
        <CharString name="Lcaron">
          698 0 47 404 -21 146 110 -47 47 hstemhm
          hintmask 10010000
          -90 callgsubr
          84 370 26 callsubr
        </CharString>
        <CharString name="Lcedilla">
          698 72 callgsubr
          hstem
          -90 callgsubr
          -310 -367 rmoveto
          -91 callsubr
        </CharString>
        <CharString name="Lcommaaccent">
          698 66 callgsubr
          hintmask 00110000
          -90 callgsubr
          hintmask 11000000
          -310 -367 rmoveto
          -91 callsubr
        </CharString>
        <CharString name="Ldot">
          698 0 47 313 147 132 47 hstem
          -90 callgsubr
          82 191 -91 callgsubr
        </CharString>
        <CharString name="Ldotbelow">
          698 21 callsubr
          hstemhm
          -90 callgsubr
          -294 -369 -91 callgsubr
        </CharString>
        <CharString name="Ldotbelowmacron">
          698 21 callsubr
          75 50 hstemhm
          hintmask 11000000
          -90 callgsubr
          -294 -369 74 callsubr
          245 906 -76 callgsubr
        </CharString>
        <CharString name="Lslash">
          698 62 callsubr
          697 116 callsubr
          -19 0 -9 -15 -8 0 -16 -5 vhcurveto
          -75 -28 -51 -136 -154 hhcurveto
          -58 hlineto
          -9 -7 0 1 -7 hvcurveto
          83 333 199 134 8 5 1 9 -5 8 rlinecurve
          -10 15 -5 8 -10 3 -7 -5 rlinecurve
          -153 -103 41 165 3 14 2 -32 callsubr
          -57 -58 -3 -57 -52 -54 3 -52 -69 callsubr
          -73 -293 -118 -80 -8 -5 -2 -9 5 -8 rlinecurve
          10 -15 5 -8 10 -2 7 5 rlinecurve
          73 49 -52 -206 -86 callgsubr
          -65 callsubr
          hvcurveto
          472 34 callgsubr
          80 218 rlineto
          3 7 2 6 4 vvcurveto
          endchar
        </CharString>
        <CharString name="M">
          1073 62 callsubr
          64 281 vstem
          -64 callsubr
          endchar
        </CharString>
        <CharString name="Mdotbelow">
          1073 21 callsubr
          hstemhm
          64 281 vstemhm
          -64 callsubr
          -599 -781 -91 callgsubr
        </CharString>
        <CharString name="Mu">
          1073 62 callsubr
          64 281 vstem
          -64 callsubr
          endchar
        </CharString>
        <CharString name="N">
          94 callsubr
          hstem
          36 callsubr
          vstem
          -96 callsubr
          endchar
        </CharString>
        <CharString name="Nacute">
          94 callsubr
          86 -21 167 -20 66 callsubr
          hintmask 11001100
          -96 callsubr
          hintmask 00110100
          -183 193 -104 callsubr
        </CharString>
        <CharString name="Ncaron">
          94 callsubr
          76 -21 164 -20 66 callsubr
          hintmask 11001100
          -96 callsubr
          hintmask 00110000
          -160 212 -46 callgsubr
        </CharString>
        <CharString name="Ncedilla">
          896 72 callgsubr
          hstem
          36 callsubr
          vstem
          -96 callsubr
          -527 -779 rmoveto
          -91 callsubr
        </CharString>
        <CharString name="Ncommaaccent">
          896 66 callgsubr
          64 281 377 281 hintmask 00111100
          -96 callsubr
          hintmask 11000000
          -527 -779 rmoveto
          -91 callsubr
        </CharString>
        <CharString name="Ndotaccent">
          94 callsubr
          55 147 66 callsubr
          hintmask 11011000
          -96 callsubr
          hintmask 00100000
          -275 160 -91 callgsubr
        </CharString>
        <CharString name="Ndotbelow">
          94 callsubr
          66 callsubr
          vstemhm
          -96 callsubr
          -511 -781 -91 callgsubr
        </CharString>
        <CharString name="Ntilde">
          94 callsubr
          55 58 3 58 66 callsubr
          hintmask 11001100
          -96 callsubr
          hintmask 00110000
          -168 174 -106 callgsubr
        </CharString>
        <CharString name="Nu">
          94 callsubr
          hstem
          36 callsubr
          vstem
          -96 callsubr
          endchar
        </CharString>
        <CharString name="O">
          10 callsubr
          hstem
          -15 callgsubr
          vstem
          -99 callgsubr
          endchar
        </CharString>
        <CharString name="OE">
          -47 callsubr
        </CharString>
        <CharString name="OE.dup">
          -47 callsubr
        </CharString>
        <CharString name="Oacute">
          10 callsubr
          69 -21 167 -20 -88 callsubr
          66 360 -104 callsubr
        </CharString>
        <CharString name="Obreve">
          10 callsubr
          48 59 120 -20 -88 callsubr
          87 411 -102 callsubr
          endchar
        </CharString>
        <CharString name="Ocaron">
          10 callsubr
          59 -21 164 -20 -88 callsubr
          89 379 -46 callgsubr
        </CharString>
        <CharString name="Ocircumflex">
          10 callsubr
          59 -21 164 -20 -88 callsubr
          70 callsubr
          endchar
        </CharString>
        <CharString name="Ocircumflexacute">
          10 callsubr
          59 -21 366 -20 -88 callsubr
          60 265 -63 callgsubr
        </CharString>
        <CharString name="Ocircumflexdotbelow">
          10 callsubr
          59 -21 164 -20 12 callsubr
          vstemhm
          -99 callgsubr
          70 callsubr
          -302 -854 -91 callgsubr
        </CharString>
        <CharString name="Ocircumflexgrave">
          10 callsubr
          59 -21 164 -20 -80 callsubr
          hintmask 00110100
          70 callsubr
          15 236 -67 callgsubr
        </CharString>
        <CharString name="Ocircumflexhookabove">
          10 callsubr
          59 -21 381 -20 -88 callsubr
          70 callsubr
          124 312 -107 callgsubr
        </CharString>
        <CharString name="Ocircumflextilde">
          10 callsubr
          59 -21 219 58 3 58 12 callsubr
          hintmask 11000110
          -99 callgsubr
          hintmask 00111000
          70 callsubr
          95 320 -106 callgsubr
        </CharString>
        <CharString name="Odblgrave">
          10 callsubr
          69 -21 196 -20 -88 callsubr
          -145 277 -97 callsubr
        </CharString>
        <CharString name="Odieresis">
          10 callsubr
          38 132 12 callsubr
          hintmask 11011000
          -99 callgsubr
          hintmask 00100000
          -182 318 -81 callsubr
          endchar
        </CharString>
        <CharString name="Odotbelow">
          10 callsubr
          12 callsubr
          vstemhm
          -99 callgsubr
          -261 -614 -91 callgsubr
        </CharString>
        <CharString name="Ograve">
          10 callsubr
          69 -21 167 -20 -88 callsubr
          -31 287 -71 callgsubr
        </CharString>
        <CharString name="Ohookabove">
          10 callsubr
          76 -21 202 -20 -88 callsubr
          22 390 -107 callgsubr
        </CharString>
        <CharString name="Ohorn">
          67 callgsubr
          111 -20 hstem
          159 122 callgsubr
          -85 callgsubr
          endchar
        </CharString>
        <CharString name="Ohornacute">
          67 callgsubr
          64 -21 68 -20 119 -20 hstemhm
          159 137 436 132 hintmask 11010110
          -85 callgsubr
          hintmask 00101000
          62 504 -104 callsubr
        </CharString>
        <CharString name="Ohorndotbelow">
          67 callgsubr
          111 -20 hstemhm
          159 137 436 132 vstemhm
          -85 callgsubr
          -231 -448 -91 callgsubr
        </CharString>
        <CharString name="Ohorngrave">
          67 callgsubr
          64 -21 68 -20 119 -20 hstemhm
          159 137 436 132 hintmask 11010110
          -85 callgsubr
          hintmask 00101000
          -6 431 -71 callgsubr
        </CharString>
        <CharString name="Ohornhookabove">
          67 callgsubr
          71 -21 61 -20 161 -20 hstemhm
          159 137 436 132 hintmask 11010110
          -85 callgsubr
          hintmask 00101000
          47 534 -107 callgsubr
        </CharString>
        <CharString name="Ohorntilde">
          67 callgsubr
          33 58 3 58 -41 -20 hstemhm
          159 137 436 132 hintmask 11001110
          -85 callgsubr
          hintmask 00110000
          106 485 -106 callgsubr
        </CharString>
        <CharString name="Ohungarumlaut">
          10 callsubr
          69 -21 196 -20 -88 callsubr
          100 399 rmoveto
          -72 callsubr
        </CharString>
        <CharString name="Omacron">
          10 callsubr
          58 50 12 callsubr
          hintmask 11011000
          -99 callgsubr
          hintmask 00100000
          83 292 -76 callgsubr
        </CharString>
        <CharString name="Omega">
          -39 callsubr
        </CharString>
        <CharString name="Omicron">
          10 callsubr
          hstem
          -15 callgsubr
          vstem
          -99 callgsubr
          endchar
        </CharString>
        <CharString name="Oogonek">
          855 663 40 hstem
          -15 callgsubr
          vstem
          -19 callsubr
          endchar
        </CharString>
        <CharString name="Oogonekacute">
          855 663 40 69 -21 167 -20 12 callsubr
          hintmask 10011000
          -19 callsubr
          hintmask 01100000
          66 360 -104 callsubr
        </CharString>
        <CharString name="Orogate">
          855 -15 callgsubr
          vstem
          30 callgsubr
          172 -113 71 -130 7 vhcurveto
          40 160 rlineto
          9 -8 9 -10 -9 100 callsubr
          vhcurveto
          -41 -164 rlineto
          -276 -11 -149 -266 -197 vvcurveto
          -163 106 -76 139 -7 vhcurveto
          -39 -159 rlineto
          -10 8 -8 10 8 7 5 8 2 vhcurveto
          41 164 rlineto
          272 11 151 253 206 vvcurveto
          -132 48 rmoveto
          -70 -41 -191 -63 -92 vhcurveto
          -94 -64 -73 -29 -58 hhcurveto
          -52 -34 25 22 -18 hvcurveto
          -30 39 -3 53 29 vvcurveto
          72 37 175 54 90 vhcurveto
          107 65 86 26 54 hhcurveto
          122 18 -106 -56 hvcurveto
          endchar
        </CharString>
        <CharString name="Oslash">
          79 callsubr
          hstem
          161 123 488 123 vstem
          -57 callgsubr
          endchar
        </CharString>
        <CharString name="Oslash.dup">
          79 callsubr
          hstem
          161 123 488 123 vstem
          -57 callgsubr
          endchar
        </CharString>
        <CharString name="Oslashacute">
          79 callsubr
          38 124 callsubr
          161 123 488 123 hintmask 11110011
          -57 callgsubr
          hintmask 00001100
          43 360 rmoveto
          32 5 -20 25 -32 hhcurveto
          -18 -13 -9 -13 -20 hvcurveto
          -140 -91 -6 -4 -8 -6 -1 -7 rlinecurve
          -1 -6 7 -29 16 -2 rrcurveto
          hintmask 00010000
          6 5 1 2 6 hvcurveto
          166 61 15 5 27 11 6 30 rlinecurve
          endchar
        </CharString>
        <CharString name="Otilde">
          10 callsubr
          38 58 3 58 -88 callsubr
          81 341 -106 callgsubr
        </CharString>
        <CharString name="P">
          -25 callsubr
        </CharString>
        <CharString name="Phi">
          827 62 callsubr
          171 133 390 133 vstem
          827 377 rmoveto
          87 -82 59 -140 11 vhcurveto
          21 86 4 14 1 1 26 2 rlinecurve
          31 callsubr
          -25 -103 rlineto
          -230 -22 -78 -124 -78 vvcurveto
          -88 85 -57 128 -11 vhcurveto
          -22 -87 23 callsubr
          25 102 rlineto
          229 18 89 121 86 vvcurveto
          -133 28 rmoveto
          -27 -13 -83 -39 -47 vhcurveto
          -33 -40 -57 -15 -33 -4 76 307 rcurveline
          99 -12 0 -58 -21 vvcurveto
          -301 -214 rmoveto
          -73 14 -16 38 38 vvcurveto
          25 13 75 30 45 vhcurveto
          37 53 65 12 20 4 rrcurveto
          endchar
        </CharString>
        <CharString name="Pi">
          896 0 47 586 47 hstem
          1002 662 rmoveto
          -40 callsubr
          -713 28 callgsubr
          49 52 3 50 51 53 -3 50 hhcurveto
          9 19 0 29 117 callgsubr
          hvcurveto
          -22 hlineto
          -10 -33 2 -6 hhcurveto
          146 584 rlineto
          287 hlineto
          -142 -568 -86 callgsubr
          -13 11 -5 11 hvcurveto
          49 52 3 50 51 53 -3 50 hhcurveto
          9 19 0 29 117 callgsubr
          hvcurveto
          -22 hlineto
          -10 -33 2 -6 hhcurveto
          141 566 4 14 1 1 18 1 rlinecurve
          1 12 16 1 12 hhcurveto
          22 122 callsubr
          hvcurveto
          endchar
        </CharString>
        <CharString name="Psi">
          886 62 callsubr
          237 120 vstem
          928 529 rmoveto
          -40 callsubr
          -66 hlineto
          -69 -20 -52 -90 -24 hvcurveto
          -30 -110 -50 -71 -87 -27 105 423 rcurveline
          4 14 1 1 26 2 rrcurveto
          31 callsubr
          -110 -441 rlineto
          -46 16 -20 41 55 vvcurveto
          14 2 34 14 54 vhcurveto
          6 24 5 27 20 vvcurveto
          67 -45 0 -19 vhcurveto
          -66 hlineto
          -14 -18 0 -18 0 0 -16 18 -2 hvcurveto
          9 -1 10 -1 -29 vvcurveto
          0 0 -22 -10 -39 vhcurveto
          -7 -29 -5 -29 -27 vvcurveto
          -155 136 -19 40 -6 vhcurveto
          -22 -88 23 callsubr
          22 88 4 13 1 1 12 2 rlinecurve
          149 19 101 78 41 155 24 90 19 11 24 4 rrcurveto
          14 2 4 8 8 vvcurveto
          endchar
        </CharString>
        <CharString name="Q">
          855 -194 144 33 40 96 36 508 40 hstem
          160 129 63 36 348 129 vstem
          771 hmoveto
          10 -8 8 -10 -12 -4 -9 -6 -2 vhcurveto
          -53 -20 -70 0 -6 hhcurveto
          -19 -26 0 61 -19 hvcurveto
          222 85 68 232 125 vvcurveto
          180 -124 70 -138 -288 -155 -273 -201 -170 116 -76 148 36 34 5 5 20 vhcurveto
          -1 -14 -3 -42 -14 vvcurveto
          -32 1 -85 89 122 49 179 15 vhcurveto
          -35 493 rmoveto
          -36 -27 -287 -149 -104 vhcurveto
          48 -17 -23 41 -58 hhcurveto
          -31 -79 -22 -87 hvcurveto
          -48 31 -15 57 56 vvcurveto
          58 33 180 65 104 vhcurveto
          101 64 85 30 57 hhcurveto
          56 35 -27 -20 17 hvcurveto
          35 -44 0 -58 -21 vvcurveto
          -220 -452 rmoveto
          -4 -8 -36 -14 -38 hhcurveto
          -16 -30 0 32 34 37 30 38 39 14 -23 -55 hvcurveto
          endchar
        </CharString>
        <CharString name="R">
          11 callsubr
          hstem
          -101 callgsubr
          endchar
        </CharString>
        <CharString name="Racute">
          11 callsubr
          hstemhm
          -101 callgsubr
          hintmask 11110000
          115 300 -104 callsubr
        </CharString>
        <CharString name="Rcaron">
          11 callsubr
          hstemhm
          -101 callgsubr
          hintmask 11100000
          138 319 -46 callgsubr
        </CharString>
        <CharString name="Rcedilla">
          11 callsubr
          hstem
          -101 callgsubr
          -229 -672 rmoveto
          -91 callsubr
        </CharString>
        <CharString name="Rcommaaccent">
          11 callsubr
          hstemhm
          -101 callgsubr
          hintmask 11100000
          -229 -672 rmoveto
          -91 callsubr
        </CharString>
        <CharString name="Rdblgrave">
          11 callsubr
          hstemhm
          -101 callgsubr
          hintmask 11100000
          -126 217 -97 callsubr
        </CharString>
        <CharString name="Rdotaccent">
          11 callsubr
          hstemhm
          -101 callgsubr
          hintmask 11100000
          27 284 -91 callgsubr
        </CharString>
        <CharString name="Rdotbelow">
          11 callsubr
          hstemhm
          -101 callgsubr
          hintmask 11100000
          -213 -674 -91 callgsubr
        </CharString>
        <CharString name="Rdotbelowmacron">
          11 callsubr
          hstemhm
          -101 callgsubr
          -213 -674 -93 callgsubr
          hintmask 11100000
          345 906 -76 callgsubr
        </CharString>
        <CharString name="Rho">
          -25 callsubr
        </CharString>
        <CharString name="S">
          -41 callgsubr
          endchar
        </CharString>
        <CharString name="S_S">
          1300 -17 104 callsubr
          156 55 callgsubr
          hintmask 01101000
          616 251 rmoveto
          -84 callsubr
          hintmask 11010101
          -70 callgsubr
          650 hmoveto
          -84 callsubr
          hintmask 10000010
          -70 callgsubr
          endchar
        </CharString>
        <CharString name="Sacute">
          120 callsubr
          69 -21 167 -20 54 callgsubr
          hintmask 01001010
          616 251 rmoveto
          -84 callsubr
          hintmask 10000100
          -70 callgsubr
          hintmask 00110000
          81 610 -104 callsubr
        </CharString>
        <CharString name="Scaron">
          120 callsubr
          59 -21 164 -20 54 callgsubr
          hintmask 01001010
          616 251 rmoveto
          -84 callsubr
          hintmask 10000100
          -70 callgsubr
          hintmask 00110000
          104 629 -46 callgsubr
        </CharString>
        <CharString name="Scedilla">
          650 -17 104 callsubr
          hintmask 01101000
          616 251 rmoveto
          -84 callsubr
          hintmask 10010000
          39 -9 47 -12 -69 vvcurveto
          -51 -42 -108 -113 -67 -96 24 105 16 2 15 4 15 vhcurveto
          1 3 0 6 0 vvcurveto
          14 -13 0 -14 -23 -2 0 -19 -5 vhcurveto
          -50 -200 rlineto
          -1 -5 127 callgsubr
          -14 14 0 4 10 1 1 8 9 vhcurveto
          31 25 -39 -31 62 52 19 -19 29 -16 37 -10 -25 -100 rcurveline
          42 54 0 -18 -4 hvcurveto
          -19 -5 -83 0 -61 78 callgsubr
          19 hvcurveto
          47 11 -44 27 -53 hhcurveto
          9 35 rlineto
          160 15 79 148 104 vvcurveto
          endchar
        </CharString>
        <CharString name="Scircumflex">
          120 callsubr
          59 -21 164 -20 54 callgsubr
          hintmask 01001010
          616 251 rmoveto
          -84 callsubr
          hintmask 10000100
          -70 callgsubr
          hintmask 00110000
          75 515 -36 callgsubr
        </CharString>
        <CharString name="Sdotbelow">
          -41 callgsubr
          hintmask 00000000
          -247 -364 -91 callgsubr
        </CharString>
        <CharString name="Sigma">
          827 0 64 575 47 hstem
          797 240 rmoveto
          40 callgsubr
          0 -1 -25 -10 vhcurveto
          -141 -59 -76 -27 -144 hhcurveto
          -224 hlineto
          325 260 rlineto
          8 6 5 4 9 vvcurveto
          5 -2 3 -4 8 vhcurveto
          -140 280 rlineto
          192 hlineto
          130 52 -24 -105 hvcurveto
          -14 -3 -17 -13 vvcurveto
          -21 15 0 13 23 3 4 23 3 vhcurveto
          21 182 rlineto
          32 4 -13 0 -22 hhcurveto
          -555 hlineto
          -17 -18 0 -29 -6 3 -5 2 -4 hvcurveto
          173 -345 -322 -258 rlineto
          -11 -9 -4 -3 -9 97 callsubr
          555 34 callgsubr
          76 202 rlineto
          5 12 0 5 0 vvcurveto
          endchar
        </CharString>
        <CharString name="T">
          95 callsubr
          hstem
          -89 callsubr
          endchar
        </CharString>
        <CharString name="T_uni0303">
          95 callsubr
          66 104 callgsubr
          hintmask 11000000
          -89 callsubr
          hintmask 00110000
          -57 382 -106 callgsubr
        </CharString>
        <CharString name="T_uni0308">
          95 callsubr
          66 132 hstemhm
          hintmask 11000000
          -89 callsubr
          hintmask 00100000
          -320 359 -81 callsubr
          endchar
        </CharString>
        <CharString name="Tau">
          95 callsubr
          hstem
          -89 callsubr
          endchar
        </CharString>
        <CharString name="Tcaron">
          95 callsubr
          87 -21 164 -20 hstemhm
          hintmask 11000000
          -89 callsubr
          hintmask 00110000
          -49 420 -46 callgsubr
        </CharString>
        <CharString name="Tcedilla">
          796 -200 56 37 56 51 126 callgsubr
          hstem
          842 460 rmoveto
          28 181 rlineto
          2 11 0 4 0 vvcurveto
          19 -16 0 -16 vhcurveto
          -556 hlineto
          -22 -4 0 -19 -7 hvcurveto
          -50 -144 rlineto
          -7 -20 -12 -34 -6 vvcurveto
          -18 18 0 10 20 3 1 20 7 vhcurveto
          136 47 28 37 129 hhcurveto
          24 2 0 -1 16 hvcurveto
          -143 -575 rlineto
          -1 -4 -29 -4 -49 hhcurveto
          -45 hlineto
          -17 -18 0 -29 -18 20 0 4 hvcurveto
          137 2 -27 -109 -4 callsubr
          47 12 -45 27 -53 hhcurveto
          13 53 141 -2 rlineto
          126 callsubr
          -25 callgsubr
          hvcurveto
          -44 hlineto
          -21 -30 1 2 -20 hvcurveto
          140 562 4 15 1 0 15 1 rlinecurve
          35 hlineto
          97 23 -18 -63 -31 -6 -39 -2 -10 hvcurveto
          -2 -10 73 callsubr
          17 0 11 18 8 0 26 4 vhcurveto
          endchar
        </CharString>
        <CharString name="Tdotbelow">
          95 callsubr
          hstemhm
          -89 callsubr
          -400 -573 -91 callgsubr
        </CharString>
        <CharString name="Theta">
          886 -17 38 265 116 265 36 hstem
          161 125 65 60 236 60 63 125 vstem
          895 449 rmoveto
          186 -134 68 -142 -300 -158 -269 -200 -181 131 -70 147 293 163 252 214 vhcurveto
          -125 37 rmoveto
          -71 -33 -176 -73 -98 vhcurveto
          -94 -68 -86 -26 -61 hhcurveto
          -75 -88 39 138 59 29 160 62 103 hvcurveto
          108 66 95 39 71 hhcurveto
          161 0 -155 -26 hvcurveto
          -97 -210 rmoveto
          32 128 rlineto
          1 4 1 6 4 vvcurveto
          49 callsubr
          -12 -7 0 -8 -5 vhcurveto
          -2 -3 -6 -20 -3 vvcurveto
          -207 hlineto
          1 4 2 8 4 vvcurveto
          49 callsubr
          -17 -7 0 -24 -6 vhcurveto
          -32 -128 rlineto
          -1 -4 -1 -6 -4 vvcurveto
          -18 18 0 10 12 7 0 8 5 vhcurveto
          2 3 6 20 3 vvcurveto
          207 hlineto
          -1 -4 -2 -8 -4 vvcurveto
          -18 18 0 10 17 7 0 24 6 vhcurveto
          endchar
        </CharString>
        <CharString name="Thorn">
          728 0 47 131 47 292 47 75 47 hstem
          600 137 vstem
          737 421 rmoveto
          108 -89 35 -86 vhcurveto
          -127 hlineto
          17 71 rlineto
          0 22 4 37 vhcurveto
          22 122 callsubr
          12 -10 6 -12 hvcurveto
          -144 -3 -149 3 rlineto
          -9 -20 21 callgsubr
          32 33 -2 6 hhcurveto
          -143 113 callgsubr
          -17 -2 rlinecurve
          -11 -1 -52 0 0 vvcurveto
          -16 -19 0 -29 0 0 -18 22 hvcurveto
          145 3 149 -3 rlineto
          9 19 0 28 19 -16 0 -16 -34 -25 1 1 -11 hvcurveto
          32 129 rlineto
          118 hlineto
          206 75 150 93 hvcurveto
          -137 11 rmoveto
          -37 -23 -170 -143 vhcurveto
          -84 hlineto
          73 292 rlineto
          102 hlineto
          19 56 0 -85 hvcurveto
          endchar
        </CharString>
        <CharString name="Tlinebelow">
          796 -151 50 101 126 callgsubr
          hstemhm
          hintmask 01100000
          -89 callsubr
          hintmask 10000000
          -283 -579 -76 callgsubr
        </CharString>
        <CharString name="U">
          13 callgsubr
          hstem
          0 callgsubr
          vstem
          -105 callsubr
          endchar
        </CharString>
        <CharString name="U_uni032F">
          881 -194 -21 120 59 19 81 callsubr
          28 callsubr
          hintmask 00111100
          -105 callsubr
          hintmask 11000000
          -401 -831 -54 callsubr
        </CharString>
        <CharString name="Uacute">
          13 callgsubr
          86 -21 167 -20 28 callsubr
          hintmask 11001100
          -105 callsubr
          hintmask 00110000
          -149 193 -104 callsubr
        </CharString>
        <CharString name="Ubreve">
          13 callgsubr
          65 59 120 -20 28 callsubr
          hintmask 11001100
          -105 callsubr
          hintmask 00110000
          -128 244 -102 callsubr
          endchar
        </CharString>
        <CharString name="Ucaron">
          13 callgsubr
          76 -21 164 -20 28 callsubr
          hintmask 11001100
          -105 callsubr
          hintmask 00110000
          -126 212 -46 callgsubr
        </CharString>
        <CharString name="Ucircumflex">
          13 callgsubr
          76 -21 164 -20 28 callsubr
          hintmask 11001100
          -105 callsubr
          hintmask 00110000
          -155 98 -36 callgsubr
        </CharString>
        <CharString name="Udblgrave">
          13 callgsubr
          86 -21 196 -20 28 callsubr
          hintmask 11001100
          -105 callsubr
          hintmask 00110000
          -360 110 -97 callsubr
        </CharString>
        <CharString name="Udieresis">
          13 callgsubr
          55 132 28 callsubr
          hintmask 11011000
          -105 callsubr
          hintmask 00100000
          -5 callsubr
          endchar
        </CharString>
        <CharString name="Udieresisacute">
          13 callgsubr
          55 132 99 -21 167 -20 28 callsubr
          hintmask 11000110
          -105 callsubr
          hintmask 00111000
          -5 callsubr
          7 242 -104 callsubr
        </CharString>
        <CharString name="Udieresiscaron">
          13 callgsubr
          55 132 89 -21 164 -20 28 callsubr
          hintmask 11000110
          -105 callsubr
          hintmask 00111000
          -5 callsubr
          30 261 -46 callgsubr
        </CharString>
        <CharString name="Udieresisgrave">
          13 callgsubr
          55 132 99 -21 167 -20 28 callsubr
          hintmask 11000110
          -105 callsubr
          hintmask 00111000
          -5 callsubr
          -90 169 -71 callgsubr
        </CharString>
        <CharString name="Udotbelow">
          13 callgsubr
          28 callsubr
          vstemhm
          -105 callsubr
          -477 -781 -91 callgsubr
        </CharString>
        <CharString name="Ugrave">
          13 callgsubr
          86 -21 167 -20 28 callsubr
          hintmask 11001100
          -105 callsubr
          hintmask 00110000
          -246 120 -71 callgsubr
        </CharString>
        <CharString name="Uhookabove">
          13 callgsubr
          93 -21 202 -20 28 callsubr
          hintmask 11001100
          -105 callsubr
          hintmask 00110000
          -194 223 -107 callgsubr
        </CharString>
        <CharString name="Uhorn">
          881 636 47 -44 44 -44 47 hstem
          -95 callgsubr
          endchar
        </CharString>
        <CharString name="Uhornacute">
          881 636 47 -44 44 -44 47 hstemhm
          -95 callgsubr
          hintmask 11100000
          -207 129 -104 callsubr
        </CharString>
        <CharString name="Uhorndotbelow">
          881 636 47 -44 44 -44 47 hstemhm
          -95 callgsubr
          hintmask 11100000
          -526 -823 -91 callgsubr
        </CharString>
        <CharString name="Uhorngrave">
          881 636 47 -44 44 -44 47 hstemhm
          -95 callgsubr
          hintmask 11100000
          -274 56 -71 callgsubr
        </CharString>
        <CharString name="Uhornhookabove">
          881 636 47 -44 44 -44 47 hstemhm
          -95 callgsubr
          hintmask 11100000
          -222 159 -107 callgsubr
        </CharString>
        <CharString name="Uhorntilde">
          881 636 47 -44 44 -44 47 hstemhm
          -95 callgsubr
          hintmask 11100000
          -162 110 -106 callgsubr
        </CharString>
        <CharString name="Uhungarumlaut">
          13 callgsubr
          86 -21 196 -20 28 callsubr
          hintmask 11001100
          -105 callsubr
          hintmask 00110000
          -115 232 rmoveto
          -72 callsubr
        </CharString>
        <CharString name="Umacron">
          13 callgsubr
          75 50 28 callsubr
          hintmask 11011000
          -105 callsubr
          hintmask 00100000
          -132 125 -76 callgsubr
        </CharString>
        <CharString name="Uogonek">
          881 -204 66 777 47 hstem
          0 callgsubr
          vstem
          988 668 rmoveto
          11 -9 7 -11 vhcurveto
          -37 -39 -3 -38 -39 -41 3 -39 hhcurveto
          -7 -20 -11 callgsubr
          9 36 0 -10 25 hvcurveto
          -99 -396 rlineto
          -140 -35 -102 -63 -110 hhcurveto
          -30 -33 7 17 -22 hvcurveto
          -28 23 -4 31 25 vvcurveto
          34 5 18 7 30 vhcurveto
          101 405 -61 callsubr
          26 callgsubr
          hvcurveto
          -49 -51 -3 -50 -51 -53 3 -50 -69 callsubr
          -102 -406 rlineto
          -2 -7 -5 -25 -26 vvcurveto
          -108 74 -66 119 -13 vhcurveto
          -29 -29 -24 -37 -34 -28 callsubr
          -53 callsubr
          -44 -21 41 40 16 hvcurveto
          6 15 9 14 11 11 176 9 93 130 24 98 97 390 rcurveline
          4 15 1 3 29 6 rrcurveto
          5 23 26 0 8 hhcurveto
          14 30 callsubr
          endchar
        </CharString>
        <CharString name="Upsilon">
          886 0 47 548 108 hstem
          478 85 vstem
          938 588 rmoveto
          66 -43 49 -71 -146 -81 -156 -64 -33 vhcurveto
          -1 22 hlineto
          77 -25 121 -125 -116 -70 -122 -36 -14 10 0 17 18 9 0 19 8 vhcurveto
          40 14 50 5 30 hhcurveto
          84 11 -74 -55 -34 -4 -35 -8 -33 hvcurveto
          -75 -298 -3 -13 -1 -1 -5 -1 rlinecurve
          0 -23 -4 -44 vhcurveto
          -36 hlineto
          -17 -18 0 -29 -18 19 0 4 hvcurveto
          58 60 3 58 60 61 -3 59 hhcurveto
          12 49 callgsubr
          70 279 rlineto
          117 29 57 149 120 hhcurveto
          69 3 -26 -12 1 hvcurveto
          -26 -8 19 0 15 hhcurveto
          22 17 0 57 hvcurveto
          endchar
        </CharString>
        <CharString name="Uring">
          13 callgsubr
          25 41 86 41 hstemhm
          218 128 201 62 99 280 -265 62 hintmask 11001010
          -105 callsubr
          hintmask 00110110
          -265 146 rmoveto
          -6 -4 -27 -11 -14 vhcurveto
          -14 -12 -26 -1 -14 hhcurveto
          -22 -25 1 23 5 4 29 11 13 hvcurveto
          14 13 22 1 17 hhcurveto
          hintmask 00110101
          24 23 -2 -22 hvcurveto
          62 -1 rmoveto
          40 -34 26 -64 -93 -47 -54 -48 -43 37 -23 61 95 45 56 46 vhcurveto
          endchar
        </CharString>
        <CharString name="Utilde">
          13 callgsubr
          55 58 3 58 28 callsubr
          hintmask 11001100
          -105 callsubr
          hintmask 00110000
          -134 174 -106 callgsubr
        </CharString>
        <CharString name="V">
          866 4 -21 656 47 hstem
          218 330 176 255 vstem
          979 668 rmoveto
          8 -6 10 -13 vhcurveto
          -30 -33 -3 -31 -38 -40 3 -37 hhcurveto
          -7 -20 0 -29 -46 callsubr
          9 3 31 -1 -9 24 hvcurveto
          -297 -466 -65 471 rlineto
          4 19 31 1 15 hhcurveto
          20 45 callgsubr
          -48 -50 -3 -49 -44 -46 3 -43 hhcurveto
          -8 -20 21 callgsubr
          11 hlineto
          10 11 0 -1 10 hvcurveto
          13 -2 1 0 2 -15 84 -607 rcurveline
          -26 4 0 -5 33 hhcurveto
          22 10 0 23 15 hvcurveto
          381 595 6 9 1 1 2 2 rlinecurve
          25 17 49 1 16 hhcurveto
          13 18 0 29 hvcurveto
          endchar
        </CharString>
        <CharString name="W">
          108 callgsubr
          656 47 hstem
          38 callsubr
          vstem
          -80 callgsubr
          endchar
        </CharString>
        <CharString name="Wacute">
          108 callgsubr
          656 47 37 callsubr
          38 callsubr
          hintmask 11001110
          -80 callgsubr
          hintmask 00110000
          -322 193 -104 callsubr
        </CharString>
        <CharString name="Wcircumflex">
          108 callgsubr
          656 47 37 callgsubr
          38 callsubr
          hintmask 11001110
          -80 callgsubr
          hintmask 00110000
          -328 98 -36 callgsubr
        </CharString>
        <CharString name="Wdieresis">
          108 callgsubr
          656 47 55 132 hstemhm
          38 callsubr
          hintmask 11011100
          -80 callgsubr
          hintmask 00100000
          -570 -18 callsubr
          endchar
        </CharString>
        <CharString name="Wgrave">
          108 callgsubr
          656 47 37 callsubr
          38 callsubr
          hintmask 11001110
          -80 callgsubr
          hintmask 00110000
          -419 120 -71 callgsubr
        </CharString>
        <CharString name="X">
          -44 callgsubr
        </CharString>
        <CharString name="Xi">
          768 0 108 189 108 162 108 hstem
          88 90 vstem
          813 505 rmoveto
          27 131 rlineto
          3 13 0 2 5 vvcurveto
          19 -16 0 -16 vhcurveto
          -526 hlineto
          -27 0 -2 -22 -7 hvcurveto
          -40 -134 -5 -18 rlineto
          -18 18 0 10 22 2 3 21 7 vhcurveto
          5 17 12 37 7 3 rrcurveto
          5 11 45 0 13 hhcurveto
          344 hlineto
          19 25 -1 -2 18 hvcurveto
          -13 0 -8 -6 -28 vhcurveto
          -2 -11 73 callsubr
          17 0 11 24 1 5 19 4 vhcurveto
          -155 -236 rmoveto
          37 149 rlineto
          4 14 0 2 3 vvcurveto
          19 -17 0 -11 -11 -12 0 -15 -4 vhcurveto
          0 -1 -3 -8 -33 vhcurveto
          -299 hlineto
          2 8 5 15 9 vvcurveto
          19 -17 0 -11 -18 -7 -2 -22 -5 vhcurveto
          -38 -153 rlineto
          -1 -3 -2 -8 -3 vvcurveto
          -19 19 0 9 19 5 3 14 4 vhcurveto
          2 4 0 2 7 28 rrcurveto
          299 hlineto
          -2 -6 -6 -21 -5 vvcurveto
          -19 19 0 9 21 4 3 20 5 vhcurveto
          79 -96 rmoveto
          1 4 2 4 6 vvcurveto
          49 callsubr
          -23 -1 -3 -26 -8 vhcurveto
          -6 -18 -10 -32 -9 -11 rrcurveto
          -7 -6 -58 0 -11 hhcurveto
          -347 hlineto
          -19 -22 0 3 -16 hvcurveto
          -8 1 -1 0 7 vvcurveto
          3 1 16 7 33 vhcurveto
          2 8 1 5 3 vvcurveto
          49 callsubr
          -12 -12 0 -14 -4 vhcurveto
          -4 -16 -30 -147 -9 vvcurveto
          -19 16 0 16 vhcurveto
          538 hlineto
          26 1 1 21 6 hvcurveto
          endchar
        </CharString>
        <CharString name="Y">
          67 callsubr
          hstem
          727 258 vstem
          -94 callgsubr
          endchar
        </CharString>
        <CharString name="Yacute">
          67 callsubr
          37 callsubr
          727 258 hintmask 11001000
          -94 callgsubr
          hintmask 00110000
          -180 193 -104 callsubr
        </CharString>
        <CharString name="Ycircumflex">
          67 callsubr
          37 callgsubr
          727 258 hintmask 11001000
          -94 callgsubr
          hintmask 00110000
          -186 98 -36 callgsubr
        </CharString>
        <CharString name="Ydieresis">
          67 callsubr
          55 132 hstemhm
          727 258 hintmask 11010000
          -94 callgsubr
          hintmask 00100000
          -428 -18 callsubr
          endchar
        </CharString>
        <CharString name="Ydotbelow">
          67 callsubr
          hstemhm
          727 258 vstemhm
          -94 callgsubr
          -508 -781 -91 callgsubr
        </CharString>
        <CharString name="Ygrave">
          67 callsubr
          37 callsubr
          727 258 hintmask 11001000
          -94 callgsubr
          hintmask 00110000
          -277 120 -71 callgsubr
        </CharString>
        <CharString name="Yhookabove">
          67 callsubr
          93 100 callgsubr
          727 258 hintmask 11001000
          -94 callgsubr
          hintmask 00110000
          -225 223 -107 callgsubr
        </CharString>
        <CharString name="Ytilde">
          67 callsubr
          55 104 callgsubr
          727 258 hintmask 11001000
          -94 callgsubr
          hintmask 00110000
          -165 174 -106 callgsubr
        </CharString>
        <CharString name="Z">
          68 callsubr
          hstem
          -71 callsubr
          endchar
        </CharString>
        <CharString name="Zacute">
          68 callsubr
          37 callsubr
          hintmask 11000000
          -71 callsubr
          hintmask 00110000
          111 840 -104 callsubr
        </CharString>
        <CharString name="Zcaron">
          68 callsubr
          37 callgsubr
          hintmask 11000000
          -71 callsubr
          hintmask 00110000
          134 859 -46 callgsubr
        </CharString>
        <CharString name="Zdotaccent">
          68 callsubr
          72 147 hstemhm
          hintmask 11000000
          -71 callsubr
          hintmask 00100000
          23 824 -91 callgsubr
        </CharString>
        <CharString name="Zdotbelow">
          68 callsubr
          hstemhm
          -71 callsubr
          -216 -134 -91 callgsubr
        </CharString>
        <CharString name="Zeta">
          68 callsubr
          hstem
          -71 callsubr
          endchar
        </CharString>
        <CharString name="a">
          -35 callgsubr
          hstem
          96 107 vstem
          -105 callgsubr
          endchar
        </CharString>
        <CharString name="aacute">
          -35 callgsubr
          71 -21 197 -100 callsubr
          220 551 -89 callgsubr
        </CharString>
        <CharString name="abreve">
          -35 callgsubr
          59 59 120 -100 callsubr
          252 572 -102 callsubr
          endchar
        </CharString>
        <CharString name="abreveacute">
          92 callsubr
          322 -37 callgsubr
          -6 163 -104 callsubr
        </CharString>
        <CharString name="abrevedotbelow">
          -35 callgsubr
          59 59 120 -20 hstemhm
          96 107 vstemhm
          -105 callgsubr
          252 572 -102 callsubr
          -288 -785 -91 callgsubr
        </CharString>
        <CharString name="abrevegrave">
          92 callsubr
          120 -37 callgsubr
          -24 90 rmoveto
          -2 -6 -21 -29 -17 -2 rrcurveto
          -7 -4 1 2 -5 hvcurveto
          -135 61 -13 5 -21 11 9 30 rlinecurve
          32 10 33 25 33 hhcurveto
          17 9 -9 -13 13 hvcurveto
          95 -91 4 -4 5 -6 -3 -7 rlinecurve
          endchar
        </CharString>
        <CharString name="abrevehookabove">
          92 callsubr
          337 -37 callgsubr
          -19 166 -107 callgsubr
        </CharString>
        <CharString name="abrevetilde">
          92 callsubr
          175 104 callgsubr
          96 107 hintmask 11000100
          -105 callgsubr
          hintmask 00111000
          22 callsubr
          56 174 -106 callgsubr
        </CharString>
        <CharString name="acaron">
          29 callgsubr
          207 -100 callsubr
          267 582 -42 callgsubr
        </CharString>
        <CharString name="acircumflex">
          29 callgsubr
          207 -100 callsubr
          227 419 -49 callsubr
          endchar
        </CharString>
        <CharString name="acircumflexacute">
          29 callgsubr
          366 -100 callsubr
          225 422 -63 callgsubr
        </CharString>
        <CharString name="acircumflexdotbelow">
          29 callgsubr
          207 -20 hstemhm
          96 107 vstemhm
          -105 callgsubr
          227 419 -49 callsubr
          -240 -610 -91 callgsubr
        </CharString>
        <CharString name="acircumflexgrave">
          29 callgsubr
          164 -100 callsubr
          225 422 -82 callsubr
          15 236 -67 callgsubr
        </CharString>
        <CharString name="acircumflexhookabove">
          29 callgsubr
          381 -100 callsubr
          225 422 -82 callsubr
          124 312 -107 callgsubr
        </CharString>
        <CharString name="acircumflextilde">
          29 callgsubr
          219 104 callgsubr
          96 107 hintmask 11000100
          -105 callgsubr
          hintmask 00111000
          225 422 -82 callsubr
          95 320 -106 callgsubr
        </CharString>
        <CharString name="acute">
          591 523 89 callgsubr
          596 651 -89 callgsubr
        </CharString>
        <CharString name="acute.cap">
          591 530 125 callsubr
          hstem
          607 619 -104 callsubr
        </CharString>
        <CharString name="acute.dup">
          591 523 89 callgsubr
          596 651 -89 callgsubr
        </CharString>
        <CharString name="acute.ts1">
          591 524 -21 196 94 callgsubr
          609 652 rmoveto
          23 -17 25 -29 vhcurveto
          hintmask 11000000
          -3 -2 -1 -3 hhcurveto
          -25 -4 -17 -20 -18 -17 -80 -75 rcurveline
          -13 -12 -28 -19 -16 vvcurveto
          -11 13 -22 15 vhcurveto
          7 1 6 4 6 3 33 19 rcurveline
          94 55 rlineto
          27 15 34 16 36 vvcurveto
          endchar
        </CharString>
        <CharString name="adblgrave">
          -35 callgsubr
          72 -21 196 -100 callsubr
          18 430 -97 callsubr
        </CharString>
        <CharString name="adieresis">
          -35 callgsubr
          83 132 hstemhm
          96 107 hintmask 11010000
          -105 callgsubr
          hintmask 00100000
          15 513 -47 callgsubr
        </CharString>
        <CharString name="adotbelow">
          -35 callgsubr
          hstemhm
          96 107 vstemhm
          -105 callgsubr
          -36 -213 -91 callgsubr
        </CharString>
        <CharString name="ae">
          827 8 callgsubr
          hstem
          89 113 560 65 vstem
          -55 callgsubr
          endchar
        </CharString>
        <CharString name="ae.dup">
          827 8 callgsubr
          hstem
          89 113 560 65 vstem
          -55 callgsubr
          endchar
        </CharString>
        <CharString name="aeacute">
          827 8 callgsubr
          71 56 callgsubr
          89 113 560 65 hintmask 11100110
          -55 callgsubr
          hintmask 00011000
          256 285 -89 callgsubr
        </CharString>
        <CharString name="agrave">
          -35 callgsubr
          71 -21 197 -100 callsubr
          123 435 -68 callsubr
        </CharString>
        <CharString name="ahookabove">
          -35 callgsubr
          69 -21 202 -100 callsubr
          182 533 -107 callgsubr
        </CharString>
        <CharString name="amacron">
          -35 callgsubr
          124 50 hstemhm
          96 107 hintmask 11010000
          -105 callgsubr
          hintmask 00100000
          262 508 -76 callgsubr
        </CharString>
        <CharString name="ampersand">
          886 -17 36 287 36 91 36 206 36 hstem
          141 115 211 122 186 122 vstem
          834 298 rmoveto
          73 -31 49 -27 40 vhcurveto
          108 83 13 91 13 vvcurveto
          32 -25 15 -25 -38 -34 -33 -39 -25 15 -15 23 -6 vhcurveto
          -36 -57 -43 -25 -37 -20 rrcurveto
          -71 -41 -72 -40 -73 vvcurveto
          -49 41 -35 53 48 26 40 32 24 -16 23 -34 -41 -21 -35 0 vhcurveto
          2 27 11 20 32 23 21 14 38 18 12 7 rrcurveto
          50 -72 1 -42 -23 vvcurveto
          -47 -24 -107 -88 -64 vhcurveto
          -38 -54 -76 -17 -87 hhcurveto
          -122 -70 41 95 49 20 72 18 47 hvcurveto
          -7 15 32 -10 33 hhcurveto
          76 33 57 42 38 -24 26 -52 -8 -32 0 -16 -41 hvcurveto
          110 20 34 112 79 hhcurveto
          26 31 -12 -36 13 hvcurveto
          -43 -8 -19 -33 -29 vvcurveto
          -38 31 -8 18 29 44 21 65 66 -53 48 -77 -150 -85 -150 -111 -10 2 -27 8 -21 vhcurveto
          -62 -62 -31 -94 -55 vvcurveto
          -111 90 -87 213 383 7 289 26 vhcurveto
          -405 115 rmoveto
          -36 -19 -35 -33 -18 -25 9 30 -10 vhcurveto
          39 30 31 13 22 hhcurveto
          22 0 -13 -7 hvcurveto
          endchar
        </CharString>
        <CharString name="anglearc">
          886 -81 -21 706 -20 hstem
          916 472 rmoveto
          5 21 -17 14 -21 -7 -139 -43 rcurveline
          -8 48 -15 46 -22 42 rrcurveto
          7 -4 -7 4 -10 hhcurveto
          -17 -16 -13 -17 -5 hvcurveto
          -1 -7 1 -6 2 -6 20 -36 13 -40 7 -42 -503 -158 rcurveline
          -13 -4 -11 -11 -3 -13 -4 -13 6 -11 11 -4 424 -158 rcurveline
          -28 -42 -33 -40 -38 -36 -5 -6 -4 -6 -2 -7 rrcurveto
          -17 -4 10 -13 16 hhcurveto
          10 10 4 7 7 hvcurveto
          43 42 38 46 32 48 117 -43 rcurveline
          18 -7 24 14 5 21 3 13 -5 11 -11 4 -118 44 rcurveline
          26 48 19 50 13 51 12 51 6 50 -1 48 139 44 rcurveline
          13 4 11 11 4 13 rrcurveto
          -244 -221 rmoveto
          -11 -44 -17 -43 -22 -42 -347 129 rcurveline
          412 129 1 -42 -5 -43 -11 -44 rlinecurve
          endchar
        </CharString>
        <CharString name="angleleft">
          473 -229 -21 1000 -20 hstem
          563 720 rmoveto
          16 -14 14 -17 vhcurveto
          -5 hlineto
          -20 -3 -10 -24 -9 -16 -80 -128 rcurveline
          -138 -222 -41 -65 rlineto
          -7 -13 -13 -13 -16 vvcurveto
          -7 2 -7 1 -7 vhcurveto
          5 -46 46 -374 rlineto
          -22 3 -2 -37 33 hhcurveto
          21 10 19 16 11 -3 12 -1 10 hvcurveto
          -44 358 -6 44 rlineto
          6 -2 8 6 vvcurveto
          3 vlineto
          1 4 4 4 2 4 14 22 rcurveline
          246 396 rlineto
          9 13 15 18 16 vvcurveto
          endchar
        </CharString>
        <CharString name="angleright">
          473 -229 -21 1000 94 callgsubr
          388 254 rmoveto
          7 -1 7 -1 7 vhcurveto
          -6 49 -46 372 rlineto
          21 -2 0 34 -32 hhcurveto
          hintmask 11000000
          -5 -1 rlineto
          -17 -8 -20 -13 -10 3 -10 1 -9 hvcurveto
          43 -358 6 -48 rlineto
          1 -5 2 -8 -6 vvcurveto
          -7 -4 -6 -4 -5 vhcurveto
          -13 -21 -243 -391 rlineto
          -10 -16 -17 -19 -17 vvcurveto
          -16 13 -15 17 22 10 24 16 11 vhcurveto
          261 420 rlineto
          8 14 11 13 17 vvcurveto
          endchar
        </CharString>
        <CharString name="aogonek">
          591 53 callgsubr
          hstem
          96 107 vstem
          -34 callgsubr
          endchar
        </CharString>
        <CharString name="aogonekacute">
          591 53 callgsubr
          71 56 callgsubr
          96 107 hintmask 11100100
          -34 callgsubr
          hintmask 00011000
          220 551 -89 callgsubr
        </CharString>
        <CharString name="aring">
          -35 callgsubr
          82 41 86 41 hstemhm
          96 107 128 127 callsubr
          hintmask 11001000
          -105 callgsubr
          hintmask 00110110
          131 537 -48 callsubr
        </CharString>
        <CharString name="aringacute">
          -35 callgsubr
          82 115 callgsubr
          hstemhm
          96 107 128 127 callsubr
          hintmask 11000100
          -105 callgsubr
          hintmask 00111011
          131 537 -69 callgsubr
          56 211 -104 callsubr
        </CharString>
        <CharString name="asciicircum">
          556 583 -21 hstem
          707 584 rmoveto
          -243 160 -323 -160 6 -22 301 123 242 -123 rlineto
          endchar
        </CharString>
        <CharString name="asciitilde">
          556 193 43 28 43 hstem
          627 290 7 callgsubr
        </CharString>
        <CharString name="asciitilde.low">
          556 0 43 28 43 hstem
          579 97 7 callgsubr
        </CharString>
        <CharString name="asterisk">
          591 327 -21 444 -20 hstem
          604 450 rmoveto
          11 -3 9 -17 7 vhcurveto
          -119 51 143 51 rlineto
          12 4 28 10 33 vvcurveto
          26 -18 9 -14 -12 -5 -4 -7 -11 vhcurveto
          -133 -89 56 141 rlineto
          6 13 0 2 4 vvcurveto
          15 -13 14 -21 -4 -44 0 -52 -5 vhcurveto
          -13 -137 -86 87 rlineto
          13 -13 -6 0 -7 hhcurveto
          -24 -30 -26 -29 -11 3 -9 17 -7 hvcurveto
          119 -51 -143 -51 rlineto
          -12 -4 -28 -10 -33 vvcurveto
          -26 18 -9 14 11 2 0 19 28 vhcurveto
          68 45 -32 -19 84 54 -56 -140 rcurveline
          -6 -13 0 -2 -4 vvcurveto
          -15 13 -14 21 4 44 0 52 5 vhcurveto
          13 137 86 -87 rlineto
          -13 13 6 0 7 hhcurveto
          24 30 26 29 hvcurveto
          endchar
        </CharString>
        <CharString name="asterisk.math">
          591 50 -21 444 -20 hstem
          535 174 rmoveto
          14 -11 6 -11 6 vhcurveto
          -21 9 -21 10 -22 9 -21 9 rlinecurve
          -10 5 -12 3 -9 7 14 3 14 6 13 5 66 24 rcurveline
          37 11 37 10 39 vvcurveto
          17 -10 17 -23 -16 -14 -12 -9 -13 vhcurveto
          -116 -78 15 41 17 40 17 40 rlinecurve
          4 11 8 14 13 vvcurveto
          18 -16 10 -15 1 vhcurveto
          -3 hlineto
          -18 -18 -10 -15 -9 hvcurveto
          -10 -15 2 -21 -2 -17 -3 -36 -3 -38 -5 -36 -69 70 rcurveline
          12 -12 -11 17 -20 hhcurveto
          -30 -24 -35 -21 -14 11 -6 11 -6 hvcurveto
          21 -9 21 -10 22 -9 21 -9 rlinecurve
          10 -5 12 -3 9 -7 -14 -3 -14 -6 -13 -5 -66 -24 rcurveline
          -37 -11 -37 -10 -39 vvcurveto
          -17 10 -17 23 16 14 12 9 13 vhcurveto
          116 78 -15 -41 -17 -40 -17 -40 rlinecurve
          -4 -11 -8 -14 -13 vvcurveto
          -18 16 -10 15 -1 vhcurveto
          3 hlineto
          18 18 10 15 9 hvcurveto
          10 15 -2 21 2 17 3 36 3 38 5 36 69 -70 rcurveline
          -12 12 11 -17 20 hhcurveto
          30 24 35 21 hvcurveto
          endchar
        </CharString>
        <CharString name="at">
          886 -8 36 63 36 0 36 368 36 99 36 hstemhm
          164 55 90 102 430 55 hintmask 11001101
          815 77 rmoveto
          14 -12 0 -16 vhcurveto
          -20 hlineto
          -16 -2 0 -6 -16 hvcurveto
          -35 -90 -95 -22 -97 hhcurveto
          -149 -83 79 136 184 139 239 255 128 100 -66 -149 hvcurveto
          hintmask 10111111
          -41 -34 -247 -89 -7 -7 3 18 18 32 120 2 9 vhcurveto
          5 18 29 110 9 vvcurveto
          14 -12 0 -16 vhcurveto
          -29 hlineto
          65 -23 -60 20 -52 hhcurveto
          -175 -96 -160 -122 -109 77 -49 91 55 42 20 23 34 hvcurveto
          -43 26 62 0 12 hhcurveto
          142 46 242 79 169 -117 85 -165 -287 -163 -246 -209 -169 113 -86 172 192 166 73 0 hvcurveto
          8 3 0 9 0 vvcurveto
          -205 169 rmoveto
          -36 -9 -64 -47 -55 hhcurveto
          -66 -5 74 24 94 63 176 106 25 44 -11 -51 16 hvcurveto
          endchar
        </CharString>
        <CharString name="atilde">
          -35 callgsubr
          89 58 3 58 -102 callgsubr
          257 542 -106 callgsubr
        </CharString>
        <CharString name="b">
          119 callsubr
          112 96 222 107 vstem
          537 59 callgsubr
          59 236 rlineto
          -83 callsubr
          -103 -415 7 callsubr
        </CharString>
        <CharString name="backslash">
          575 750 -20 hstem
          455 -219 rmoveto
          2 6 -1 1 -2 13 -147 919 rcurveline
          17 -3 -1 13 -21 hhcurveto
          -14 -19 -11 -20 -5 hvcurveto
          -2 -6 1 -1 2 -13 147 -919 rcurveline
          -15 2 3 -15 21 hhcurveto
          14 18 11 20 5 hvcurveto
          endchar
        </CharString>
        <CharString name="baht">
          817 0 47 292 36 264 47 hstem
          699 132 vstem
          778 225 rmoveto
          85 -70 41 -80 7 vhcurveto
          137 26 66 87 79 vvcurveto
          95 -87 41 -105 vhcurveto
          -43 hlineto
          12 48 rlineto
          84 callgsubr
          -13 -14 -11 -13 -3 hvcurveto
          -12 -48 rlineto
          -289 -2 callsubr
          280 hlineto
          -12 -48 rlineto
          46 callgsubr
          14 13 11 13 3 hvcurveto
          12 48 rlineto
          72 hlineto
          190 92 131 94 hvcurveto
          -79 332 rmoveto
          -76 -54 -106 -119 vhcurveto
          -8 hlineto
          66 264 rlineto
          32 hlineto
          20 63 0 -82 hvcurveto
          -229 -182 rmoveto
          -83 hlineto
          108 callsubr
          15 4 1 1 31 hhcurveto
          51 hlineto
          107 -394 rmoveto
          -79 -47 -119 -126 vhcurveto
          -34 hlineto
          73 292 rlineto
          43 hlineto
          23 68 0 -94 hvcurveto
          -255 -198 rmoveto
          -59 hlineto
          -9 -7 0 1 -7 hvcurveto
          72 291 rlineto
          83 hlineto
          endchar
        </CharString>
        <CharString name="bar">
          319 750 -20 hstem
          139 -206 rmoveto
          12 callgsubr
          endchar
        </CharString>
        <CharString name="bigcircle">
          -54 callgsubr
          endchar
        </CharString>
        <CharString name="blanksymbol">
          119 callsubr
          112 96 222 107 vstem
          537 59 callgsubr
          32 127 108 76 6 4 5 7 2 7 rlinecurve
          84 callgsubr
          -6 -6 -2 -4 -5 hvcurveto
          -71 -49 12 46 rlineto
          -83 callsubr
          -28 -115 -82 -57 78 callsubr
          44 30 -59 -237 7 callsubr
        </CharString>
        <CharString name="braceleft">
          575 438 -232 rmoveto
          3 13 -4 4 -11 1 -83 5 -28 35 -3 36 -1 10 2 8 4 17 60 237 rcurveline
          9 42 -19 51 -80 23 127 32 17 69 11 45 53 210 rcurveline
          5 22 7 29 47 29 12 7 34 18 53 3 14 1 8 0 4 17 rrcurveto
          18 5 -9 0 -22 hhcurveto
          -142 -103 -50 -77 -20 hvcurveto
          -52 -206 -15 -62 -5 -21 -41 -29 rlinecurve
          -28 -21 -38 -14 -42 -2 -14 -1 -8 0 -4 -17 -4 -13 4 -4 12 -1 rrcurveto
          89 -5 25 -45 -36 vvcurveto
          -8 -1 -2 -9 -37 vhcurveto
          -53 -210 rlineto
          -128 -32 164 -11 67 hhcurveto
          22 9 0 18 4 hvcurveto
          endchar
        </CharString>
        <CharString name="braceright">
          575 559 250 rmoveto
          3 13 -4 4 -12 1 -63 3 -46 26 -3 55 -1 8 1 2 9 39 53 210 rcurveline
          123 31 -148 16 -82 hhcurveto
          -21 -10 0 -18 -5 hvcurveto
          -3 -13 4 -4 12 -1 80 -4 32 -33 3 -39 rrcurveto
          -10 -2 -8 -4 -17 vhcurveto
          -59 -237 -10 -42 19 -50 81 -24 rlinecurve
          -127 -32 -17 -68 -12 -46 -52 -210 rcurveline
          -6 -23 -7 -26 -44 -29 -12 -7 -36 -20 -54 -3 -15 -1 -8 0 -4 -17 rrcurveto
          -18 -4 10 0 21 hhcurveto
          150 96 54 73 19 hvcurveto
          52 206 16 65 4 17 42 31 rlinecurve
          14 11 38 22 54 3 14 1 8 0 5 17 rrcurveto
          endchar
        </CharString>
        <CharString name="bracketleft">
          356 -250 61 878 61 hstem
          89 161 vstem
          242 -241 rmoveto
          2 5 6 23 6 vvcurveto
          -40 callsubr
          -57 hlineto
          220 878 rlineto
          66 hlineto
          17 7 0 10 5 hvcurveto
          2 3 7 25 5 vvcurveto
          -40 callsubr
          -91 hlineto
          -23 -5 0 -23 -6 hvcurveto
          -236 -943 rlineto
          -1 -5 -2 -6 -5 97 callsubr
          91 hlineto
          17 8 0 9 5 hvcurveto
          endchar
        </CharString>
        <CharString name="bracketright">
          356 -250 61 878 61 hstem
          231 161 vstem
          389 716 rmoveto
          1 5 2 6 5 vvcurveto
          -40 callsubr
          -91 hlineto
          -17 -8 0 -9 -5 hvcurveto
          -2 -5 -6 -23 -6 97 callsubr
          57 hlineto
          -220 -878 rlineto
          -66 hlineto
          -17 -7 0 -10 -5 hvcurveto
          -2 -3 -7 -25 -5 97 callsubr
          91 hlineto
          23 5 0 23 6 hvcurveto
          endchar
        </CharString>
        <CharString name="breve">
          591 511 123 callgsubr
          628 672 -102 callsubr
          endchar
        </CharString>
        <CharString name="breve.cap">
          591 509 123 callgsubr
          628 670 -102 callsubr
          endchar
        </CharString>
        <CharString name="breve.ts1">
          709 521 59 114 -20 21 -20 hstemhm
          297 36 hintmask 10110000
          746 671 rmoveto
          4 vlineto
          10 -6 9 -10 1 vhcurveto
          -1 hlineto
          -17 -2 -21 -12 -6 hvcurveto
          -72 -35 -113 -10 -62 hhcurveto
          -40 -121 4 70 hvcurveto
          4 vlineto
          1 5 2 7 6 vvcurveto
          hintmask 11010000
          10 -8 8 -10 vhcurveto
          -4 hlineto
          -15 -3 -1 -19 -1 -13 rrcurveto
          -9 vlineto
          -97 110 -32 83 92 142 42 108 22 vhcurveto
          endchar
        </CharString>
        <CharString name="brokenbar">
          319 750 -20 hstem
          367 706 rmoveto
          14 3 8 30 -30 hhcurveto
          -31 -8 -29 -15 -3 hvcurveto
          -92 -365 rlineto
          -14 -3 12 -10 16 hhcurveto
          16 17 10 14 3 hvcurveto
          -136 -547 rmoveto
          91 365 rlineto
          14 3 -12 10 -16 hhcurveto
          -16 -17 -10 -14 -3 hvcurveto
          -91 -365 rlineto
          25 callsubr
          endchar
        </CharString>
        <CharString name="bullet">
          886 72 314 63 callsubr
          endchar
        </CharString>
        <CharString name="c">
          532 98 callsubr
          107 109 192 122 vstem
          -56 callsubr
          endchar
        </CharString>
        <CharString name="cacute">
          532 -45 callgsubr
          71 56 callgsubr
          107 109 192 122 hintmask 11001100
          -56 callsubr
          hintmask 00110000
          57 565 -89 callgsubr
        </CharString>
        <CharString name="caron">
          591 81 callgsubr
          643 682 -42 callgsubr
        </CharString>
        <CharString name="caron.cap">
          99 callsubr
          164 -20 hstem
          630 638 -46 callgsubr
        </CharString>
        <CharString name="caron.ts1">
          709 554 -21 170 94 callgsubr
          735 669 rmoveto
          13 -8 22 -15 -10 -21 -12 -7 -14 vhcurveto
          -119 -52 -31 -14 rlineto
          -2 -4 -5 -2 -4 hhcurveto
          -2 hlineto
          -5 1 -5 3 -4 3 -24 13 rcurveline
          -37 21 -35 22 -37 20 rrcurveto
          2 -5 -5 4 -5 hhcurveto
          hintmask 11000000
          -4 -1 rlineto
          -11 -2 -18 -21 -13 vvcurveto
          -16 33 -16 15 -10 vhcurveto
          120 -85 rlineto
          -4 5 6 -3 6 hhcurveto
          2 hlineto
          19 2 28 22 23 11 113 59 rcurveline
          19 10 39 11 21 vvcurveto
          endchar
        </CharString>
        <CharString name="ccaron">
          532 -45 callgsubr
          66 115 callsubr
          hstemhm
          107 109 192 122 hintmask 11001100
          -56 callsubr
          hintmask 00110000
          104 596 -42 callgsubr
        </CharString>
        <CharString name="ccedilla">
          532 98 callsubr
          107 109 192 122 vstem
          -1 callsubr
          -55 -31 31 57 39 28 122 27 52 hvcurveto
          72 39 62 15 30 hhcurveto
          11 27 -1 -20 19 hvcurveto
          -50 -18 -1 -46 -3 vvcurveto
          -15 8 -31 42 42 30 35 43 49 -44 43 -83 -190 -106 -162 -130 -69 33 -71 96 -21 vhcurveto
          -26 -106 35 callgsubr
          11 45 29 3 35 5 32 12 rlinecurve
          54 21 39 39 12 vvcurveto
          endchar
        </CharString>
        <CharString name="ccircumflex">
          532 -45 callgsubr
          66 115 callsubr
          hstemhm
          107 109 192 122 hintmask 11001100
          -56 callsubr
          hintmask 00110000
          64 433 -49 callsubr
          endchar
        </CharString>
        <CharString name="cdotaccent">
          532 -45 callgsubr
          75 147 hstemhm
          107 109 192 122 hintmask 11011000
          -56 callsubr
          hintmask 00100000
          -17 528 -91 callgsubr
        </CharString>
        <CharString name="cedilla">
          532 -200 56 37 56 0 56 hstemhm
          hintmask 00100000
          395 -125 rmoveto
          47 12 -45 27 -53 hhcurveto
          14 56 rlineto
          -112 hlineto
          hintmask 11000000
          -28 -112 -4 callsubr
          endchar
        </CharString>
        <CharString name="cedilla.dup">
          532 -200 56 37 56 0 56 hstemhm
          hintmask 00100000
          395 -125 rmoveto
          47 12 -45 27 -53 hhcurveto
          14 56 rlineto
          -112 hlineto
          hintmask 11000000
          -28 -112 -4 callsubr
          endchar
        </CharString>
        <CharString name="cent">
          51 callgsubr
          -57 -64 -74 -15 -37 -3 96 386 rcurveline
          13 -3 14 -5 12 -12 rrcurveto
          -50 -18 -1 -46 -3 vvcurveto
          -15 8 -31 42 42 30 35 43 44 -35 38 -66 8 vhcurveto
          11 42 rlineto
          14 3 -8 10 -13 hhcurveto
          -13 -14 -10 -14 -3 hvcurveto
          -10 -41 rlineto
          -177 -11 -98 -155 -125 vvcurveto
          -75 40 -79 120 -12 vhcurveto
          -10 -42 rlineto
          -13 -4 8 -11 14 hhcurveto
          13 13 11 13 4 hvcurveto
          10 40 30 1 52 4 46 17 rlinecurve
          54 21 39 39 12 vvcurveto
          -164 326 rmoveto
          -96 -381 rlineto
          -39 8 -21 30 47 vvcurveto
          39 28 122 27 52 vhcurveto
          28 53 41 22 32 8 rrcurveto
          endchar
        </CharString>
        <CharString name="cent.oldstyle">
          51 callgsubr
          -83 -74 -101 0 -15 hhcurveto
          -14 -12 2 4 -11 hvcurveto
          143 299 rlineto
          -5 vlineto
          -15 8 -31 42 42 30 35 43 36 -23 32 -45 15 vhcurveto
          20 44 rlineto
          15 8 -8 14 -16 hhcurveto
          -11 -11 -7 -11 -6 hvcurveto
          -22 -46 rlineto
          -13 hlineto
          -190 -106 -162 -130 -60 25 -62 71 -29 hvcurveto
          -24 -52 rlineto
          -15 -7 7 -14 16 hhcurveto
          11 12 8 11 5 hvcurveto
          24 49 rlineto
          -2 16 18 -2 20 hhcurveto
          26 62 2 20 54 hvcurveto
          54 21 39 39 12 vvcurveto
          -137 330 rmoveto
          -170 -354 rlineto
          -8 14 -5 18 22 vvcurveto
          39 28 122 27 52 vhcurveto
          38 70 59 16 31 1 rrcurveto
          endchar
        </CharString>
        <CharString name="centigrade">
          1062 -21 47 426 61 112 62 -25 47 hstemhm
          398 135 hintmask 10011000
          1085 449 rmoveto
          51 206 rlineto
          3 12 6 15 13 vvcurveto
          10 -8 4 -10 -12 -7 -7 -7 -9 vhcurveto
          -29 -23 -13 -10 -14 -10 -11 -12 rlinecurve
          47 -47 -54 22 -67 hhcurveto
          -213 -185 -146 -213 -54 hvcurveto
          -9 -36 -5 -36 -36 vvcurveto
          -65 19 -70 47 -47 vhcurveto
          -62 60 91 -19 83 hhcurveto
          132 131 88 118 53 hvcurveto
          7 14 9 20 15 vvcurveto
          2 vlineto
          12 -1 -10 1 -10 hhcurveto
          -14 hlineto
          -24 1 -25 -25 -11 hvcurveto
          -96 -41 -100 -77 -107 hhcurveto
          -93 -87 52 121 38 7 38 9 38 hvcurveto
          31 143 57 157 181 42 rrcurveto
          4 19 21 3 20 hhcurveto
          103 44 -87 -87 hvcurveto
          -15 -4 -14 -15 vvcurveto
          -13 9 -5 12 vhcurveto
          5 hlineto
          20 11 1 22 7 hvcurveto
          -674 146 rmoveto
          hintmask 01100000
          48 -31 44 -71 vhcurveto
          -10 hlineto
          -72 -12 -58 -50 -81 vvcurveto
          -45 28 -47 73 vhcurveto
          10 hlineto
          75 13 56 48 82 vvcurveto
          -62 -8 rmoveto
          -40 -5 -32 -34 -43 hhcurveto
          -23 -16 9 28 hvcurveto
          42 5 32 33 45 hhcurveto
          19 19 -7 -24 hvcurveto
          endchar
        </CharString>
        <CharString name="circumflex">
          591 81 callgsubr
          603 519 -49 callsubr
          endchar
        </CharString>
        <CharString name="circumflex.cap">
          99 callsubr
          164 -20 hstem
          601 524 -36 callgsubr
        </CharString>
        <CharString name="circumflex.dup">
          591 81 callgsubr
          603 519 -49 callsubr
          endchar
        </CharString>
        <CharString name="colon">
          356 0 147 150 147 hstemhm
          122 150 -76 150 hintmask 11010000
          70 callgsubr
          -74 -296 rmoveto
          35 -25 24 -36 vhcurveto
          hintmask 10100000
          -41 -48 -38 -50 -41 31 -18 29 45 45 41 47 hvcurveto
          endchar
        </CharString>
        <CharString name="colonmonetary">
          827 656 47 hstem
          85 callgsubr
          vstem
          849 446 rmoveto
          56 224 rlineto
          4 15 0 4 0 vvcurveto
          14 -12 0 -15 vhcurveto
          -86 -68 -49 53 -58 12 -35 2 rlinecurve
          8 32 rlineto
          13 4 -9 11 -13 hhcurveto
          -13 -13 -11 -13 -4 hvcurveto
          -8 -32 rlineto
          -279 -12 -164 -239 -206 vvcurveto
          -178 127 -73 137 -10 vhcurveto
          -8 -32 rlineto
          -13 -4 8 -11 14 hhcurveto
          13 13 11 13 4 hvcurveto
          8 31 68 4 74 24 71 57 rlinecurve
          85 68 22 89 9 vvcurveto
          14 -12 callgsubr
          -15 -9 0 -9 -3 vhcurveto
          -47 -155 -128 -53 -79 -1 157 626 rcurveline
          1 hlineto
          99 46 -78 -94 hvcurveto
          -30 -3 -6 -7 vvcurveto
          -15 11 0 20 25 2 0 20 5 vhcurveto
          -255 206 rmoveto
          -155 -618 -31 5 -36 12 -28 26 rlinecurve
          -46 42 0 62 21 vvcurveto
          45 25 192 88 108 vhcurveto
          53 65 70 29 60 11 rrcurveto
          endchar
        </CharString>
        <CharString name="comma">
          356 0 147 hstem
          121 155 vstem
          276 67 rmoveto
          47 -22 33 -43 -55 -35 -50 -39 -24 14 -34 47 26 19 12 2 3 vhcurveto
          -27 -87 -60 -55 -37 -26 rrcurveto
          -16 -13 -1 -1 -6 vvcurveto
          -9 8 -11 10 23 146 130 131 vhcurveto
          endchar
        </CharString>
        <CharString name="copyleft">
          -54 callgsubr
          -131 -46 rmoveto
          100 50 -24 115 -138 hhcurveto
          -12 -36 0 -32 -46 hvcurveto
          -24 32 rlineto
          -7 -6 0 -7 -3 hvcurveto
          0 -1 -2 -2 -7 vhcurveto
          -26 -105 rlineto
          -9 -2 1 0 12 hhcurveto
          9 5 0 7 4 hvcurveto
          1 3 0 3 7 14 rrcurveto
          44 22 40 37 47 hhcurveto
          31 40 -12 -39 12 hvcurveto
          16 -51 -33 -90 -11 -21 -4 -10 -15 -29 -31 -20 rrcurveto
          -19 -31 -31 -3 -15 hhcurveto
          -37 -49 25 73 15 hvcurveto
          4 -4 0 -7 -7 -6 0 -6 -3 vhcurveto
          -2 -4 -11 -42 24 -32 rrcurveto
          -29 22 32 -11 34 hhcurveto
          69 86 33 90 45 hvcurveto
          endchar
        </CharString>
        <CharString name="copyright">
          -54 callgsubr
          -136 48 rmoveto
          26 105 rlineto
          2 7 0 2 0 vvcurveto
          7 -5 0 -7 vhcurveto
          -41 -32 rlineto
          32 -29 -37 0 -12 hhcurveto
          -138 -81 -115 -100 -90 69 -33 70 34 37 11 29 37 hvcurveto
          39 32 11 42 4 vvcurveto
          6 -6 0 -7 -7 -5 0 -4 -1 vhcurveto
          -73 -23 -61 -25 -37 hhcurveto
          -15 -29 3 19 -21 hvcurveto
          -21 20 0 29 10 vvcurveto
          21 11 90 42 51 vhcurveto
          39 32 45 12 32 hhcurveto
          46 22 -37 -44 hvcurveto
          -14 -1 -3 -3 vvcurveto
          -7 5 0 9 12 1 0 9 2 vhcurveto
          endchar
        </CharString>
        <CharString name="copyright.alt">
          746 -151 60 626 60 hstem
          136 88 vstem
          746 222 rmoveto
          229 -144 144 -229 -229 -144 -144 -229 -229 144 -144 229 229 144 144 229 vhcurveto
          -60 hmoveto
          -192 -121 -121 -192 -192 -121 121 192 192 121 121 192 192 121 -121 -192 vhcurveto
          -105 67 rmoveto
          36 145 rlineto
          3 10 0 2 0 vvcurveto
          9 -8 0 -10 vhcurveto
          -56 -44 rlineto
          44 -40 -51 0 -16 hhcurveto
          -191 -112 -159 -137 -125 96 -45 95 48 52 15 40 49 hvcurveto
          56 44 14 58 6 vvcurveto
          9 -9 0 -9 -10 -6 0 -6 -2 vhcurveto
          -102 -31 -84 -34 -51 hhcurveto
          -21 -41 4 27 -28 hvcurveto
          -30 27 0 40 14 vvcurveto
          29 16 124 57 70 vhcurveto
          55 45 63 16 43 hhcurveto
          64 30 -51 -60 hvcurveto
          -20 -2 -4 -4 vvcurveto
          -10 7 0 13 16 2 0 13 3 vhcurveto
          endchar
        </CharString>
        <CharString name="currency">
          886 13 60 -58 -20 432 60 20 -21 hstemhm
          hintmask 00010000
          700 7 rmoveto
          21 17 -12 15 -4 6 -47 62 rcurveline
          41 40 30 49 13 54 14 54 -6 51 -21 40 74 59 rcurveline
          10 7 28 23 -23 16 -23 16 -27 -22 -11 -8 -60 -48 rcurveline
          hintmask 00100000
          31 -32 -46 18 -54 hhcurveto
          -54 -54 -18 -30 -48 hvcurveto
          hintmask 01010000
          -35 47 -7 10 -1 1 -3 3 rlinecurve
          -16 11 -23 -7 -11 -9 -21 -17 11 -16 5 -6 45 -61 rcurveline
          -40 -40 -31 -51 -14 -54 -13 -54 5 -51 21 -40 -72 -57 rcurveline
          -12 -10 -26 -21 23 -16 23 -16 25 20 13 10 59 47 rcurveline
          hintmask 10100000
          -31 32 46 -18 54 hhcurveto
          54 55 18 31 48 hvcurveto
          38 -50 3 -6 3 -3 2 -1 rlinecurve
          13 -9 23 2 15 12 rrcurveto
          -18 243 rmoveto
          -98 -24 -99 -79 -98 hhcurveto
          -98 -59 79 98 24 hvcurveto
          98 25 99 79 98 hhcurveto
          97 60 -79 -98 -25 hvcurveto
          endchar
        </CharString>
        <CharString name="cwm">
          0 endchar
        </CharString>
        <CharString name="cwmascender">
          0 endchar
        </CharString>
        <CharString name="cwmcapital">
          0 endchar
        </CharString>
        <CharString name="d">
          61 callsubr
          hstem
          99 callgsubr
          vstem
          625 -82 callgsubr
          -53 -217 -57 callsubr
          endchar
        </CharString>
        <CharString name="dagger">
          511 388 111 203 -20 hstem
          558 443 106 callgsubr
          -37 -16 -9 -2 -14 -3 10 28 13 23 15 27 20 36 21 37 8 33 rrcurveto
          49 12 -34 10 -18 hhcurveto
          -22 -38 -13 -46 -11 hvcurveto
          -8 -33 2 -36 2 -32 1 -33 2 -23 -4 -27 -10 2 -10 3 -17 9 rrcurveto
          12 -21 -25 14 -27 77 callsubr
          37 16 9 2 14 3 -10 -27 -17 -28 -12 -20 -37 -64 -3 -15 -11 -43 -32 -129 -23 -130 -16 -128 -2 -16 -3 -28 2 -4 rrcurveto
          -7 1 8 0 9 hhcurveto
          11 10 0 11 6 hvcurveto
          5 12 82 208 53 211 11 46 3 12 -5 70 -2 21 -2 25 3 23 10 -2 10 -3 17 -9 rrcurveto
          -12 21 25 -14 27 hhcurveto
          41 24 30 25 6 hvcurveto
          endchar
        </CharString>
        <CharString name="daggerdbl">
          511 -32 111 342 110 171 -20 hstem
          566 476 rmoveto
          28 7 -12 27 -37 hhcurveto
          -18 -25 -6 -12 -27 hvcurveto
          -35 -15 -7 -2 -18 -4 8 18 3 8 21 33 21 34 18 31 7 28 rrcurveto
          44 11 -30 14 -21 hhcurveto
          -26 -34 -16 -42 -11 hvcurveto
          -8 -31 5 -36 4 -27 3 -33 0 -6 -2 -19 -14 4 -6 1 -16 9 rrcurveto
          12 -21 -25 13 -28 hhcurveto
          -37 -26 -27 -28 -7 hvcurveto
          -13 -3 -5 -42 51 hhcurveto
          13 16 0 24 55 hvcurveto
          23 10 5 1 17 4 -7 -18 -3 -8 -22 -33 -21 -34 -18 -31 -7 -28 105 callgsubr
          8 31 -5 36 -3 27 -4 33 0 6 2 19 14 -4 6 -1 17 -9 rrcurveto
          -21 36 16 -4 20 hhcurveto
          51 17 42 13 3 hvcurveto
          -113 -453 106 callgsubr
          -31 -13 -13 -4 -15 -4 8 20 2 6 27 44 23 36 13 25 5 21 rrcurveto
          44 11 -31 14 -21 hhcurveto
          -26 -34 -16 -42 -10 hvcurveto
          -7 -28 3 -31 4 -30 4 -37 0 -7 -2 -19 -12 3 -10 4 -13 8 rrcurveto
          12 -23 -25 13 -26 77 callsubr
          24 10 18 7 17 4 -8 -20 -2 -6 -27 -44 -23 -36 -13 -25 -5 -21 105 callgsubr
          7 28 -3 31 -4 30 -4 37 0 7 2 19 17 -5 13 -7 21 -10 rrcurveto
          -9 15 22 -9 21 hhcurveto
          41 24 30 25 6 hvcurveto
          endchar
        </CharString>
        <CharString name="dblbracketleft">
          488 -249 61 878 61 hstem
          617 732 rmoveto
          13 -11 6 -11 vhcurveto
          -240 hlineto
          -21 -3 -9 -18 -5 hvcurveto
          -236 -943 rlineto
          -1 -4 -1 -3 -4 vvcurveto
          -16 13 -3 12 vhcurveto
          239 hlineto
          24 6 23 19 10 -7 9 -16 hvcurveto
          -66 hlineto
          5 15 3 16 4 16 193 772 rcurveline
          17 4 3 42 19 hhcurveto
          65 hlineto
          23 5 29 13 hvcurveto
          -166 -44 71 callgsubr
        </CharString>
        <CharString name="dblbracketright">
          488 -249 61 878 61 hstem
          523 721 rmoveto
          1 4 1 3 4 vvcurveto
          16 -13 3 -12 vhcurveto
          -238 hlineto
          -24 -6 -23 -19 -10 7 -9 16 hvcurveto
          65 hlineto
          -5 -15 -3 -16 -4 -16 -193 -772 rcurveline
          -17 -4 -3 -42 -19 hhcurveto
          -64 hlineto
          -23 -5 -29 -13 -13 11 -6 11 hvcurveto
          240 hlineto
          20 3 10 17 5 hvcurveto
          166 910 71 callgsubr
        </CharString>
        <CharString name="dblgrave.ts1">
          591 527 90 callgsubr
          hstem
          396 535 rmoveto
          24 callsubr
          176 hmoveto
          24 callsubr
          endchar
        </CharString>
        <CharString name="dblverticalbar">
          499 750 -20 hstem
          139 -206 rmoveto
          12 callgsubr
          180 hmoveto
          12 callgsubr
          endchar
        </CharString>
        <CharString name="dcaron">
          -35 callgsubr
          7 -21 146 110 -55 51 hstemhm
          99 callgsubr
          hintmask 11001110
          625 -82 callgsubr
          -53 -217 -57 callsubr
          396 534 rmoveto
          hintmask 00110000
          -91 callsubr
        </CharString>
        <CharString name="dcroat">
          -35 callgsubr
          69 48 70 51 hstem
          99 callgsubr
          vstem
          625 -65 callgsubr
          105 419 rlineto
          15 hlineto
          14 13 11 13 3 hvcurveto
          14 4 -8 10 -14 hhcurveto
          -15 hlineto
          23 91 rlineto
          -83 callsubr
          -17 -68 rlineto
          -123 hlineto
          -13 -13 -10 -14 -4 hvcurveto
          46 callgsubr
          124 hlineto
          -25 -101 -57 callsubr
          endchar
        </CharString>
        <CharString name="ddotbelow">
          591 -8 103 callgsubr
          vstemhm
          625 -82 callgsubr
          -53 -217 -57 callsubr
          -46 -213 -91 callgsubr
        </CharString>
        <CharString name="degree">
          443 392 60 174 60 hstem
          504 539 rmoveto
          81 20 -49 66 -82 hhcurveto
          -81 -83 -66 -81 -20 hvcurveto
          -81 -20 49 -66 82 hhcurveto
          81 82 66 81 21 hvcurveto
          -60 hmoveto
          -48 -12 -49 -39 -48 hhcurveto
          -49 -29 39 48 12 hvcurveto
          48 12 49 39 48 hhcurveto
          48 30 -39 -48 -12 hvcurveto
          endchar
        </CharString>
        <CharString name="diameter">
          886 -85 60 552 60 hstem
          941 573 rmoveto
          17 4 -10 13 -17 hhcurveto
          -8 -8 -3 -6 -7 hvcurveto
          -108 -86 rlineto
          49 -47 -68 30 -82 hhcurveto
          -186 -188 -150 -186 -46 hvcurveto
          -21 -82 11 -75 34 -58 -109 -87 rcurveline
          -7 -5 -5 -8 -2 -8 rrcurveto
          -17 -4 10 -13 17 hhcurveto
          8 8 3 6 7 hvcurveto
          109 86 rlineto
          -49 46 68 -29 82 hhcurveto
          185 188 150 186 47 hvcurveto
          20 81 -10 75 -34 58 109 87 rcurveline
          7 5 5 8 2 8 rrcurveto
          -159 -322 rmoveto
          -152 -38 -155 -124 -152 hhcurveto
          -66 -54 23 38 -38 hvcurveto
          486 387 25 -47 8 -60 -16 -65 rlinecurve
          -49 214 rmoveto
          -486 -387 -26 48 -8 60 17 65 rlinecurve
          152 38 154 124 153 hhcurveto
          66 54 -23 -39 38 hvcurveto
          endchar
        </CharString>
        <CharString name="died">
          591 -3 -21 361 63 -55 63 200 -20 hstemhm
          hintmask 00110000
          640 359 rmoveto
          2 8 5 12 10 vvcurveto
          13 -10 6 -10 -13 -13 -2 -1 -12 vhcurveto
          -155 -6 12 59 23 63 22 53 rlinecurve
          2 5 2 5 5 vvcurveto
          11 -7 7 -9 1 vhcurveto
          -62 hlineto
          -40 16 -46 -106 -24 hvcurveto
          hintmask 01000000
          -4 -19 -5 -18 -3 -19 rrcurveto
          -52 -52 3 4 -52 hvcurveto
          hintmask 00100000
          -4 -4 1 -4 hhcurveto
          -20 -8 -32 -20 hvcurveto
          hintmask 01000000
          -14 10 -5 10 vhcurveto
          hintmask 10100000
          54 54 8 54 hhcurveto
          -10 -33 -7 -32 -10 -33 -22 -81 -26 -77 -23 -80 rrcurveto
          -2 -5 -2 -6 -5 vvcurveto
          -15 15 -2 12 vhcurveto
          53 hlineto
          21 5 6 45 6 hvcurveto
          15 81 13 68 14 70 18 67 rlinecurve
          2 11 4 11 1 11 rrcurveto
          48 48 -3 -2 48 hvcurveto
          42 -3 rlineto
          hintmask 01000000
          4 4 -1 4 hhcurveto
          14 6 10 12 2 hvcurveto
          endchar
        </CharString>
        <CharString name="dieresis">
          591 535 132 hstem
          -35 callsubr
          endchar
        </CharString>
        <CharString name="dieresis.cap">
          591 499 132 hstem
          -4 callgsubr
          endchar
        </CharString>
        <CharString name="dieresis.dup">
          591 535 132 hstem
          -35 callsubr
          endchar
        </CharString>
        <CharString name="dieresis.ts1">
          591 560 136 hstem
          280 139 0 67 0 139 cntrmask 01110000
          419 639 rmoveto
          31 -21 26 -38 vhcurveto
          -7 hlineto
          -38 -5 -35 -35 -40 vvcurveto
          -33 26 -23 32 vhcurveto
          7 hlineto
          38 6 36 33 40 vvcurveto
          206 7 rmoveto
          30 -5 -23 20 -29 -3 -4 -1 -3 hhcurveto
          -39 -5 -33 -35 -39 vvcurveto
          -35 26 -21 30 46 37 41 45 vhcurveto
          endchar
        </CharString>
        <CharString name="discount">
          591 22 -21 561 171 17 -20 hstemhm
          299 175 -169 175 hintmask 10101000
          680 720 rmoveto
          16 -13 14 -17 vhcurveto
          -5 hlineto
          -19 -3 -10 -21 -11 -14 -83 -110 rcurveline
          -390 -514 rlineto
          -12 -17 -22 -19 -20 vvcurveto
          -16 12 -15 18 22 11 23 15 11 vhcurveto
          429 565 16 22 16 22 17 21 rlinecurve
          11 15 19 17 19 vvcurveto
          -200 -603 rmoveto
          -50 -45 -42 -48 -6 vhcurveto
          -7 hlineto
          -47 -28 34 39 50 44 43 48 6 hvcurveto
          8 hlineto
          46 29 -33 -41 hvcurveto
          -6 542 rmoveto
          hintmask 01010000
          -54 -52 -42 -49 -1 vhcurveto
          -4 hlineto
          -43 -27 37 37 53 49 43 50 1 hvcurveto
          6 hlineto
          44 26 -38 -36 hvcurveto
          endchar
        </CharString>
        <CharString name="divide">
          886 -57 147 130 61 130 147 hstem
          cntrmask 11100000
          858 250 24 callgsubr
          -219 249 25 callgsubr
          -117 -468 25 callgsubr
          endchar
        </CharString>
        <CharString name="divorced">
          591 -92 -21 142 71 302 71 142 -20 21 -20 hstemhm
          -127 70 283 62 140 61 -61 70 274 71 -70 70 hintmask 0110111011000000
          288 318 rmoveto
          74 -38 81 -119 vhcurveto
          -14 hlineto
          -149 -19 -95 -126 -141 vvcurveto
          -73 36 -85 123 vhcurveto
          14 hlineto
          149 13 93 142 134 vvcurveto
          555 -2 rmoveto
          78 -41 79 -121 vhcurveto
          -13 hlineto
          -135 -18 -75 -100 -24 -118 rrcurveto
          -4 -17 -2 -18 -18 vvcurveto
          -76 40 -79 116 vhcurveto
          13 hlineto
          151 12 95 138 137 vvcurveto
          -345 281 rmoveto
          18 -19 1 -13 vhcurveto
          hintmask 0001000000000000
          -11 -10 -1 -10 hhcurveto
          hintmask 1100100010000000
          -6 -6 1 -6 hhcurveto
          -4 -4 -1 -1 -4 hvcurveto
          -15 -4 1 -18 -2 -12 -2 -13 rcurveline
          -29 -179 -47 -174 -51 -173 -31 -100 rcurveline
          -7 -23 rlineto
          -1 -4 -2 -5 -4 vvcurveto
          -10 8 -7 9 -1 vhcurveto
          59 hlineto
          24 4 7 16 3 hvcurveto
          4 23 41 218 45 223 78 209 rlinecurve
          2 5 2 4 5 vvcurveto
          274 -290 rmoveto
          -95 -9 -45 -112 -125 hhcurveto
          hintmask 0010000100100000
          -50 -54 18 71 98 64 115 123 47 50 -18 -64 hvcurveto
          hintmask 0110011001000000
          -4 -1 -4 -5 vvcurveto
          -546 1 rmoveto
          -99 -9 -48 -109 -130 hhcurveto
          -48 -48 18 67 hvcurveto
          6 vlineto
          93 7 47 118 128 hhcurveto
          51 50 -18 -68 hvcurveto
          endchar
        </CharString>
        <CharString name="dlinebelow">
          591 -151 50 93 103 callgsubr
          hintmask 01111100
          625 -82 callgsubr
          -53 -217 -57 callsubr
          hintmask 10000000
          71 -219 -76 callgsubr
        </CharString>
        <CharString name="dollar">
          575 -35 -21 47 52 84 125 204 125 169 -20 hstem
          645 549 rmoveto
          9 107 -86 38 -82 5 12 51 rcurveline
          -47 hlineto
          -12 -51 -174 -9 -75 -138 -7 -83 rlinecurve
          -2 -29 5 -49 35 -39 39 -43 43 -8 34 -7 -62 -252 rcurveline
          -51 4 -59 18 -11 63 rrcurveto
          69 13 53 18 1 hvcurveto
          47 4 -40 7 -14 hhcurveto
          -72 -9 -79 -19 -1 hvcurveto
          -6 -68 29 -79 135 -12 -13 -51 rcurveline
          47 hlineto
          13 51 179 13 72 150 7 85 rlinecurve
          5 61 -21 39 -21 26 -35 42 -51 11 -27 6 56 224 rcurveline
          55 -3 52 -19 13 -49 rrcurveto
          -52 -26 -38 -34 -3 hvcurveto
          -41 -3 33 -12 21 hhcurveto
          53 24 44 49 4 hvcurveto
          -218 103 rmoveto
          -54 -214 -66 12 -33 35 4 44 rlinecurve
          4 49 46 64 99 10 rrcurveto
          47 -470 rmoveto
          -3 -42 -39 -86 -110 -11 61 240 rcurveline
          82 -15 12 -57 -3 -29 rrcurveto
          endchar
        </CharString>
        <CharString name="dollar.oldstyle">
          708 -35 -21 45 48 623 45 46 -20 hstemhm
          131 124 -44 92 281 92 -45 124 hintmask 00010100
          755 562 rmoveto
          89 -69 34 -66 13 vhcurveto
          4 10 4 14 11 vvcurveto
          5 vlineto
          11 -4 -10 2 -10 hhcurveto
          -23 -4 -26 -21 -3 hvcurveto
          -48 2 -39 -2 rlineto
          2 8 4 11 10 vvcurveto
          11 -6 7 -16 -38 19 -43 -11 -18 vhcurveto
          -8 -4 -11 -1 -9 -2 -85 -28 -73 -55 -28 -87 rrcurveto
          -6 -17 -3 -18 -17 vvcurveto
          -71 48 -50 83 -34 vhcurveto
          0 -66 -257 -1 -9 vhcurveto
          -43 13 -30 18 -14 51 rrcurveto
          hintmask 11001010
          34 5 33 25 38 vvcurveto
          35 -24 14 -25 -58 -14 -53 -41 -3 vhcurveto
          -12 vlineto
          -68 41 -41 55 -21 vhcurveto
          11 -5 12 -4 12 -1 rrcurveto
          -1 -12 -6 -11 -13 vvcurveto
          -15 11 -5 13 25 1 28 19 6 vhcurveto
          0 34 -2 13 13 13 1 2 12 vhcurveto
          -3 -8 -3 -10 -9 vvcurveto
          -5 vlineto
          -11 13 -5 10 27 0 24 31 7 vhcurveto
          8 2 6 2 6 2 rrcurveto
          107 30 102 95 118 vvcurveto
          66 -50 73 -78 21 vhcurveto
          61 244 37 -10 43 -23 7 -39 rlinecurve
          hintmask 00100101
          -35 -1 -30 -32 -35 vvcurveto
          -24 12 -18 29 -6 vhcurveto
          62 21 48 50 hvcurveto
          -192 97 rmoveto
          -60 -238 -82 20 54 215 rlineto
          0 44 4 11 11 12 0 -1 10 vhcurveto
          -186 -205 rmoveto
          0 -24 8 -7 5 vhcurveto
          -25 14 -18 22 27 vvcurveto
          67 75 31 46 19 vhcurveto
          160 -461 rmoveto
          -68 -66 -45 -58 -20 vhcurveto
          53 216 rlineto
          hintmask 01000010
          38 -11 33 -35 -37 vvcurveto
          -176 -146 rmoveto
          -2 -17 -17 -1 -17 hhcurveto
          -12 -12 1 1 -12 hvcurveto
          65 264 82 -20 rlineto
          endchar
        </CharString>
        <CharString name="dong">
          591 -48 48 hstem
          602 175 rmoveto
          14 -12 0 -14 -23 -1 -1 -24 -7 vhcurveto
          -31 -7 -17 -72 -33 hhcurveto
          -11 -7 8 22 18 2 7 4 16 hvcurveto
          100 398 rlineto
          14 hlineto
          14 12 10 12 3 hvcurveto
          14 3 -7 9 -13 hhcurveto
          -15 hlineto
          22 87 rlineto
          1 4 2 6 5 vvcurveto
          18 -17 -1 -13 -1 vhcurveto
          -117 -6 rlineto
          -11 -1 -19 0 -27 vvcurveto
          -17 17 0 9 11 17 -1 -1 12 vhcurveto
          -16 -65 rlineto
          -117 hlineto
          -12 -13 -9 -14 -3 hvcurveto
          -12 -4 8 -10 13 hhcurveto
          117 hlineto
          -24 -96 rlineto
          26 -30 -34 4 -22 hhcurveto
          -160 -95 -158 -127 -113 80 -39 72 58 45 30 19 23 hvcurveto
          -34 18 43 -15 37 hhcurveto
          44 24 32 19 12 hvcurveto
          25 40 12 53 4 vvcurveto
          -49 -199 rmoveto
          84 callgsubr
          -455 32 callgsubr
          455 hlineto
          13 14 11 13 3 hvcurveto
          -178 154 rmoveto
          -54 -40 -40 -15 -30 hhcurveto
          -22 -32 14 54 51 33 117 11 26 hvcurveto
          93 32 52 14 25 hhcurveto
          33 27 -21 -38 10 hvcurveto
          -56 -224 -2 -7 0 -3 -1 -7 rlinecurve
          endchar
        </CharString>
        <CharString name="dotaccent">
          356 527 147 hstem
          404 614 -91 callgsubr
        </CharString>
        <CharString name="dotaccent.alt">
          356 492 147 hstem
          395 579 -91 callgsubr
        </CharString>
        <CharString name="dotaccent.cap">
          356 499 147 hstem
          397 586 -91 callgsubr
        </CharString>
        <CharString name="dotlessi">
          33 callsubr
          hstem
          40 callsubr
          vstem
          390 148 -97 callgsubr
          endchar
        </CharString>
        <CharString name="dotlessj">
          83 callgsubr
          hstem
          -29 121 182 101 vstem
          -66 callsubr
          endchar
        </CharString>
        <CharString name="e">
          1 callgsubr
          hstem
          4 callgsubr
          vstem
          -101 callsubr
          endchar
        </CharString>
        <CharString name="eacute">
          1 callgsubr
          71 -21 197 -87 callgsubr
          hintmask 00011000
          100 294 -89 callgsubr
        </CharString>
        <CharString name="ebreve">
          1 callgsubr
          59 59 120 -87 callgsubr
          hintmask 00011000
          132 315 -102 callsubr
          endchar
        </CharString>
        <CharString name="ecaron">
          48 callgsubr
          207 -87 callgsubr
          hintmask 00011000
          147 325 -42 callgsubr
        </CharString>
        <CharString name="ecircumflex">
          48 callgsubr
          207 -87 callgsubr
          hintmask 00011000
          107 162 -49 callsubr
          endchar
        </CharString>
        <CharString name="ecircumflexacute">
          48 callgsubr
          366 -87 callgsubr
          hintmask 00011000
          105 165 -63 callgsubr
        </CharString>
        <CharString name="ecircumflexdotbelow">
          48 callgsubr
          207 -20 33 callgsubr
          vstemhm
          -101 callsubr
          107 162 -49 callsubr
          -241 -610 -91 callgsubr
        </CharString>
        <CharString name="ecircumflexgrave">
          48 callgsubr
          164 -87 callgsubr
          hintmask 00011010
          105 165 -82 callsubr
          15 236 -67 callgsubr
        </CharString>
        <CharString name="ecircumflexhookabove">
          48 callgsubr
          381 -87 callgsubr
          hintmask 00011000
          105 165 -82 callsubr
          124 312 -107 callgsubr
        </CharString>
        <CharString name="ecircumflextilde">
          48 callgsubr
          219 58 3 58 33 callgsubr
          hintmask 11100011
          -101 callsubr
          hintmask 00011100
          105 165 -82 callsubr
          95 320 -106 callgsubr
        </CharString>
        <CharString name="edblgrave">
          1 callgsubr
          72 -21 196 -87 callgsubr
          hintmask 00011000
          -102 173 -97 callsubr
        </CharString>
        <CharString name="edieresis">
          1 callgsubr
          83 132 33 callgsubr
          hintmask 11101100
          -101 callsubr
          hintmask 00010000
          -105 256 -47 callgsubr
        </CharString>
        <CharString name="edotaccent">
          1 callgsubr
          75 147 33 callgsubr
          hintmask 11101100
          -101 callsubr
          hintmask 00010000
          25 257 -91 callgsubr
        </CharString>
        <CharString name="edotbelow">
          1 callgsubr
          33 callgsubr
          vstemhm
          -101 callsubr
          -157 -470 -91 callgsubr
        </CharString>
        <CharString name="egrave">
          1 callgsubr
          71 -21 197 -87 callgsubr
          hintmask 00011010
          3 178 -68 callsubr
        </CharString>
        <CharString name="ehookabove">
          1 callgsubr
          69 -21 202 -87 callgsubr
          hintmask 00011000
          62 276 -107 callgsubr
        </CharString>
        <CharString name="eight">
          591 -17 43 596 39 hstem
          109 114 callsubr
          vstem
          567 -11 callsubr
        </CharString>
        <CharString name="eight.oldstyle">
          601 -17 43 596 39 hstemhm
          114 114 callsubr
          -24 75 hintmask 11110100
          572 -14 callsubr
        </CharString>
        <CharString name="eight.prop">
          601 -17 43 596 39 hstem
          114 114 callsubr
          vstem
          572 -11 callsubr
        </CharString>
        <CharString name="eight.taboldstyle">
          591 -17 43 596 39 hstemhm
          109 114 callsubr
          -24 75 hintmask 11110100
          567 -14 callsubr
        </CharString>
        <CharString name="ellipsis">
          842 0 147 hstem
          271 88 25 callgsubr
          243 hmoveto
          0 callsubr
          243 hmoveto
          0 callsubr
          endchar
        </CharString>
        <CharString name="emacron">
          1 callgsubr
          124 50 33 callgsubr
          hintmask 11101100
          -101 callsubr
          hintmask 00010000
          142 251 -76 callgsubr
        </CharString>
        <CharString name="emdash">
          1182 256 36 hstem
          1188 274 rmoveto
          117 callgsubr
          vhcurveto
          -995 129 callsubr
          995 hlineto
          14 17 0 18 hvcurveto
          endchar
        </CharString>
        <CharString name="emdash.alt">
          829 257 36 hstem
          835 275 rmoveto
          9 -8 8 -10 1 vhcurveto
          -664 hlineto
          -3 -3 0 -1 -3 hvcurveto
          -9 -2 -4 -8 -7 vvcurveto
          -12 10 -6 14 vhcurveto
          656 hlineto
          11 13 4 14 hvcurveto
          endchar
        </CharString>
        <CharString name="endash">
          591 256 36 hstem
          628 274 rmoveto
          117 callgsubr
          vhcurveto
          -466 129 callsubr
          466 hlineto
          14 17 0 18 hvcurveto
          endchar
        </CharString>
        <CharString name="eng">
          585 -211 106 521 36 hstem
          502 102 vstem
          604 339 rmoveto
          -77 callgsubr
          -117 -67 -122 -30 -120 hvcurveto
          -10 -42 -12 -48 -18 -31 rrcurveto
          10 -7 -12 6 -15 hhcurveto
          -29 -30 -24 -29 -7 hvcurveto
          -30 -7 17 -23 30 hhcurveto
          98 83 103 108 27 hvcurveto
          29 114 62 114 111 vvcurveto
          endchar
        </CharString>
        <CharString name="eogonek">
          532 -204 66 356 59 callsubr
          hstem
          4 callgsubr
          vstem
          -20 callgsubr
          endchar
        </CharString>
        <CharString name="eogonekacute">
          532 -204 66 356 59 callsubr
          71 -21 197 -20 33 callgsubr
          hintmask 11100110
          -20 callgsubr
          hintmask 00011000
          100 294 -89 callgsubr
        </CharString>
        <CharString name="equal">
          886 108 61 163 61 hstem
          886 362 24 callgsubr
          -55 -223 rmoveto
          30 -29 0 -12 vhcurveto
          -625 131 callgsubr
          613 hlineto
          15 32 0 31 hvcurveto
          endchar
        </CharString>
        <CharString name="ereversed">
          1 callgsubr
          hstem
          547 167 rmoveto
          154 77 -53 131 -173 hhcurveto
          -74 -74 -36 -60 -30 hvcurveto
          -138 -69 198 0 60 hhcurveto
          40 hlineto
          -8 -34 -13 -39 -12 -25 rrcurveto
          -59 -30 -45 -33 -56 hhcurveto
          -14 -101 0 83 -33 hvcurveto
          7 -3 -4 0 -3 hhcurveto
          -10 -32 -24 -8 -4 hvcurveto
          -6 -12 19 -39 44 -21 rrcurveto
          -19 41 58 -3 31 hhcurveto
          125 100 67 108 54 hvcurveto
          -89 87 rmoveto
          -61 -163 0 103 51 hvcurveto
          32 16 37 27 42 hhcurveto
          34 36 -16 -34 11 hvcurveto
          13 -32 -5 -30 -11 -50 rrcurveto
          endchar
        </CharString>
        <CharString name="estimated">
          796 -10 40 310 33 295 36 hstem
          134 135 451 123 vstem
          828 369 rmoveto
          10 35 5 38 37 vvcurveto
          68 -20 71 -62 41 vhcurveto
          34 -53 -62 11 -60 hhcurveto
          -116 -116 -44 -82 -82 hvcurveto
          -84 -84 -54 -125 -118 vvcurveto
          -134 78 -114 197 -13 vhcurveto
          20 hlineto
          112 131 10 96 81 hvcurveto
          6 7 6 7 9 vvcurveto
          15 -16 2 -10 vhcurveto
          -5 hlineto
          -18 -5 -9 -11 -9 hvcurveto
          -70 -62 -107 -16 -83 hhcurveto
          -81 -100 28 143 48 14 44 7 47 hvcurveto
          491 hlineto
          5 6 -1 6 hhcurveto
          22 6 11 19 2 hvcurveto
          -124 23 rmoveto
          -9 -2 1 -10 -14 hhcurveto
          -390 hlineto
          29 115 61 131 126 37 rrcurveto
          7 22 23 5 24 hhcurveto
          103 33 -76 -78 -42 -7 -40 -9 -40 hvcurveto
          endchar
        </CharString>
        <CharString name="eth">
          591 -11 40 396 36 hstem
          106 111 267 129 vstem
          586 220 rmoveto
          19 74 8 31 56 vvcurveto
          93 -36 79 -60 55 vhcurveto
          66 37 rlineto
          12 7 5 10 9 vvcurveto
          11 -7 9 -11 -5 -5 -2 -3 -5 vhcurveto
          -88 -49 -42 29 -51 19 -57 8 rlinecurve
          -15 2 -12 -14 -12 vvcurveto
          -5 3 -5 6 -2 vhcurveto
          37 -15 32 -20 26 -26 -68 -37 rcurveline
          -12 -7 -5 -10 -9 vvcurveto
          -11 8 -9 11 4 5 2 3 6 vhcurveto
          80 45 26 -37 18 -43 8 -47 rlinecurve
          9 -11 -25 16 -43 hhcurveto
          -192 -110 -176 -132 -115 84 -49 103 126 127 73 158 40 hvcurveto
          -150 -95 rmoveto
          -92 -38 -76 -4 -19 hhcurveto
          -37 -49 13 70 54 36 134 20 42 hvcurveto
          70 35 60 13 33 hhcurveto
          56 27 -39 -60 -48 -28 -106 -20 -47 hvcurveto
          endchar
        </CharString>
        <CharString name="etilde">
          1 callgsubr
          89 58 3 58 -87 callsubr
          hintmask 00011000
          137 285 -106 callgsubr
        </CharString>
        <CharString name="eturned">
          -12 callsubr
        </CharString>
        <CharString name="exclam">
          386 0 147 hstem
          137 150 vstem
          423 627 rmoveto
          5 15 2 4 9 vvcurveto
          25 -19 31 -44 -12 -66 -7 -71 -10 vhcurveto
          -54 -386 rlineto
          -11 vlineto
          -17 -4 18 0 13 hhcurveto
          23 1 1 17 6 hvcurveto
          5 -150 44 callgsubr
          endchar
        </CharString>
        <CharString name="exclamdown">
          386 353 147 hstem
          225 150 vstem
          375 440 rmoveto
          36 -27 24 -35 -42 -46 -39 -48 -33 24 -27 38 41 47 38 49 vhcurveto
          -142 -573 rmoveto
          54 386 rlineto
          28 4 -11 0 -20 hhcurveto
          -23 -1 -1 -17 -6 hvcurveto
          -141 -390 rlineto
          -5 -15 -2 -4 -9 vvcurveto
          -25 19 -31 44 12 66 7 71 10 vhcurveto
          endchar
        </CharString>
        <CharString name="f">
          -26 callsubr
        </CharString>
        <CharString name="f_f">
          756 -202 36 563 47 222 36 hstem
          -19 121 173 121 89 121 167 121 vstem
          894 622 rmoveto
          54 -57 26 -63 -128 -29 -109 -53 -10 vhcurveto
          -18 -96 rlineto
          -238 hlineto
          22 114 5 23 9 46 14 callgsubr
          -9 -50 0 -2 -14 -54 rlinecurve
          -14 -3 -14 -58 -34 hhcurveto
          0 -16 0 -14 8 vhcurveto
          33 17 8 31 16 55 callsubr
          -35 -36 -30 -45 -51 53 -28 55 76 50 77 6 4 vhcurveto
          41 63 26 142 1 7 56 304 rcurveline
          238 hlineto
          -63 -340 -9 -48 -9 -49 -16 -46 rlinecurve
          -43 -14 -40 -37 -35 hhcurveto
          -14 -12 3 6 -12 hvcurveto
          33 18 6 31 14 55 callsubr
          -38 -33 -33 -41 -52 55 -28 63 90 62 68 16 12 vhcurveto
          47 61 26 143 2 9 55 302 rcurveline
          110 50 callgsubr
          29 -25 callgsubr
          hvcurveto
          -104 hlineto
          2 11 21 120 10 40 rrcurveto
          15 3 8 36 34 hhcurveto
          21 6 -3 -5 11 hvcurveto
          -10 -6 -29 -21 -37 vvcurveto
          -27 20 -19 30 37 34 33 41 vhcurveto
          endchar
        </CharString>
        <CharString name="f_f_i">
          1045 17 callgsubr
          -19 121 162 121 117 121 216 101 11 121 vstem
          1079 31 callgsubr
          -303 hlineto
          194 34 5 28 140 hhcurveto
          22 57 0 -16 37 hvcurveto
          -22 -12 -18 -24 -28 vvcurveto
          -27 20 -19 30 31 40 26 51 83 -121 2 -76 -94 -144 0 -189 -35 vhcurveto
          -13 -69 rlineto
          -249 hlineto
          23 124 rlineto
          56 13 9 42 91 hhcurveto
          8 29 0 -11 25 hvcurveto
          -34 -20 -2 -33 -8 vvcurveto
          -27 20 -19 30 35 36 30 45 79 -123 0 -28 -87 -107 -14 -167 -31 vhcurveto
          -14 -77 rlineto
          17 callsubr
          -71 -387 -6 -35 -8 -34 -8 -35 rlinecurve
          -22 -5 -11 -50 -30 hhcurveto
          0 -14 0 -12 7 vhcurveto
          58 callsubr
          -48 47 -31 55 61 45 54 25 16 vhcurveto
          42 62 26 140 1 7 57 311 rcurveline
          250 hlineto
          -64 -346 -9 -48 -9 -49 -17 -46 rlinecurve
          -30 -11 -40 -44 -42 hhcurveto
          0 -23 0 -19 9 vhcurveto
          23 13 15 25 25 55 callsubr
          -38 -33 -33 -41 -57 64 -23 59 50 109 24 134 49 vhcurveto
          13 36 11 37 7 38 62 330 rcurveline
          225 19 callsubr
          endchar
        </CharString>
</ttFont>
